<svg width="106" height="75" viewBox="0 0 106 75" fill="none" xmlns="http://www.w3.org/2000/svg">
<path d="M58.0556 28.1459C58.0556 32.3139 55.1852 32.2176 54.8817 32.2176H49.0362V24.1891H54.8817C57.9573 24.1891 58.0556 27.3243 58.0556 28.1459ZM54.4315 20.9586C54.4799 20.9586 57.2094 21.0569 57.2094 17.3901C57.2094 15.8648 56.9557 13.8648 54.4315 13.8648H49.0362V20.9586H54.4315ZM69.3072 7.97287V37.3253C69.303 39.2698 68.7332 41.1331 67.7221 42.5081C66.7111 43.8831 65.341 44.6581 63.9112 44.6638H42.3286C40.8987 44.6581 39.5287 43.8831 38.5176 42.5081C37.5066 41.1331 36.9367 39.2698 36.9325 37.3253V7.97287C36.9367 6.02831 37.5066 4.16502 38.5176 2.79C39.5287 1.41498 40.8987 0.639981 42.3286 0.634277H63.9112C65.341 0.639981 66.7111 1.41498 67.7221 2.79C68.7332 4.16502 69.303 6.02831 69.3072 7.97287ZM61.3617 28.7287C61.3617 26.6088 60.8811 22.9999 57.8171 22.1095V22.0378C59.4727 21.0766 60.5155 19.2613 60.5155 16.5694C60.5155 15.8815 60.66 10.2028 54.9077 10.2028H45.7301V35.8864C54.9966 35.8864 55.8378 36.0515 57.5526 35.3253C58.5795 34.8909 61.3617 33.5582 61.3617 28.7287Z" fill="#7511F6"/>
<path d="M23.9411 68.2597C24.2691 68.3115 24.567 68.4453 24.8346 68.6611C25.1109 68.877 25.3267 69.1446 25.4821 69.464C25.6461 69.7835 25.7281 70.1245 25.7281 70.4871C25.7281 70.9446 25.6116 71.359 25.3785 71.7303C25.1454 72.0928 24.8044 72.3821 24.3554 72.5979C23.9152 72.8051 23.3928 72.9087 22.7885 72.9087H19.4215V63.8826H22.659C23.272 63.8826 23.7943 63.9862 24.2259 64.1934C24.6576 64.392 24.9814 64.6639 25.1972 65.0093C25.413 65.3546 25.5209 65.7431 25.5209 66.1748C25.5209 66.71 25.3742 67.1546 25.0806 67.5086C24.7957 67.8539 24.4159 68.1043 23.9411 68.2597ZM20.6 67.7805H22.5813C23.1338 67.7805 23.5612 67.651 23.8634 67.392C24.1655 67.133 24.3166 66.7748 24.3166 66.3172C24.3166 65.8596 24.1655 65.5014 23.8634 65.2424C23.5612 64.9834 23.1252 64.8539 22.5554 64.8539H20.6V67.7805ZM22.6849 71.9375C23.272 71.9375 23.7295 71.7993 24.0576 71.5231C24.3857 71.2468 24.5497 70.8626 24.5497 70.3705C24.5497 69.8698 24.377 69.477 24.0317 69.1921C23.6864 68.8985 23.2245 68.7518 22.6461 68.7518H20.6V71.9375H22.6849ZM31.4556 72.9993C30.6182 72.9993 29.8542 72.8051 29.1635 72.4166C28.4728 72.0195 27.9246 71.4713 27.5189 70.772C27.1217 70.064 26.9232 69.2698 26.9232 68.3892C26.9232 67.5086 27.1217 66.7187 27.5189 66.0194C27.9246 65.3114 28.4728 64.7632 29.1635 64.3747C29.8542 63.9776 30.6182 63.779 31.4556 63.779C32.3017 63.779 33.07 63.9776 33.7607 64.3747C34.4514 64.7632 34.9953 65.3071 35.3924 66.0064C35.7895 66.7057 35.9881 67.5 35.9881 68.3892C35.9881 69.2784 35.7895 70.0727 35.3924 70.772C34.9953 71.4713 34.4514 72.0195 33.7607 72.4166C33.07 72.8051 32.3017 72.9993 31.4556 72.9993ZM31.4556 71.9763C32.0858 71.9763 32.6513 71.8295 33.1521 71.536C33.6614 71.2425 34.0585 70.8238 34.3434 70.2799C34.637 69.736 34.7837 69.1057 34.7837 68.3892C34.7837 67.664 34.637 67.0338 34.3434 66.4985C34.0585 65.9546 33.6657 65.5359 33.165 65.2424C32.6643 64.9488 32.0945 64.8021 31.4556 64.8021C30.8168 64.8021 30.247 64.9488 29.7462 65.2424C29.2455 65.5359 28.8484 65.9546 28.5548 66.4985C28.2699 67.0338 28.1275 67.664 28.1275 68.3892C28.1275 69.1057 28.2699 69.736 28.5548 70.2799C28.8484 70.8238 29.2455 71.2425 29.7462 71.536C30.2556 71.8295 30.8254 71.9763 31.4556 71.9763ZM41.6359 72.9993C40.7985 72.9993 40.0345 72.8051 39.3438 72.4166C38.6532 72.0195 38.1049 71.4713 37.6992 70.772C37.302 70.064 37.1035 69.2698 37.1035 68.3892C37.1035 67.5086 37.302 66.7187 37.6992 66.0194C38.1049 65.3114 38.6532 64.7632 39.3438 64.3747C40.0345 63.9776 40.7985 63.779 41.6359 63.779C42.482 63.779 43.2504 63.9776 43.941 64.3747C44.6317 64.7632 45.1756 65.3071 45.5727 66.0064C45.9698 66.7057 46.1684 67.5 46.1684 68.3892C46.1684 69.2784 45.9698 70.0727 45.5727 70.772C45.1756 71.4713 44.6317 72.0195 43.941 72.4166C43.2504 72.8051 42.482 72.9993 41.6359 72.9993ZM41.6359 71.9763C42.2662 71.9763 42.8316 71.8295 43.3324 71.536C43.8417 71.2425 44.2389 70.8238 44.5238 70.2799C44.8173 69.736 44.9641 69.1057 44.9641 68.3892C44.9641 67.664 44.8173 67.0338 44.5238 66.4985C44.2389 65.9546 43.8461 65.5359 43.3453 65.2424C42.8446 64.9488 42.2748 64.8021 41.6359 64.8021C40.9971 64.8021 40.4273 64.9488 39.9266 65.2424C39.4258 65.5359 39.0287 65.9546 38.7352 66.4985C38.4503 67.0338 38.3078 67.664 38.3078 68.3892C38.3078 69.1057 38.4503 69.736 38.7352 70.2799C39.0287 70.8238 39.4258 71.2425 39.9266 71.536C40.4359 71.8295 41.0057 71.9763 41.6359 71.9763ZM53.2796 63.8826V64.8409H50.8191V72.9087H49.6407V64.8409H47.1673V63.8826H53.2796ZM57.5921 72.9993C56.9964 72.9993 56.4612 72.8957 55.9863 72.6885C55.5201 72.4727 55.1532 72.1792 54.8856 71.808C54.618 71.4281 54.4798 70.9921 54.4712 70.5H55.7273C55.7705 70.923 55.9432 71.2813 56.2453 71.5749C56.5561 71.8598 57.005 72.0022 57.5921 72.0022C58.1533 72.0022 58.5936 71.8641 58.913 71.5878C59.2411 71.3029 59.4051 70.9403 59.4051 70.5C59.4051 70.1547 59.3101 69.8741 59.1202 69.6583C58.9303 69.4424 58.6928 69.2784 58.4079 69.1662C58.1231 69.0539 57.7389 68.9331 57.2554 68.8036C56.6597 68.6482 56.1806 68.4928 55.818 68.3374C55.464 68.182 55.1575 67.9403 54.8985 67.6122C54.6482 67.2755 54.523 66.8266 54.523 66.2654C54.523 65.7733 54.6482 65.3373 54.8985 64.9575C55.1489 64.5776 55.4985 64.2841 55.9475 64.0769C56.405 63.8697 56.9273 63.7661 57.5144 63.7661C58.3605 63.7661 59.0511 63.9776 59.5864 64.4006C60.1303 64.8237 60.4368 65.3848 60.5058 66.0841H59.2108C59.1677 65.7388 58.9864 65.4366 58.6669 65.1776C58.3475 64.91 57.9245 64.7762 57.3979 64.7762C56.9058 64.7762 56.5043 64.9057 56.1935 65.1647C55.8827 65.415 55.7273 65.769 55.7273 66.2266C55.7273 66.5546 55.818 66.8223 55.9993 67.0294C56.1892 67.2366 56.418 67.3964 56.6856 67.5086C56.9619 67.6122 57.3461 67.7331 57.8382 67.8712C58.4338 68.0352 58.913 68.1993 59.2756 68.3633C59.6382 68.5187 59.949 68.7647 60.208 69.1014C60.467 69.4295 60.5965 69.8784 60.5965 70.4482C60.5965 70.8885 60.4799 71.3029 60.2468 71.6914C60.0137 72.0799 59.6684 72.395 59.2108 72.6367C58.7533 72.8785 58.2137 72.9993 57.5921 72.9993ZM67.8861 63.8826V64.8409H65.4257V72.9087H64.2472V64.8409H61.7738V63.8826H67.8861ZM74.0893 72.9087L71.9396 69.218H70.5152V72.9087H69.3367V63.8826H72.2504C72.9325 63.8826 73.5066 63.9992 73.9728 64.2323C74.4476 64.4654 74.8016 64.7805 75.0347 65.1776C75.2678 65.5747 75.3843 66.028 75.3843 66.5374C75.3843 67.1589 75.203 67.7072 74.8404 68.182C74.4865 68.6568 73.9512 68.9719 73.2346 69.1273L75.5009 72.9087H74.0893ZM70.5152 68.2726H72.2504C72.8893 68.2726 73.3685 68.1172 73.6879 67.8064C74.0073 67.487 74.167 67.064 74.167 66.5374C74.167 66.0021 74.0073 65.5877 73.6879 65.2942C73.3771 65.0006 72.8979 64.8539 72.2504 64.8539H70.5152V68.2726ZM82.5508 70.9015H78.614L77.8888 72.9087H76.6456L79.909 63.9344H81.2687L84.5191 72.9087H83.276L82.5508 70.9015ZM82.2141 69.9432L80.5824 65.3848L78.9507 69.9432H82.2141ZM91.976 66.5244C91.976 67.2755 91.717 67.9014 91.199 68.4021C90.6897 68.8942 89.9084 69.1403 88.8551 69.1403H87.1198V72.9087H85.9414V63.8826H88.8551C89.8738 63.8826 90.6465 64.1287 91.1731 64.6208C91.7084 65.1129 91.976 65.7474 91.976 66.5244ZM88.8551 68.169C89.5112 68.169 89.9947 68.0266 90.3055 67.7417C90.6163 67.4568 90.7717 67.051 90.7717 66.5244C90.7717 65.4107 90.1328 64.8539 88.8551 64.8539H87.1198V68.169H88.8551Z" fill="#00FF19"/>
</svg>
