<svg width="55" height="73" viewBox="0 0 55 73" fill="none" xmlns="http://www.w3.org/2000/svg">
<path d="M13.4133 0.634277L16.3556 39.5336L29.6006 44.6638L42.8455 39.5336L45.7879 0.634277H13.4133ZM39.8104 8.4967L39.4057 13.1454L29.6849 17.9906L29.6596 18.0004H39.0601L37.9809 32.4083L29.7018 35.2289L21.372 32.3592L20.8325 25.0962H24.9552L25.225 28.8604L29.6596 30.1675L34.2713 28.654L34.5833 22.5999L20.5627 22.5508V22.541L20.5458 22.5508L20.2423 18.0004L29.6933 13.4107L30.2413 13.1454H19.8798L19.3908 8.4967H39.8104Z" fill="#23A4DC"/>
<path d="M14.1141 68.3892C14.1141 67.5086 14.3126 66.7187 14.7098 66.0194C15.1069 65.3114 15.6465 64.7589 16.3285 64.3618C17.0192 63.9646 17.7832 63.7661 18.6206 63.7661C19.6048 63.7661 20.4638 64.0035 21.1977 64.4783C21.9315 64.9532 22.4667 65.6265 22.8034 66.4985H21.3919C21.1415 65.9546 20.7789 65.5359 20.3041 65.2424C19.8379 64.9488 19.2768 64.8021 18.6206 64.8021C17.9904 64.8021 17.4249 64.9488 16.9242 65.2424C16.4235 65.5359 16.0307 65.9546 15.7458 66.4985C15.4609 67.0338 15.3184 67.664 15.3184 68.3892C15.3184 69.1057 15.4609 69.736 15.7458 70.2799C16.0307 70.8151 16.4235 71.2295 16.9242 71.5231C17.4249 71.8166 17.9904 71.9634 18.6206 71.9634C19.2768 71.9634 19.8379 71.8209 20.3041 71.536C20.7789 71.2425 21.1415 70.8238 21.3919 70.2799H22.8034C22.4667 71.1432 21.9315 71.8123 21.1977 72.2871C20.4638 72.7533 19.6048 72.9864 18.6206 72.9864C17.7832 72.9864 17.0192 72.7921 16.3285 72.4036C15.6465 72.0065 15.1069 71.4583 14.7098 70.759C14.3126 70.0597 14.1141 69.2698 14.1141 68.3892ZM27.4196 72.9993C26.8239 72.9993 26.2886 72.8957 25.8138 72.6885C25.3476 72.4727 24.9807 72.1792 24.713 71.808C24.4454 71.4281 24.3073 70.9921 24.2986 70.5H25.5548C25.5979 70.923 25.7706 71.2813 26.0728 71.5749C26.3836 71.8598 26.8325 72.0022 27.4196 72.0022C27.9807 72.0022 28.421 71.8641 28.7405 71.5878C29.0685 71.3029 29.2325 70.9403 29.2325 70.5C29.2325 70.1547 29.1376 69.8741 28.9477 69.6583C28.7577 69.4424 28.5203 69.2784 28.2354 69.1662C27.9505 69.0539 27.5663 68.9331 27.0829 68.8036C26.4872 68.6482 26.008 68.4928 25.6454 68.3374C25.2915 68.182 24.985 67.9403 24.726 67.6122C24.4756 67.2755 24.3504 66.8266 24.3504 66.2654C24.3504 65.7733 24.4756 65.3373 24.726 64.9575C24.9764 64.5776 25.326 64.2841 25.7749 64.0769C26.2325 63.8697 26.7548 63.7661 27.3419 63.7661C28.1879 63.7661 28.8786 63.9776 29.4138 64.4006C29.9577 64.8237 30.2642 65.3848 30.3333 66.0841H29.0383C28.9951 65.7388 28.8138 65.4366 28.4944 65.1776C28.175 64.91 27.7519 64.7762 27.2253 64.7762C26.7332 64.7762 26.3318 64.9057 26.021 65.1647C25.7102 65.415 25.5548 65.769 25.5548 66.2266C25.5548 66.5546 25.6454 66.8223 25.8267 67.0294C26.0167 67.2366 26.2454 67.3964 26.5131 67.5086C26.7893 67.6122 27.1735 67.7331 27.6656 67.8712C28.2613 68.0352 28.7405 68.1993 29.103 68.3633C29.4656 68.5187 29.7764 68.7647 30.0354 69.1014C30.2944 69.4295 30.4239 69.8784 30.4239 70.4482C30.4239 70.8885 30.3074 71.3029 30.0743 71.6914C29.8412 72.0799 29.4959 72.395 29.0383 72.6367C28.5807 72.8785 28.0412 72.9993 27.4196 72.9993ZM35.02 72.9993C34.4243 72.9993 33.8891 72.8957 33.4142 72.6885C32.948 72.4727 32.5811 72.1792 32.3135 71.808C32.0459 71.4281 31.9077 70.9921 31.8991 70.5H33.1552C33.1984 70.923 33.3711 71.2813 33.6732 71.5749C33.984 71.8598 34.433 72.0022 35.02 72.0022C35.5812 72.0022 36.0215 71.8641 36.3409 71.5878C36.669 71.3029 36.833 70.9403 36.833 70.5C36.833 70.1547 36.738 69.8741 36.5481 69.6583C36.3582 69.4424 36.1208 69.2784 35.8359 69.1662C35.551 69.0539 35.1668 68.9331 34.6833 68.8036C34.0876 68.6482 33.6085 68.4928 33.2459 68.3374C32.8919 68.182 32.5855 67.9403 32.3265 67.6122C32.0761 67.2755 31.9509 66.8266 31.9509 66.2654C31.9509 65.7733 32.0761 65.3373 32.3265 64.9575C32.5768 64.5776 32.9265 64.2841 33.3754 64.0769C33.833 63.8697 34.3553 63.7661 34.9423 63.7661C35.7884 63.7661 36.479 63.9776 37.0143 64.4006C37.5582 64.8237 37.8647 65.3848 37.9337 66.0841H36.6388C36.5956 65.7388 36.4143 65.4366 36.0949 65.1776C35.7754 64.91 35.3524 64.7762 34.8258 64.7762C34.3337 64.7762 33.9322 64.9057 33.6214 65.1647C33.3106 65.415 33.1552 65.769 33.1552 66.2266C33.1552 66.5546 33.2459 66.8223 33.4272 67.0294C33.6171 67.2366 33.8459 67.3964 34.1135 67.5086C34.3898 67.6122 34.774 67.7331 35.2661 67.8712C35.8618 68.0352 36.3409 68.1993 36.7035 68.3633C37.0661 68.5187 37.3769 68.7647 37.6359 69.1014C37.8949 69.4295 38.0244 69.8784 38.0244 70.4482C38.0244 70.8885 37.9078 71.3029 37.6748 71.6914C37.4417 72.0799 37.0963 72.395 36.6388 72.6367C36.1812 72.8785 35.6416 72.9993 35.02 72.9993ZM39.5384 65.9028C39.5989 65.1086 39.9053 64.487 40.4579 64.038C41.0104 63.5891 41.7269 63.3646 42.6075 63.3646C43.1946 63.3646 43.6996 63.4726 44.1227 63.6884C44.5543 63.8956 44.8781 64.1805 45.0939 64.5431C45.3184 64.9057 45.4306 65.3157 45.4306 65.7733C45.4306 66.3086 45.2752 66.7705 44.9644 67.1589C44.6623 67.5474 44.2651 67.7978 43.773 67.91V67.9748C44.3342 68.1129 44.7788 68.3849 45.1069 68.7906C45.4349 69.1964 45.599 69.7273 45.599 70.3835C45.599 70.8756 45.4867 71.3202 45.2623 71.7173C45.0378 72.1058 44.7011 72.4123 44.2522 72.6367C43.8032 72.8612 43.2637 72.9734 42.6334 72.9734C41.7183 72.9734 40.9672 72.736 40.3802 72.2612C39.7931 71.7777 39.465 71.0957 39.396 70.2151H40.5356C40.596 70.7331 40.8075 71.1561 41.1701 71.4842C41.5327 71.8123 42.0162 71.9763 42.6205 71.9763C43.2248 71.9763 43.6824 71.8209 43.9932 71.5101C44.3126 71.1907 44.4723 70.7806 44.4723 70.2799C44.4723 69.6324 44.2565 69.1662 43.8248 68.8813C43.3932 68.5964 42.7414 68.4539 41.8694 68.4539H41.5716V67.4697H41.8823C42.6766 67.4611 43.2766 67.3316 43.6824 67.0812C44.0881 66.8223 44.291 66.4251 44.291 65.8899C44.291 65.4323 44.1399 65.0654 43.8378 64.7891C43.5442 64.5129 43.1212 64.3747 42.5687 64.3747C42.0334 64.3747 41.6018 64.5129 41.2737 64.7891C40.9456 65.0654 40.7514 65.4366 40.691 65.9028H39.5384Z" fill="#0AFF05"/>
</svg>
