<svg width="87" height="91" viewBox="0 0 87 91" fill="none" xmlns="http://www.w3.org/2000/svg">
<g clip-path="url(#clip0)">
<path fill-rule="evenodd" clip-rule="evenodd" d="M22.1585 44.4076V40.3231C22.1585 39.7864 22.494 39.3553 23.0497 39.3553H23.2035C23.7589 39.3553 24.0929 39.7872 24.0929 40.3231V48.9221C24.0929 51.019 23.0569 52.6875 21.2516 53.7504C20.4246 54.2404 19.4807 54.4978 18.5194 54.4956H18.1358C16.0384 54.4956 14.3721 53.4589 13.3074 51.6548C12.8168 50.8279 12.5594 49.8836 12.5625 48.9221V48.5389C12.5625 46.4413 13.599 44.7738 15.4028 43.7086C16.2296 43.2177 17.1742 42.9601 18.1358 42.9635H18.5194C19.9388 42.9635 21.1405 43.5137 22.1585 44.4073V44.4076ZM14.4967 48.7302C14.4967 50.2449 15.2306 51.3837 16.5581 52.1101C17.0948 52.4037 17.6774 52.5615 18.2898 52.5615C19.7766 52.5615 20.8794 51.8625 21.6398 50.6001C21.9935 50.014 22.1583 49.3727 22.1583 48.691C22.1583 47.3779 21.5342 46.3532 20.4783 45.5921C19.8367 45.1308 19.1145 44.8993 18.327 44.8993C16.7064 44.8993 15.5401 45.7181 14.8402 47.1725C14.604 47.6642 14.4962 48.186 14.4962 48.7302H14.4967ZM30.8034 42.9637H31.0715C33.3127 42.9637 35.0172 44.0509 36.0973 46.0072C36.5292 46.7898 36.7603 47.644 36.7603 48.5389V48.9221C36.7603 51.019 35.7264 52.6898 33.9183 53.7507C33.0813 54.2417 32.1567 54.4956 31.1866 54.4956H30.8034C28.706 54.4956 27.039 53.4589 25.9751 51.6548C25.4842 50.828 25.2265 49.8837 25.2295 48.9221V48.5389C25.2295 46.4411 26.2704 44.779 28.0695 43.7094C28.8961 43.2169 29.8413 42.9591 30.8034 42.9637ZM27.1638 48.7302C27.1638 50.203 27.8878 51.2821 29.1272 52.0427C29.7103 52.3997 30.3503 52.5615 31.0338 52.5615C32.4867 52.5615 33.5606 51.8251 34.308 50.5986C34.6644 50.014 34.8257 49.3717 34.8257 48.691C34.8257 47.3237 34.1672 46.2795 33.0413 45.5224C32.4382 45.112 31.7244 44.8947 30.9949 44.8993C29.3743 44.8993 28.208 45.7181 27.5083 47.1725C27.2717 47.6642 27.1638 48.186 27.1638 48.7302ZM44.8016 45.0539C44.5096 44.9171 43.9629 44.8716 43.6473 44.8597C42.0312 44.7987 40.862 45.7089 40.176 47.1345C39.9388 47.6263 39.831 48.1468 39.831 48.691C39.831 50.3477 40.701 51.5078 42.1775 52.215C42.7177 52.4731 43.4152 52.522 44.0056 52.522C44.5248 52.522 45.2587 52.204 45.7195 51.9853L45.7994 51.9474H46.1571L46.1965 51.9554C46.6364 52.047 46.9684 52.3258 46.9684 52.7991V52.9906C46.9684 54.1683 44.8161 54.4379 43.9948 54.4953C41.0991 54.6958 38.9291 53.1042 38.1028 50.3398C37.9593 49.8597 37.8946 49.3829 37.8946 48.8827V48.5C37.8946 46.4024 38.9356 44.7406 40.7347 43.6722C41.5604 43.1777 42.5057 42.9187 43.4681 42.9233H43.8515C44.8825 42.9233 45.8321 43.2161 46.6833 43.7975L46.7532 43.8459L46.7974 43.9188C46.8893 44.0686 46.9684 44.2473 46.9684 44.4285V44.62C46.9684 45.1138 46.5989 45.3794 46.1531 45.4653L46.1162 45.4717H46.0018C45.7133 45.4717 45.057 45.1729 44.7994 45.0516L44.8016 45.0539ZM51.0758 46.3637L53.3437 44.1205C53.5559 43.9141 54.3607 43.0404 54.6774 43.0404H55.0239L55.0634 43.0486C55.5047 43.1402 55.8352 43.4195 55.8352 43.8938V44.0851C55.8352 44.4086 55.4563 44.7845 55.2473 45.0087C54.803 45.4797 54.3352 45.9353 53.8804 46.3966L51.5433 48.7691L54.5529 51.8031C54.8297 52.0836 55.1044 52.3662 55.3769 52.6508C55.473 52.7519 55.6148 52.8755 55.6954 53.0178C55.7821 53.1491 55.8352 53.2974 55.8352 53.4551V53.6548L55.824 53.701C55.7154 54.1424 55.4353 54.4983 54.9463 54.4983H54.7923C54.4722 54.4983 54.1108 54.1364 53.8916 53.9292C53.4423 53.5033 53.0037 53.0555 52.5611 52.6204L51.0758 51.1625V53.4926C51.0758 54.0293 50.7398 54.4606 50.1846 54.4606H50.0348C49.4792 54.4606 49.1437 54.0293 49.1437 53.4926V40.3631C49.1437 39.8264 49.4794 39.397 50.0348 39.397H50.1846C50.7395 39.397 51.0758 39.8264 51.0758 40.3631V46.3662V46.3637ZM75.1842 43.0404H75.3764C75.9566 43.0404 76.3437 43.4313 76.3437 44.0082C76.3437 44.809 75.5781 45.0142 74.9159 45.0142C74.0472 45.0142 73.2176 45.5401 72.6188 46.13C71.8699 46.8664 71.5454 47.809 71.5454 48.8455V53.5285C71.5454 54.0652 71.2101 54.4961 70.6542 54.4961H70.5014C69.9455 54.4961 69.6102 54.0655 69.6102 53.5285V48.5769C69.6102 46.6755 70.5359 45.1233 72.0816 44.0346C73.0052 43.3843 74.0586 43.0411 75.1865 43.0411L75.1842 43.0404ZM61.4361 52.3206C62.1401 52.5664 62.9427 52.5312 63.6648 52.4054C64.0343 52.2482 64.9789 51.8363 65.3264 51.8967L65.3805 51.9059L65.4305 51.9304C65.6426 52.0332 65.8448 52.1788 65.9534 52.3947C66.2066 52.9007 66.085 53.4094 65.5877 53.6968L65.4222 53.7924C63.5874 54.8513 61.6358 54.7045 59.8068 53.7155C58.9324 53.2427 58.2634 52.541 57.7698 51.6855L57.6545 51.4858C56.4763 49.4458 56.6355 47.3 57.9641 45.3599C58.4226 44.6894 59.022 44.1717 59.7227 43.7663L59.9878 43.6133C61.7157 42.6157 63.5675 42.6841 65.3423 43.5596C66.2967 44.0304 67.0698 44.7321 67.6025 45.655L67.6983 45.8212C68.0853 46.4917 67.584 47.0759 67.0668 47.4753C66.4662 47.9386 65.8598 48.4987 65.2844 48.993L61.4366 52.3206H61.4361ZM59.7749 51.1538L65.5912 46.152C65.2018 45.6612 64.5513 45.3075 63.9986 45.0966C62.8827 44.6714 61.7826 44.8145 60.7594 45.4048C59.4201 46.1782 58.8497 47.4094 58.8997 48.9421C58.9196 49.5457 59.0819 50.1273 59.4022 50.6408C59.515 50.8218 59.6411 50.9918 59.7774 51.1538H59.7749ZM49.3359 12.3922H55.0439V18.2272H57.9296C59.2626 18.2272 60.6331 17.9901 61.8955 17.5622C62.5158 17.3518 63.2118 17.0592 63.8236 16.6885C63.0178 15.6366 62.6064 14.3083 62.4856 12.999C62.3208 11.2179 62.6803 8.90011 63.8855 7.50593L64.4856 6.81196L65.2006 7.38686C66.9979 8.83296 68.5146 10.8567 68.7815 13.1578C70.949 12.5202 73.494 12.671 75.4041 13.7736L76.188 14.2259L75.7756 15.0312C74.1605 18.1871 70.782 19.1641 67.4794 18.9911C62.5375 31.2978 51.7783 37.1274 38.7329 37.1274C31.9929 37.1274 25.8096 34.6079 22.2883 28.6283L22.2309 28.5284L21.7179 27.4845C20.5277 24.8524 20.1323 21.9689 20.4004 19.0877L20.481 18.2247H25.362V12.3922H31.0698V6.68415H42.4861V0.976135H49.3359V12.3922Z" fill="white"/>
<path fill-rule="evenodd" clip-rule="evenodd" d="M67.8279 14.551C68.2106 11.5764 65.9846 9.24009 64.6042 8.13049C63.0133 9.96976 62.7662 14.7901 65.262 16.8196C63.869 18.0567 60.9341 19.1781 57.9288 19.1781H21.347C21.0549 22.3152 21.6056 25.2041 22.8635 27.6767L23.2796 28.4381C23.5431 28.8849 23.831 29.317 24.1421 29.7321C25.6461 29.8287 27.0328 29.8619 28.3014 29.834H28.3019C30.7949 29.7791 32.8292 29.4845 34.3709 28.9503C34.4799 28.9164 34.5978 28.9262 34.6996 28.9777C34.8015 29.0291 34.8794 29.1182 34.9168 29.2261C34.9542 29.3339 34.9481 29.4521 34.9 29.5556C34.8518 29.659 34.7653 29.7397 34.6587 29.7806C34.4535 29.852 34.2398 29.9184 34.0191 29.9815H34.0184C32.8044 30.331 31.5026 30.5614 29.8231 30.665C29.923 30.6667 29.7193 30.68 29.7188 30.68C29.6614 30.6837 29.5897 30.692 29.5323 30.695C28.8713 30.7324 28.1579 30.7399 27.4284 30.7399C26.6306 30.7399 25.845 30.7249 24.9666 30.68L24.9416 30.695C27.9871 34.1209 32.7555 36.1756 38.7296 36.1756C51.3728 36.1756 62.0969 30.5709 66.8458 17.9883C70.2148 18.3341 73.4528 17.4749 74.9256 14.5996C72.5796 13.2459 69.5626 13.6775 67.8254 14.5507" fill="#22A0C8"/>
<path fill-rule="evenodd" clip-rule="evenodd" d="M67.8279 14.551C68.2106 11.5764 65.9846 9.24009 64.6042 8.13049C63.0133 9.96976 62.7662 14.7901 65.262 16.8196C63.869 18.0567 60.9341 19.1781 57.9289 19.1781H23.5133C23.364 23.9824 25.1468 27.6293 28.3011 29.834H28.3019C30.7949 29.7791 32.8292 29.4845 34.3709 28.9503C34.4799 28.9164 34.5978 28.9262 34.6996 28.9777C34.8015 29.0291 34.8794 29.1182 34.9168 29.2261C34.9542 29.3339 34.9481 29.4521 34.9 29.5556C34.8518 29.659 34.7653 29.7397 34.6587 29.7806C34.4535 29.852 34.2398 29.9184 34.0191 29.9815H34.0184C32.8044 30.331 31.3908 30.5914 29.7113 30.695C29.7108 30.695 29.6706 30.6563 29.6701 30.6563C33.973 32.8635 40.2119 32.853 47.3651 30.1078C55.3856 27.0264 62.8495 21.1561 68.0593 14.4419C67.9823 14.4766 67.906 14.5129 67.8304 14.5507" fill="#37B1D9"/>
<path fill-rule="evenodd" clip-rule="evenodd" d="M21.4156 22.9898C21.6403 24.6704 22.1346 26.2438 22.8635 27.6769L23.2796 28.4383C23.543 28.8852 23.831 29.3172 24.1421 29.7323C25.6463 29.8289 27.0328 29.8621 28.3019 29.8342C30.7949 29.7793 32.8292 29.4847 34.3709 28.9505C34.4799 28.9166 34.5978 28.9264 34.6997 28.9779C34.8015 29.0293 34.8794 29.1184 34.9168 29.2263C34.9542 29.3341 34.9481 29.4523 34.9 29.5558C34.8518 29.6592 34.7653 29.7399 34.6587 29.7808C34.4535 29.8522 34.2398 29.9186 34.0191 29.9817H34.0184C32.8044 30.3312 31.3983 30.5766 29.7188 30.6807C29.6614 30.6842 29.5605 30.6849 29.5024 30.6882C28.8418 30.7251 28.1356 30.7481 27.406 30.7481C26.5752 30.7496 25.7445 30.7296 24.9147 30.6882C27.9601 34.1143 32.758 36.1738 38.7321 36.1738C49.5561 36.1738 58.9731 32.0654 64.4389 22.9879H21.4156" fill="#1B81A5"/>
<path fill-rule="evenodd" clip-rule="evenodd" d="M23.8425 22.9899C24.4896 25.9405 26.0442 28.2571 28.3019 29.8343C30.7949 29.7793 32.8292 29.4848 34.3709 28.9506C34.4799 28.9167 34.5978 28.9265 34.6997 28.978C34.8015 29.0294 34.8794 29.1185 34.9168 29.2263C34.9542 29.3342 34.9481 29.4524 34.9 29.5558C34.8518 29.6593 34.7653 29.74 34.6587 29.7808C34.4535 29.8522 34.2398 29.9186 34.0191 29.9818H34.0184C32.8045 30.3313 31.3686 30.5767 29.6888 30.6807C33.9914 32.8875 40.2124 32.8558 47.3626 30.1084C51.6896 28.4458 55.8542 25.971 59.5904 22.9902H23.8425" fill="#1D91B4"/>
<path fill-rule="evenodd" clip-rule="evenodd" d="M26.3121 13.3435H31.2593V18.2903H26.3121V13.3435ZM26.724 13.7558H27.1144V17.876H26.7215V13.7558H26.724ZM27.4579 13.7558H27.864V17.876H27.4579V13.7558ZM28.2073 13.7558H28.6134V17.876H28.2073V13.7558ZM28.9572 13.7558H29.3631V17.876H28.9572V13.7558ZM29.7068 13.7558H30.1127V17.876H29.7071V13.7558H29.7068ZM30.4562 13.7558H30.8469V17.876H30.4559V13.7558H30.4562ZM32.0199 7.63544H36.9675V12.5823H32.0199V7.63544ZM32.4323 8.04782H32.8224V12.1702H32.4323V8.04807V8.04782ZM33.1662 8.04782H33.5721V12.1702H33.1669V8.04807L33.1662 8.04782ZM33.9156 8.04782H34.3215V12.1702H33.9158V8.04807L33.9156 8.04782ZM34.6652 8.04782H35.0711V12.1702H34.6652V8.04807V8.04782ZM35.4148 8.04782H35.821V12.1702H35.4148V8.04807V8.04782ZM36.1642 8.04782H36.5551V12.1702H36.1642V8.04807V8.04782Z" fill="#23A3C2"/>
<path fill-rule="evenodd" clip-rule="evenodd" d="M32.0201 13.3435H36.9678V18.2904H32.0201V13.3435ZM32.4325 13.7559H32.8227V17.876H32.4325V13.7559ZM33.1664 13.7559H33.5723V17.876H33.1669V13.7559H33.1664ZM33.9158 13.7559H34.3217V17.876H33.9158V13.7559ZM34.6654 13.7559H35.0713V17.876H34.6654V13.7559ZM35.4151 13.7559H35.8212V17.876H35.4151V13.7559ZM36.1645 13.7559H36.5554V17.876H36.1645V13.7559Z" fill="#34BBDE"/>
<path fill-rule="evenodd" clip-rule="evenodd" d="M37.7284 13.3435H42.6755V18.2904H37.7284V13.3435ZM38.1403 13.7559H38.5304V17.876H38.1403V13.7559ZM38.8742 13.7559H39.2801V17.876H38.8742V13.7559ZM39.6238 13.7559H40.0297V17.876H39.6238V13.7559ZM40.3734 13.7559H40.7793V17.876H40.3762V13.7559H40.3734ZM41.1228 13.7559H41.5292V17.876H41.1228V13.7559ZM41.8725 13.7559H42.2629V17.876H41.8725V13.7559Z" fill="#23A3C2"/>
<path fill-rule="evenodd" clip-rule="evenodd" d="M37.7284 7.63544H42.6755V12.5823H37.7284V7.63544ZM38.1403 8.04782H38.5304V12.1702H38.1403V8.04807V8.04782ZM38.8742 8.04782H39.2801V12.1702H38.8742V8.04807V8.04782ZM39.6238 8.04782H40.0297V12.1702H39.6238V8.04807V8.04782ZM40.3734 8.04782H40.7793V12.1702H40.3762V8.04807L40.3734 8.04782ZM41.1228 8.04782H41.5292V12.1702H41.1228V8.04807V8.04782ZM41.8725 8.04782H42.2629V12.1702H41.8725V8.04807V8.04782ZM43.4361 13.3435H48.3833V18.2903H43.4366V13.3435H43.4361ZM43.8485 13.7558H44.2387V17.876H43.846V13.7558H43.8485ZM44.5824 13.7558H44.9883V17.876H44.5824V13.7558ZM45.3318 13.7558H45.7377V17.876H45.3318V13.7558ZM46.0815 13.7558H46.4876V17.876H46.0815V13.7558ZM46.8311 13.7558H47.2372V17.876H46.8311V13.7558ZM47.5807 13.7558H47.9712V17.876H47.5807V13.7558Z" fill="#34BBDE"/>
<path fill-rule="evenodd" clip-rule="evenodd" d="M43.4366 7.63544H48.3838V12.5823H43.4366V7.63544ZM43.849 8.04782H44.2392V12.1702H43.849V8.04807V8.04782ZM44.5829 8.04782H44.9888V12.1702H44.5829V8.04807V8.04782ZM45.3323 8.04782H45.7382V12.1702H45.3323V8.04807V8.04782ZM46.082 8.04782H46.4881V12.1702H46.082V8.04807V8.04782ZM46.8316 8.04782H47.2377V12.1702H46.8316V8.04807V8.04782ZM47.5812 8.04782H47.9717V12.1702H47.5812V8.04807V8.04782Z" fill="#23A3C2"/>
<path fill-rule="evenodd" clip-rule="evenodd" d="M43.4366 1.92474H48.3838V6.87239H43.4366V1.92474ZM43.849 2.33663H44.2392V6.4595H43.849V2.33913V2.33663ZM44.5829 2.33663H44.9888V6.4595H44.5829V2.33913V2.33663ZM45.3323 2.33663H45.7382V6.4595H45.3323V2.33913V2.33663ZM46.082 2.33663H46.4881V6.4595H46.082V2.33913V2.33663ZM46.8316 2.33663H47.2377V6.4595H46.8316V2.33913V2.33663ZM47.5812 2.33663H47.9717V6.4595H47.5812V2.33913V2.33663Z" fill="#34BBDE"/>
<path fill-rule="evenodd" clip-rule="evenodd" d="M49.1444 13.3435H54.0916V18.2904H49.1444V13.3435ZM49.5563 13.7559H49.947V17.876H49.5566V13.7559H49.5563ZM50.2902 13.7559H50.6964V17.876H50.2905V13.7559H50.2902ZM51.0401 13.7559H51.4463V17.876H51.0401V13.7559ZM51.7895 13.7559H52.1956V17.876H51.7895V13.7559ZM52.5394 13.7559H52.9453V17.876H52.5394V13.7559ZM53.2888 13.7559H53.6792V17.876H53.2888V13.7559Z" fill="#23A3C2"/>
<path fill-rule="evenodd" clip-rule="evenodd" d="M36.6577 26.3113C36.8385 26.3089 37.018 26.3425 37.1857 26.41C37.3534 26.4775 37.5061 26.5777 37.6347 26.7047C37.7634 26.8317 37.8656 26.983 37.9353 27.1498C38.005 27.3166 38.0409 27.4956 38.0409 27.6764C38.0409 27.8572 38.0049 28.0362 37.9351 28.203C37.8653 28.3698 37.7631 28.5211 37.6344 28.648C37.5057 28.775 37.353 28.8751 37.1852 28.9426C37.0175 29.01 36.838 29.0435 36.6572 29.041C36.2984 29.0361 35.956 28.8901 35.7041 28.6346C35.4521 28.3792 35.3109 28.0348 35.311 27.6759C35.311 27.3171 35.4524 26.9728 35.7044 26.7174C35.9565 26.462 36.2989 26.3161 36.6577 26.3113Z" fill="#D3ECEC"/>
<path fill-rule="evenodd" clip-rule="evenodd" d="M36.6577 26.6985C36.7787 26.6984 36.8987 26.7208 37.0114 26.7646C36.9357 26.8086 36.8765 26.8764 36.843 26.9574C36.8096 27.0384 36.8037 27.1281 36.8264 27.2128C36.8491 27.2975 36.899 27.3723 36.9684 27.4257C37.0379 27.4792 37.123 27.5083 37.2107 27.5085C37.3617 27.5085 37.4927 27.4249 37.5606 27.3013C37.641 27.495 37.657 27.7094 37.6062 27.9128C37.5554 28.1162 37.4405 28.298 37.2785 28.4311C37.1165 28.5642 36.916 28.6417 36.7066 28.6521C36.4971 28.6625 36.2899 28.6053 36.1155 28.4889C35.9411 28.3725 35.8087 28.2031 35.738 28.0057C35.6673 27.8083 35.6619 27.5934 35.7227 27.3927C35.7835 27.192 35.9072 27.0162 36.0756 26.8913C36.2439 26.7663 36.448 26.6988 36.6577 26.6987V26.6985ZM12.5176 23.483H76.005C74.6228 23.1325 71.6315 22.6587 72.1248 20.8469C69.611 23.7556 63.5493 22.8876 62.0193 21.4535C60.3158 23.9244 50.3981 22.985 49.7063 21.0601C47.5705 23.5664 40.9526 23.5664 38.8168 21.0601C38.1245 22.9823 28.207 23.9244 26.5033 21.4533C24.9736 22.8876 18.9146 23.7556 16.3983 20.8472C16.8916 22.6587 13.9005 23.1325 12.5176 23.4833" fill="#364548"/>
<path fill-rule="evenodd" clip-rule="evenodd" d="M40.2856 36.1486C36.9056 34.5448 35.0509 32.3643 34.0184 29.9843C32.7628 30.3425 31.2538 30.5717 29.5001 30.67C28.8396 30.707 28.1446 30.726 27.4157 30.726C26.575 30.726 25.689 30.701 24.7589 30.6518C27.8586 33.7472 31.6716 36.1347 38.7321 36.1781C39.2534 36.1781 39.7706 36.1681 40.2856 36.1486Z" fill="#BDD9D7"/>
<path fill-rule="evenodd" clip-rule="evenodd" d="M35.2738 32.1782C34.8062 31.5434 34.3502 30.7453 34.0191 29.9814C32.7635 30.3402 31.254 30.5693 29.5001 30.6679C30.7048 31.322 32.4275 31.9276 35.274 32.1782" fill="#D3ECEC"/>
</g>
<path d="M21.1377 77.9533C22.2671 77.9533 23.2431 78.1663 24.0654 78.5924C24.8977 79.0085 25.5318 79.6079 25.9677 80.3906C26.4135 81.1734 26.6365 82.0948 26.6365 83.1549C26.6365 84.215 26.4135 85.1365 25.9677 85.9192C25.5318 86.692 24.8977 87.2864 24.0654 87.7026C23.2431 88.1088 22.2671 88.3119 21.1377 88.3119H17.9127V77.9533H21.1377ZM21.1377 87.1973C22.4752 87.1973 23.4957 86.8455 24.1992 86.1421C24.9026 85.4287 25.2543 84.433 25.2543 83.1549C25.2543 81.8669 24.8977 80.8613 24.1843 80.138C23.4808 79.4147 22.4653 79.0531 21.1377 79.0531H19.2651V87.1973H21.1377ZM33.1166 88.4159C32.1555 88.4159 31.2787 88.193 30.4861 87.7471C29.6935 87.2914 29.0643 86.6622 28.5987 85.8597C28.1429 85.0473 27.915 84.1358 27.915 83.1252C27.915 82.1146 28.1429 81.208 28.5987 80.4055C29.0643 79.5931 29.6935 78.9639 30.4861 78.5181C31.2787 78.0623 32.1555 77.8344 33.1166 77.8344C34.0876 77.8344 34.9694 78.0623 35.762 78.5181C36.5546 78.9639 37.1788 79.5881 37.6345 80.3906C38.0903 81.1932 38.3182 82.1047 38.3182 83.1252C38.3182 84.1457 38.0903 85.0572 37.6345 85.8597C37.1788 86.6622 36.5546 87.2914 35.762 87.7471C34.9694 88.193 34.0876 88.4159 33.1166 88.4159ZM33.1166 87.2419C33.8399 87.2419 34.4888 87.0734 35.0635 86.7366C35.648 86.3997 36.1038 85.9192 36.4307 85.295C36.7676 84.6708 36.936 83.9475 36.936 83.1252C36.936 82.2929 36.7676 81.5697 36.4307 80.9554C36.1038 80.3312 35.653 79.8507 35.0783 79.5138C34.5037 79.1769 33.8498 79.0085 33.1166 79.0085C32.3834 79.0085 31.7295 79.1769 31.1549 79.5138C30.5802 79.8507 30.1245 80.3312 29.7876 80.9554C29.4606 81.5697 29.2972 82.2929 29.2972 83.1252C29.2972 83.9475 29.4606 84.6708 29.7876 85.295C30.1245 85.9192 30.5802 86.3997 31.1549 86.7366C31.7394 87.0734 32.3933 87.2419 33.1166 87.2419ZM39.5982 83.1252C39.5982 82.1146 39.8261 81.208 40.2819 80.4055C40.7376 79.5931 41.3569 78.959 42.1396 78.5032C42.9322 78.0475 43.809 77.8196 44.7701 77.8196C45.8996 77.8196 46.8854 78.092 47.7276 78.637C48.5697 79.1819 49.184 79.9547 49.5704 80.9554H47.9505C47.6632 80.3312 47.247 79.8507 46.7021 79.5138C46.1671 79.1769 45.5231 79.0085 44.7701 79.0085C44.0468 79.0085 43.3979 79.1769 42.8232 79.5138C42.2486 79.8507 41.7978 80.3312 41.4708 80.9554C41.1439 81.5697 40.9804 82.2929 40.9804 83.1252C40.9804 83.9475 41.1439 84.6708 41.4708 85.295C41.7978 85.9093 42.2486 86.3848 42.8232 86.7217C43.3979 87.0586 44.0468 87.227 44.7701 87.227C45.5231 87.227 46.1671 87.0635 46.7021 86.7366C47.247 86.3997 47.6632 85.9192 47.9505 85.295H49.5704C49.184 86.2858 48.5697 87.0536 47.7276 87.5985C46.8854 88.1336 45.8996 88.4011 44.7701 88.4011C43.809 88.4011 42.9322 88.1781 42.1396 87.7323C41.3569 87.2765 40.7376 86.6474 40.2819 85.8449C39.8261 85.0423 39.5982 84.1358 39.5982 83.1252ZM57.2013 88.3119L52.936 83.5859V88.3119H51.5836V77.9533H52.936V82.7536L57.2161 77.9533H58.9252L54.2289 83.14L58.9698 88.3119H57.2013ZM61.8326 79.0531V82.5159H65.6075V83.6305H61.8326V87.1973H66.0533V88.3119H60.4802V77.9385H66.0533V79.0531H61.8326ZM73.5539 88.3119L71.0869 84.0763H69.4521V88.3119H68.0997V77.9533H71.4436C72.2263 77.9533 72.8852 78.0871 73.4202 78.3546C73.9651 78.6221 74.3713 78.9837 74.6388 79.4395C74.9063 79.8953 75.0401 80.4154 75.0401 81C75.0401 81.7133 74.832 82.3425 74.4159 82.8874C74.0097 83.4323 73.3954 83.794 72.5731 83.9723L75.1739 88.3119H73.5539ZM69.4521 82.9914H71.4436C72.1768 82.9914 72.7266 82.8131 73.0932 82.4564C73.4598 82.0898 73.6431 81.6043 73.6431 81C73.6431 80.3857 73.4598 79.9101 73.0932 79.5732C72.7366 79.2364 72.1867 79.068 71.4436 79.068H69.4521V82.9914Z" fill="#42FF00"/>
<defs>
<clipPath id="clip0">
<rect width="63.905" height="53.6702" fill="white" transform="translate(12.5176 0.976135)"/>
</clipPath>
</defs>
</svg>
