<svg width="101" height="62" viewBox="0 0 101 62" fill="none" xmlns="http://www.w3.org/2000/svg">
<path d="M32.9989 32.5424V14.933H33.9541V17.703C34.0669 17.5802 34.1711 17.4497 34.2659 17.3125C35.0636 15.6574 36.7462 14.6128 38.5832 14.6335C40.761 14.5685 42.5307 15.3747 43.5707 17.3125C44.2325 18.5164 44.5967 19.8611 44.6328 21.2344C44.669 22.6077 44.3761 23.9697 43.7785 25.2068C42.8096 27.3784 40.4164 28.4581 37.8542 28.0616C37.0569 27.9938 36.2892 27.7273 35.6213 27.2866C34.9533 26.8459 34.4064 26.2448 34.0305 25.5384V32.5417L32.9989 32.5424ZM33.9541 21.1622L34.1681 23.23C34.5455 25.5835 35.937 26.9742 38.1217 27.2355C39.1476 27.4042 40.2003 27.2119 41.1003 26.6913C42.0003 26.1707 42.6919 25.3541 43.0572 24.3807C43.9069 22.3558 43.8443 20.0634 42.8891 18.0858C42.4992 17.2132 41.8359 16.4913 40.9993 16.0291C40.1628 15.5668 39.1986 15.3894 38.2523 15.5237C37.3641 15.5883 36.5181 15.9279 35.8318 16.4954C35.1454 17.0629 34.6529 17.83 34.4225 18.6902C34.2191 19.5043 34.0627 20.3294 33.9541 21.1614V21.1622ZM64.1358 23.5555C63.9909 24.7953 63.4007 25.9404 62.4748 26.7777C61.549 27.615 60.3506 28.0875 59.1024 28.1074C55.0969 28.3091 53.2171 25.6492 52.9183 22.5797C52.7106 20.9128 52.9811 19.2212 53.6985 17.7022C54.1978 16.6602 55.0158 15.8043 56.0341 15.2583C57.0524 14.7123 58.2181 14.5047 59.3622 14.6656C60.45 14.758 61.4811 15.1902 62.3096 15.901C63.1382 16.6117 63.7222 17.5651 63.9791 18.6261C64.1826 19.5926 64.3324 20.5696 64.4277 21.5527H53.9079C53.713 24.3356 55.2084 26.573 57.3281 27.1125C59.9682 27.762 62.2247 26.6181 63.0438 24.1079C63.2257 23.4638 63.5573 23.3728 64.1427 23.5555H64.1358ZM53.9002 20.6617H63.3097C63.2509 17.6969 61.4048 15.542 58.9007 15.5176C56.0734 15.4717 54.0233 17.5402 53.9002 20.6617ZM66.0805 23.6204H67.0028C67.0367 24.2999 67.2573 24.9569 67.6405 25.5191C68.0236 26.0812 68.5544 26.5268 69.1745 26.8069C69.953 27.1572 70.8005 27.3275 71.654 27.305C72.5075 27.2825 73.3449 27.0678 74.1039 26.6769C74.5176 26.4907 74.8642 26.1818 75.0968 25.7922C75.3294 25.4026 75.4368 24.951 75.4044 24.4984C75.4282 24.0619 75.3091 23.6296 75.065 23.2669C74.8209 22.9042 74.4652 22.631 74.0519 22.4887C73.0371 22.1113 71.9582 21.9034 70.9243 21.5718C69.8485 21.2655 68.7965 20.8809 67.7769 20.421C66.1111 19.608 66.0079 16.4414 67.8938 15.4389C68.8594 14.894 69.9461 14.5995 71.0548 14.5825C72.1634 14.5654 73.2587 14.8262 74.2407 15.3411C75.4587 16.0135 76.1319 17.3714 75.9317 18.7491H75.1408C75.1408 18.7109 75.069 18.6773 75.069 18.6383C74.9712 16.1166 72.8515 15.3281 70.5759 15.5497C69.8882 15.6261 69.2364 15.8339 68.625 16.1411C68.2576 16.3089 67.9513 16.5868 67.7487 16.9363C67.5461 17.2858 67.4572 17.6896 67.4941 18.0919C67.4949 18.4945 67.6204 18.887 67.8532 19.2154C68.0861 19.5438 68.415 19.792 68.7947 19.9258C69.7881 20.2903 70.8426 20.5242 71.8703 20.8099L74.3537 21.4595C74.9182 21.6447 75.4131 21.997 75.7731 22.4696C76.133 22.9423 76.341 23.513 76.3695 24.1064C76.5682 25.4398 75.8881 26.7503 74.6854 27.3578C72.5137 28.5865 68.9368 28.2618 67.3436 26.7083C66.5283 25.8884 66.0736 24.775 66.0828 23.6197L66.0805 23.6204ZM88.0722 18.7498H87.2072C87.2072 18.6329 87.1614 18.5206 87.1484 18.4312C87.1346 17.7828 86.8982 17.1589 86.4791 16.664C86.0599 16.1692 85.4833 15.8335 84.846 15.7132C83.6439 15.3684 82.3615 15.4302 81.1981 15.8889C80.738 16.0206 80.333 16.2976 80.0434 16.6786C79.7539 17.0596 79.5955 17.524 79.5919 18.0025C79.5754 18.4724 79.7217 18.9335 80.006 19.3079C80.2903 19.6823 80.6952 19.947 81.1522 20.0573L85.1058 21.072C85.5334 21.1746 85.9544 21.3027 86.3667 21.4556C87.6275 21.9141 88.4833 23.0848 88.5215 24.4228C88.5404 25.0777 88.3608 25.723 88.0062 26.274C87.6516 26.8249 87.1387 27.2558 86.5348 27.5099C85.6171 27.9267 84.6226 28.1472 83.6147 28.1574C82.6069 28.1675 81.6081 27.967 80.6823 27.5687C79.9209 27.2404 79.2784 26.6867 78.8412 25.9821C78.404 25.2776 78.1932 24.4561 78.2371 23.6281H79.0822C79.4001 25.1601 80.4523 26.4362 81.8957 27.0399C83.3392 27.6436 84.9874 27.4953 86.3002 26.6456C86.6941 26.4408 87.021 26.1274 87.2423 25.7425C87.4636 25.3576 87.5699 24.9174 87.5488 24.474C87.5684 24.0372 87.445 23.6059 87.1973 23.2456C86.9496 22.8852 86.5912 22.6155 86.1764 22.4773C85.1616 22.0998 84.0827 21.8988 83.0488 21.5603C81.967 21.2587 80.9086 20.8785 79.8822 20.4225C78.2562 19.6225 78.1263 16.4819 79.98 15.4801C80.9576 14.9124 82.0656 14.6073 83.196 14.5948C84.3264 14.5822 85.4409 14.8624 86.4308 15.4083C86.9971 15.7462 87.4529 16.2415 87.7427 16.8339C88.0325 17.4262 88.1438 18.09 88.063 18.7445L88.0722 18.7498ZM31.4271 27.7895C31.0866 27.9183 30.7108 27.9179 30.3705 27.7886C30.0303 27.6592 29.7492 27.4097 29.5802 27.0873L26.218 22.4375L25.7305 21.788L21.8289 27.0942C21.6698 27.4027 21.4039 27.6429 21.0808 27.7697C20.7576 27.8966 20.3994 27.9014 20.0729 27.7834L25.0993 21.04L20.4229 14.9468C21.1167 14.6961 21.89 14.9682 22.2759 15.5963L25.7603 20.3033L29.2654 15.6146C29.4256 15.3113 29.6917 15.0775 30.0131 14.9576C30.3344 14.8377 30.6887 14.8401 31.0084 14.9643L29.1936 17.3721L26.7354 20.5715C26.6671 20.6325 26.6125 20.7071 26.5752 20.7906C26.5378 20.8741 26.5185 20.9645 26.5185 21.056C26.5185 21.1475 26.5378 21.2379 26.5752 21.3214C26.6125 21.4049 26.6671 21.4795 26.7354 21.5405L31.4172 27.7895H31.4271ZM52.7693 14.8818V15.7988C52.1116 15.7556 51.4522 15.8509 50.8335 16.0784C50.2149 16.3058 49.6509 16.6605 49.1778 17.1195C48.7047 17.5784 48.3332 18.1315 48.087 18.7429C47.8409 19.3544 47.7258 20.0106 47.749 20.6693C47.749 22.811 47.749 24.9526 47.749 27.0942V27.8224H46.819V14.9391H47.736V17.5792C48.8608 15.6536 50.5969 14.9391 52.7754 14.8872L52.7693 14.8818ZM8.03705 20.9559L8.44663 18.9332C9.57143 14.9338 14.1562 13.2695 17.3106 15.7468C19.1575 17.1971 19.6182 19.2519 19.5281 21.5672H9.12288C8.95477 25.7027 11.9387 28.1999 15.7555 26.9253C17.0133 26.4668 17.9601 25.4215 18.2718 24.1225C18.4736 23.4729 18.8067 23.3614 19.4165 23.5494C19.3148 24.3411 19.0349 25.0995 18.5979 25.7675C18.1609 26.4354 17.5781 26.9956 16.8933 27.4059C15.7621 28.0246 14.4642 28.2697 13.1852 28.1063C11.9062 27.9428 10.7117 27.3791 9.77239 26.4958C8.84321 25.4513 8.28234 24.1309 8.17307 22.7363C8.17307 22.5071 8.09665 22.2931 8.04316 22.0868C8.03807 21.7012 8.03552 21.3242 8.03552 20.9559H8.03705ZM9.13587 20.6762H18.5454C18.4866 17.6785 16.5946 15.552 14.0714 15.5321C11.2625 15.4939 9.25278 17.5738 9.129 20.6632L9.13587 20.6762Z" fill="white"/>
<path d="M16.1764 51.7925V55.2385H19.933V56.3477H16.1764V59.8972H20.3766V61.0065H14.8305V50.6833H20.3766V51.7925H16.1764ZM26.6282 55.8597L29.7931 61.0065H28.2698L25.7999 56.9837L23.4484 61.0065H21.9546L25.1048 55.8597L21.9398 50.6981H23.4484L25.933 54.7357L28.2994 50.6981H29.8079L26.6282 55.8597ZM38.4908 53.7152C38.4908 54.573 38.1951 55.2878 37.6035 55.8597C37.0217 56.4217 36.1294 56.7027 34.9265 56.7027H32.9447V61.0065H31.5989V50.6981H34.9265C36.09 50.6981 36.9724 50.9791 37.5739 51.5411C38.1852 52.1031 38.4908 52.8278 38.4908 53.7152ZM34.9265 55.5935C35.6759 55.5935 36.228 55.4308 36.583 55.1054C36.9379 54.78 37.1154 54.3166 37.1154 53.7152C37.1154 52.4433 36.3858 51.8073 34.9265 51.8073H32.9447V55.5935H34.9265ZM45.5914 61.0065L43.1363 56.7914H41.5094V61.0065H40.1636V50.6981H43.4912C44.2702 50.6981 44.9258 50.8312 45.4583 51.0974C46.0006 51.3636 46.4048 51.7235 46.671 52.1771C46.9372 52.6306 47.0703 53.1482 47.0703 53.73C47.0703 54.4399 46.8633 55.066 46.4492 55.6082C46.0449 56.1505 45.4336 56.5104 44.6153 56.6879L47.2034 61.0065H45.5914ZM41.5094 55.7118H43.4912C44.2209 55.7118 44.7681 55.5343 45.1329 55.1793C45.4977 54.8145 45.6801 54.3314 45.6801 53.73C45.6801 53.1187 45.4977 52.6454 45.1329 52.3102C44.7779 51.9749 44.2307 51.8073 43.4912 51.8073H41.5094V55.7118ZM50.5074 51.7925V55.2385H54.264V56.3477H50.5074V59.8972H54.7077V61.0065H49.1616V50.6833H54.7077V51.7925H50.5074ZM60.0127 61.11C59.3323 61.11 58.721 60.9917 58.1788 60.755C57.6463 60.5086 57.2273 60.1733 56.9216 59.7493C56.616 59.3155 56.4582 58.8176 56.4484 58.2556H57.883C57.9323 58.7387 58.1295 59.1479 58.4745 59.4831C58.8295 59.8085 59.3422 59.9712 60.0127 59.9712C60.6536 59.9712 61.1564 59.8134 61.5212 59.4979C61.8959 59.1726 62.0832 58.7584 62.0832 58.2556C62.0832 57.8612 61.9748 57.5408 61.7578 57.2943C61.5409 57.0478 61.2698 56.8604 60.9444 56.7323C60.619 56.6041 60.1803 56.466 59.6281 56.3182C58.9478 56.1407 58.4006 55.9632 57.9865 55.7857C57.5822 55.6082 57.2322 55.3322 56.9364 54.9575C56.6505 54.573 56.5075 54.0603 56.5075 53.4194C56.5075 52.8574 56.6505 52.3595 56.9364 51.9256C57.2224 51.4918 57.6217 51.1566 58.1344 50.9199C58.657 50.6833 59.2535 50.565 59.9239 50.565C60.8902 50.565 61.679 50.8065 62.2903 51.2897C62.9114 51.7728 63.2615 52.4137 63.3403 53.2123H61.8614C61.8121 52.8179 61.605 52.4728 61.2402 52.1771C60.8754 51.8714 60.3923 51.7186 59.7908 51.7186C59.2288 51.7186 58.7703 51.8665 58.4154 52.1623C58.0604 52.4482 57.883 52.8524 57.883 53.375C57.883 53.7497 57.9865 54.0553 58.1935 54.292C58.4105 54.5286 58.6717 54.711 58.9774 54.8392C59.2929 54.9575 59.7317 55.0955 60.2937 55.2533C60.974 55.4406 61.5212 55.628 61.9353 55.8153C62.3494 55.9928 62.7044 56.2738 63.0002 56.6583C63.296 57.033 63.4439 57.5457 63.4439 58.1964C63.4439 58.6993 63.3108 59.1726 63.0445 59.6162C62.7783 60.0599 62.3839 60.4198 61.8614 60.6959C61.3388 60.972 60.7226 61.11 60.0127 61.11ZM68.6929 61.11C68.0126 61.11 67.4013 60.9917 66.859 60.755C66.3266 60.5086 65.9075 60.1733 65.6019 59.7493C65.2962 59.3155 65.1385 58.8176 65.1286 58.2556H66.5632C66.6125 58.7387 66.8097 59.1479 67.1548 59.4831C67.5097 59.8085 68.0225 59.9712 68.6929 59.9712C69.3338 59.9712 69.8366 59.8134 70.2015 59.4979C70.5761 59.1726 70.7635 58.7584 70.7635 58.2556C70.7635 57.8612 70.655 57.5408 70.4381 57.2943C70.2212 57.0478 69.95 56.8604 69.6247 56.7323C69.2993 56.6041 68.8605 56.466 68.3084 56.3182C67.6281 56.1407 67.0808 55.9632 66.6667 55.7857C66.2625 55.6082 65.9125 55.3322 65.6167 54.9575C65.3307 54.573 65.1878 54.0603 65.1878 53.4194C65.1878 52.8574 65.3307 52.3595 65.6167 51.9256C65.9026 51.4918 66.3019 51.1566 66.8146 50.9199C67.3372 50.6833 67.9337 50.565 68.6042 50.565C69.5704 50.565 70.3592 50.8065 70.9705 51.2897C71.5917 51.7728 71.9417 52.4137 72.0206 53.2123H70.5416C70.4923 52.8179 70.2853 52.4728 69.9205 52.1771C69.5556 51.8714 69.0725 51.7186 68.4711 51.7186C67.9091 51.7186 67.4506 51.8665 67.0956 52.1623C66.7407 52.4482 66.5632 52.8524 66.5632 53.375C66.5632 53.7497 66.6667 54.0553 66.8738 54.292C67.0907 54.5286 67.352 54.711 67.6576 54.8392C67.9732 54.9575 68.4119 55.0955 68.9739 55.2533C69.6542 55.4406 70.2015 55.628 70.6156 55.8153C71.0297 55.9928 71.3846 56.2738 71.6804 56.6583C71.9762 57.033 72.1241 57.5457 72.1241 58.1964C72.1241 58.6993 71.991 59.1726 71.7248 59.6162C71.4586 60.0599 71.0642 60.4198 70.5416 60.6959C70.0191 60.972 69.4028 61.11 68.6929 61.11ZM74.5336 61.0952C74.2772 61.0952 74.0603 61.0065 73.8828 60.829C73.7053 60.6515 73.6166 60.4346 73.6166 60.1782C73.6166 59.9219 73.7053 59.705 73.8828 59.5275C74.0603 59.35 74.2772 59.2613 74.5336 59.2613C74.78 59.2613 74.9871 59.35 75.1547 59.5275C75.3322 59.705 75.4209 59.9219 75.4209 60.1782C75.4209 60.4346 75.3322 60.6515 75.1547 60.829C74.9871 61.0065 74.78 61.0952 74.5336 61.0952ZM82.4011 50.6981V58.3148C82.4011 59.1627 82.1398 59.843 81.6172 60.3557C81.0947 60.8586 80.4045 61.11 79.5467 61.11C78.679 61.11 77.9839 60.8536 77.4613 60.3409C76.9388 59.8184 76.6775 59.1085 76.6775 58.2112H78.0233C78.0332 58.7141 78.1614 59.1233 78.4079 59.4388C78.6642 59.7543 79.0438 59.912 79.5467 59.912C80.0495 59.912 80.4242 59.7641 80.6707 59.4683C80.9172 59.1627 81.0404 58.7782 81.0404 58.3148V50.6981H82.4011ZM88.321 61.11C87.6407 61.11 87.0294 60.9917 86.4871 60.755C85.9546 60.5086 85.5356 60.1733 85.2299 59.7493C84.9243 59.3155 84.7665 58.8176 84.7567 58.2556H86.1913C86.2406 58.7387 86.4378 59.1479 86.7829 59.4831C87.1378 59.8085 87.6505 59.9712 88.321 59.9712C88.9619 59.9712 89.4647 59.8134 89.8295 59.4979C90.2042 59.1726 90.3915 58.7584 90.3915 58.2556C90.3915 57.8612 90.2831 57.5408 90.0662 57.2943C89.8492 57.0478 89.5781 56.8604 89.2527 56.7323C88.9274 56.6041 88.4886 56.466 87.9364 56.3182C87.2561 56.1407 86.7089 55.9632 86.2948 55.7857C85.8905 55.6082 85.5405 55.3322 85.2447 54.9575C84.9588 54.573 84.8158 54.0603 84.8158 53.4194C84.8158 52.8574 84.9588 52.3595 85.2447 51.9256C85.5307 51.4918 85.93 51.1566 86.4427 50.9199C86.9653 50.6833 87.5618 50.565 88.2322 50.565C89.1985 50.565 89.9873 50.8065 90.5986 51.2897C91.2198 51.7728 91.5698 52.4137 91.6487 53.2123H90.1697C90.1204 52.8179 89.9133 52.4728 89.5485 52.1771C89.1837 51.8714 88.7006 51.7186 88.0991 51.7186C87.5371 51.7186 87.0787 51.8665 86.7237 52.1623C86.3687 52.4482 86.1913 52.8524 86.1913 53.375C86.1913 53.7497 86.2948 54.0553 86.5019 54.292C86.7188 54.5286 86.9801 54.711 87.2857 54.8392C87.6012 54.9575 88.04 55.0955 88.602 55.2533C89.2823 55.4406 89.8295 55.628 90.2436 55.8153C90.6577 55.9928 91.0127 56.2738 91.3085 56.6583C91.6043 57.033 91.7522 57.5457 91.7522 58.1964C91.7522 58.6993 91.6191 59.1726 91.3529 59.6162C91.0866 60.0599 90.6923 60.4198 90.1697 60.6959C89.6471 60.972 89.0309 61.11 88.321 61.11Z" fill="#45FE04"/>
</svg>
