<svg width="53" height="86" viewBox="0 0 53 86" fill="none" xmlns="http://www.w3.org/2000/svg">
<path d="M37.6289 16.5471C39.698 16.5471 41.6822 15.7252 43.1452 14.2622C44.6082 12.7992 45.4302 10.8149 45.4302 8.74591C45.4302 6.6769 44.6082 4.69264 43.1452 3.22962C41.6822 1.76661 39.698 0.944702 37.6289 0.944702H22.0265C19.9587 0.944702 17.9756 1.76613 16.5135 3.22829C15.0513 4.69044 14.2299 6.67355 14.2299 8.74134C14.2299 10.8091 15.0513 12.7922 16.5135 14.2544C17.9756 15.7166 19.9587 16.538 22.0265 16.538C19.9575 16.538 17.9732 17.3599 16.5102 18.8229C15.0472 20.2859 14.2253 22.2702 14.2253 24.3392C14.2253 26.4082 15.0472 28.3925 16.5102 29.8555C17.9732 31.3185 19.9575 32.1404 22.0265 32.1404C20.4836 32.1395 18.975 32.5962 17.6916 33.4526C16.4082 34.3091 15.4076 35.5269 14.8163 36.952C14.225 38.3771 14.0696 39.9456 14.3697 41.4591C14.6699 42.9725 15.412 44.363 16.5024 45.4547C17.5928 46.5463 18.9824 47.2901 20.4955 47.592C22.0086 47.8939 23.5773 47.7404 25.0031 47.1508C26.429 46.5611 27.6479 45.5619 28.5059 44.2795C29.3638 42.9971 29.8223 41.4891 29.8232 39.9462V16.5471H37.6289ZM37.6289 16.5471C36.0869 16.5471 34.5795 17.0044 33.2974 17.8611C32.0152 18.7178 31.0159 19.9355 30.4258 21.3601C29.8357 22.7848 29.6813 24.3524 29.9821 25.8648C30.2829 27.3772 31.0255 28.7665 32.1159 29.8568C33.2063 30.9472 34.5955 31.6898 36.1079 31.9906C37.6203 32.2914 39.1879 32.137 40.6126 31.5469C42.0372 30.9568 43.2549 29.9575 44.1116 28.6754C44.9683 27.3932 45.4256 25.8858 45.4256 24.3438C45.4253 22.276 44.6038 20.2931 43.1417 18.831C41.6796 17.3689 39.6967 16.5474 37.6289 16.5471Z" fill="#EF20F3"/>
<path d="M13.7445 70.4911V71.5909H9.24145V75.0834H12.8974V76.1831H9.24145V80.8497H7.88904V70.4911H13.7445ZM16.7303 70.4911V80.8497H15.3779V70.4911H16.7303ZM26.8822 73.4932C26.5949 72.8888 26.1788 72.4231 25.6338 72.0962C25.0889 71.7593 24.4548 71.5909 23.7315 71.5909C23.0083 71.5909 22.3544 71.7593 21.7698 72.0962C21.1952 72.4231 20.7394 72.8987 20.4025 73.5229C20.0756 74.1372 19.9121 74.8505 19.9121 75.663C19.9121 76.4754 20.0756 77.1888 20.4025 77.803C20.7394 78.4173 21.1952 78.8929 21.7698 79.2298C22.3544 79.5567 23.0083 79.7202 23.7315 79.7202C24.7421 79.7202 25.5744 79.418 26.2283 78.8136C26.8822 78.2093 27.2637 77.3919 27.3726 76.3615H23.2411V75.2617H28.8142V76.302C28.735 77.1541 28.4674 77.9368 28.0117 78.6501C27.5559 79.3536 26.9565 79.9134 26.2134 80.3295C25.4703 80.7357 24.6431 80.9388 23.7315 80.9388C22.7705 80.9388 21.8936 80.7159 21.101 80.2701C20.3084 79.8143 19.6793 79.1852 19.2136 78.3826C18.7578 77.5801 18.53 76.6736 18.53 75.663C18.53 74.6524 18.7578 73.7458 19.2136 72.9433C19.6793 72.1308 20.3084 71.5017 21.101 71.0559C21.8936 70.6001 22.7705 70.3722 23.7315 70.3722C24.8313 70.3722 25.8023 70.6447 26.6444 71.1896C27.4965 71.7345 28.1157 72.5024 28.5021 73.4932H26.8822ZM41.1095 70.5654V80.8497H39.7571V73.1811L36.339 80.8497H35.3878L31.9548 73.1662V80.8497H30.6024V70.5654H32.0588L35.8634 79.0663L39.668 70.5654H41.1095ZM49.5261 78.5461H45.0082L44.1759 80.8497H42.7492L46.4943 70.5506H48.0548L51.7851 80.8497H50.3584L49.5261 78.5461ZM49.1397 77.4464L47.2671 72.2151L45.3946 77.4464H49.1397Z" fill="#0EF709"/>
</svg>
