<svg width="53" height="83" viewBox="0 0 53 83" fill="none" xmlns="http://www.w3.org/2000/svg">
<path d="M51.4968 21.8573L28.7923 1.34432C28.1637 0.777107 27.3116 0.458496 26.4231 0.458496C25.5346 0.458496 24.6825 0.777107 24.054 1.34432L19.3331 5.60527L25.3149 11.0083C28.4567 10.0498 31.4313 12.767 30.3527 15.5891L36.1185 20.7971C40.0929 19.5596 43.2219 24.0481 40.2368 26.7423C37.1612 29.5203 32.085 26.4413 33.7349 22.8263L28.3534 17.9718V30.7505C31.2909 32.0656 30.9379 35.1394 29.4076 36.5184C28.66 37.1934 27.6462 37.5725 26.5891 37.5725C25.5321 37.5725 24.5183 37.1934 23.7707 36.5184C21.7307 34.6727 22.4854 31.5989 25.0769 30.6456V17.7463C22.6619 16.8539 22.2207 14.5226 22.9126 13.0271L17.0156 7.69433L1.44347 21.7619C0.815218 22.3295 0.46228 23.0992 0.46228 23.9018C0.46228 24.7044 0.815218 25.4741 1.44347 26.0417L24.155 46.5547C24.7833 47.1218 25.6353 47.4404 26.5235 47.4404C27.4118 47.4404 28.2638 47.1218 28.8921 46.5547L51.4968 26.1371C52.1251 25.5696 52.478 24.7998 52.478 23.9972C52.478 23.1946 52.1251 22.4249 51.4968 21.8573Z" fill="#F05133"/>
<path d="M21.2831 71.5208C20.9958 70.9164 20.5797 70.4508 20.0348 70.1238C19.4898 69.787 18.8557 69.6185 18.1325 69.6185C17.4092 69.6185 16.7553 69.787 16.1707 70.1238C15.5961 70.4508 15.1403 70.9263 14.8035 71.5505C14.4765 72.1648 14.313 72.8782 14.313 73.6906C14.313 74.503 14.4765 75.2164 14.8035 75.8307C15.1403 76.445 15.5961 76.9205 16.1707 77.2574C16.7553 77.5844 17.4092 77.7478 18.1325 77.7478C19.1431 77.7478 19.9753 77.4456 20.6292 76.8413C21.2831 76.2369 21.6646 75.4195 21.7736 74.3891H17.642V73.2893H23.2152V74.3297C23.1359 75.1817 22.8684 75.9644 22.4126 76.6778C21.9569 77.3812 21.3575 77.941 20.6144 78.3572C19.8713 78.7634 19.044 78.9665 18.1325 78.9665C17.1714 78.9665 16.2946 78.7436 15.502 78.2977C14.7094 77.842 14.0802 77.2128 13.6145 76.4103C13.1588 75.6078 12.9309 74.7012 12.9309 73.6906C12.9309 72.68 13.1588 71.7735 13.6145 70.9709C14.0802 70.1585 14.7094 69.5294 15.502 69.0835C16.2946 68.6277 17.1714 68.3999 18.1325 68.3999C19.2322 68.3999 20.2032 68.6723 21.0454 69.2173C21.8974 69.7622 22.5167 70.53 22.9031 71.5208H21.2831ZM26.3557 68.5188V78.8773H25.0033V68.5188H26.3557ZM35.0363 68.5188V69.6185H32.2126V78.8773H30.8602V69.6185H28.0216V68.5188H35.0363Z" fill="#00FD47"/>
</svg>
