<svg width="63" height="84" viewBox="0 0 63 84" fill="none" xmlns="http://www.w3.org/2000/svg">
<g clip-path="url(#clip0)">
<path d="M50.2538 47.4131C50.2538 50.4683 43.157 52.9448 34.4026 52.9448C25.6481 52.9448 18.5513 50.4683 18.5513 47.4131C18.5513 44.3578 25.6478 41.8803 34.4026 41.8803C43.1573 41.8803 50.2538 44.361 50.2538 47.4131Z" fill="#A0DCF2"/>
<path d="M50.2538 47.4131C50.2538 50.4683 43.157 52.9448 34.4026 52.9448C25.6481 52.9448 18.5513 50.4683 18.5513 47.4131C18.5513 44.3578 25.6478 41.8803 34.4026 41.8803C43.1573 41.8803 50.2538 44.361 50.2538 47.4131Z" fill="#82BDE7"/>
<path d="M16.2961 31.1464L15.8385 32.7362C15.8385 32.7362 15.7195 33.3109 16.2624 33.4126C16.8292 33.4016 16.7829 32.8725 16.7432 32.7011L16.2961 31.1468V31.1464Z" fill="#A0DCF2"/>
<path d="M62.3769 24.4812L62.4187 24.2746C57.7685 23.3473 52.9968 23.3379 50.1068 23.4575C50.581 21.7538 50.724 19.7931 50.724 17.6067C50.724 14.4711 49.5425 11.9626 47.6245 10.0537C47.9599 8.97515 48.4077 6.579 47.1774 3.51214C47.1774 3.51214 45.0047 2.82511 40.1001 6.10046C38.1774 5.6213 36.1313 5.38454 34.082 5.38454C31.8274 5.38454 29.5492 5.67091 27.4244 6.25212C22.3592 2.80595 20.1235 3.51183 20.1235 3.51183C18.6637 7.15425 19.5661 9.84525 19.8401 10.5147C18.1246 12.361 17.0773 14.7173 17.0773 17.6064C17.0773 19.7878 17.3267 21.7444 17.935 23.445C15.0233 23.3395 10.4251 23.38 5.93796 24.274L5.97952 24.4806C10.4902 23.5809 15.1168 23.5495 18.0081 23.6588C18.1419 24.0105 18.2915 24.3496 18.4584 24.6825C15.5967 24.7745 10.711 25.1378 6.02833 26.4553L6.08564 26.6579C10.8051 25.3306 15.7337 24.9761 18.5677 24.89C20.2775 28.0677 23.6483 30.1207 29.6453 30.7619C28.7938 31.3321 27.926 32.3017 27.5733 33.9427C26.4136 34.4953 22.7421 35.8462 20.5388 32.0681C20.5388 32.0681 19.3057 29.8199 16.9454 29.644C16.9454 29.644 14.6562 29.6126 16.787 31.0664C16.787 31.0664 18.3195 31.7864 19.3763 34.4891C19.3763 34.4891 20.7555 39.1033 27.4096 37.6228V42.3893C27.4096 42.3893 27.2688 44.0755 25.7187 44.637C25.7187 44.637 24.803 45.2694 25.7892 45.6198C25.7892 45.6198 30.0858 45.9715 30.0858 42.4594V37.262C30.0858 37.262 29.9158 35.2006 30.9306 34.4843V43.0274C30.9306 43.0274 30.8607 45.0643 29.804 45.8371C29.804 45.8371 29.0996 47.1009 30.6491 46.7502C30.6491 46.7502 33.6072 46.3288 33.7482 42.887L33.8156 34.2479H34.5263L34.594 42.887C34.7348 46.3285 37.6931 46.7502 37.6931 46.7502C39.2423 47.1009 38.5379 45.8371 38.5379 45.8371C37.4815 45.0646 37.4113 43.0274 37.4113 43.0274V34.5641C38.4261 35.3491 38.2564 37.2683 38.2564 37.2683V42.4656C38.2564 45.9774 42.5527 45.6261 42.5527 45.6261C43.5383 45.2753 42.6236 44.6433 42.6236 44.6433C41.0737 44.078 40.9326 42.3956 40.9326 42.3956V35.5827C40.9326 32.9263 39.8107 31.5189 38.7136 30.7763C45.1058 30.1439 48.1778 28.0847 49.5923 24.885C52.3935 24.9616 57.4348 25.302 62.2569 26.6591L62.3142 26.4566C57.5195 25.1079 52.5119 24.7591 49.682 24.6768C49.8161 24.3534 49.933 24.0174 50.0369 23.672C52.9039 23.5464 57.6974 23.5511 62.3658 24.4821" fill="#292929"/>
<path d="M44.4713 17.4558C45.8489 18.7002 46.6547 20.2033 46.6547 21.822C46.6547 29.3816 41.0032 29.5866 34.0326 29.5866C27.062 29.5866 21.4098 28.5432 21.4098 21.8251C21.4098 20.2168 22.2046 18.7234 23.5652 17.484C25.8342 15.4185 29.6752 16.5122 34.0319 16.5122C38.3717 16.5122 42.1982 15.4075 44.4704 17.4589" fill="#F5CDB5"/>
<path d="M29.8352 22.2106C29.8352 24.2925 28.6594 25.9805 27.209 25.9805C25.7587 25.9805 24.5823 24.2928 24.5823 22.2106C24.5823 20.1285 25.7587 18.4413 27.209 18.4413C28.6594 18.4413 29.8352 20.1285 29.8352 22.2106Z" fill="white"/>
<path d="M28.9922 22.2581C28.9922 23.6459 28.205 24.7707 27.2414 24.7707C26.2779 24.7707 25.4907 23.6459 25.4907 22.2581C25.4907 20.8702 26.2741 19.7441 27.2414 19.7441C28.2088 19.7441 28.9922 20.8695 28.9922 22.2581Z" fill="#B1645A"/>
<path d="M43.925 22.2106C43.925 24.2925 42.7492 25.9805 41.2982 25.9805C39.8472 25.9805 38.6721 24.2928 38.6721 22.2106C38.6721 20.1285 39.8482 18.4413 41.2982 18.4413C42.7483 18.4413 43.925 20.1285 43.925 22.2106Z" fill="white"/>
<path d="M43.082 22.258C43.082 23.6458 42.2948 24.7706 41.3313 24.7706C40.3677 24.7706 39.5805 23.6458 39.5805 22.258C39.5805 20.8701 40.3677 19.744 41.3313 19.744C42.2948 19.744 43.082 20.8694 43.082 22.258ZM34.7263 25.555C34.7263 25.9167 34.4322 26.21 34.0694 26.21C33.7067 26.21 33.4126 25.9167 33.4126 25.555C33.4126 25.1932 33.7064 24.9 34.0694 24.9C34.4325 24.9 34.7263 25.1932 34.7263 25.555ZM32.5394 27.2113C32.5302 27.1852 32.5262 27.1576 32.5276 27.13C32.5291 27.1024 32.536 27.0753 32.548 27.0503C32.5599 27.0254 32.5767 27.003 32.5973 26.9845C32.618 26.966 32.642 26.9518 32.6682 26.9425C32.6943 26.9333 32.7221 26.9293 32.7498 26.9308C32.7775 26.9323 32.8046 26.9392 32.8296 26.9511C32.8547 26.963 32.8771 26.9797 32.8956 27.0003C32.9142 27.0209 32.9285 27.0449 32.9377 27.071C33.1065 27.5467 33.559 27.8663 34.0641 27.8663C34.5691 27.8663 35.0213 27.5467 35.1907 27.071C35.2 27.0449 35.2143 27.0209 35.2328 27.0004C35.2513 26.9798 35.2738 26.9631 35.2988 26.9512C35.3238 26.9393 35.3509 26.9324 35.3786 26.9309C35.4063 26.9295 35.434 26.9335 35.4601 26.9427C35.4862 26.9519 35.5103 26.9662 35.5309 26.9847C35.5515 27.0031 35.5683 27.0255 35.5802 27.0504C35.5922 27.0754 35.5991 27.1024 35.6005 27.13C35.602 27.1576 35.598 27.1853 35.5887 27.2113C35.4752 27.5237 35.268 27.7937 34.9952 27.9845C34.7224 28.1752 34.3973 28.2776 34.0641 28.2776C33.7309 28.2776 33.4058 28.1752 33.1329 27.9845C32.8601 27.7937 32.6529 27.5237 32.5394 27.2113Z" fill="#B1645A"/>
<path d="M17.9775 30.2093C17.9775 30.3842 17.7722 30.5252 17.5194 30.5252C17.2665 30.5252 17.0615 30.3839 17.0615 30.2093C17.0615 30.0347 17.2662 29.8928 17.5194 29.8928C17.7726 29.8928 17.9775 30.0341 17.9775 30.2093ZM19.2459 30.9111C19.2459 31.086 19.0406 31.2276 18.7877 31.2276C18.5349 31.2276 18.3299 31.0863 18.3299 30.9111C18.3299 30.7359 18.5346 30.5952 18.7877 30.5952C19.0409 30.5952 19.2459 30.7365 19.2459 30.9111ZM20.0211 31.8217C20.0211 31.9959 19.8165 32.1376 19.563 32.1376C19.3095 32.1376 19.1055 31.9963 19.1055 31.8217C19.1055 31.6471 19.3101 31.5052 19.563 31.5052C19.8158 31.5052 20.0211 31.6465 20.0211 31.8217ZM20.7249 32.8758C20.7249 33.0507 20.5202 33.1923 20.2674 33.1923C20.0145 33.1923 19.8092 33.051 19.8092 32.8758C19.8092 32.7006 20.0139 32.5593 20.2674 32.5593C20.5209 32.5593 20.7249 32.7006 20.7249 32.8758ZM21.5002 33.8627C21.5002 34.037 21.2955 34.1786 21.0423 34.1786C20.7891 34.1786 20.5842 34.0373 20.5842 33.8627C20.5842 33.6881 20.7895 33.5462 21.0423 33.5462C21.2952 33.5462 21.5002 33.6875 21.5002 33.8627ZM22.5572 34.7052C22.5572 34.8801 22.3525 35.0217 22.0991 35.0217C21.8456 35.0217 21.6415 34.8804 21.6415 34.7052C21.6415 34.5299 21.8462 34.3893 22.0991 34.3893C22.3519 34.3893 22.5572 34.5306 22.5572 34.7052Z" fill="#C5E6DA"/>
<path d="M24.0366 35.2674C24.0366 35.4417 23.8319 35.5833 23.5787 35.5833C23.3256 35.5833 23.1206 35.442 23.1206 35.2674C23.1206 35.0928 23.3252 34.9509 23.5787 34.9509C23.8322 34.9509 24.0366 35.0922 24.0366 35.2674Z" fill="#C5E6DA"/>
<path d="M25.509 35.2674C25.509 35.4417 25.3043 35.5833 25.0511 35.5833C24.798 35.5833 24.593 35.442 24.593 35.2674C24.593 35.0928 24.7977 34.9509 25.0511 34.9509C25.3046 34.9509 25.509 35.0922 25.509 35.2674Z" fill="#C5E6DA"/>
<path d="M27.0034 35.0227C27.0034 35.1976 26.7987 35.3392 26.5456 35.3392C26.2924 35.3392 26.0874 35.1979 26.0874 35.0227C26.0874 34.8475 26.2921 34.7062 26.5456 34.7062C26.799 34.7062 27.0034 34.8475 27.0034 35.0227Z" fill="#C5E6DA"/>
</g>
<path d="M15.7644 75.5208C15.4771 74.9164 15.061 74.4508 14.5161 74.1238C13.9711 73.787 13.337 73.6185 12.6138 73.6185C11.8905 73.6185 11.2366 73.787 10.652 74.1238C10.0774 74.4508 9.62163 74.9263 9.28477 75.5505C8.95781 76.1648 8.79433 76.8782 8.79433 77.6906C8.79433 78.503 8.95781 79.2164 9.28477 79.8307C9.62163 80.445 10.0774 80.9205 10.652 81.2574C11.2366 81.5844 11.8905 81.7478 12.6138 81.7478C13.6244 81.7478 14.4566 81.4456 15.1105 80.8413C15.7644 80.2369 16.1459 79.4195 16.2549 78.3891H12.1233V77.2893H17.6965V78.3297C17.6172 79.1817 17.3497 79.9644 16.8939 80.6778C16.4382 81.3812 15.8387 81.941 15.0957 82.3572C14.3526 82.7634 13.5253 82.9665 12.6138 82.9665C11.6527 82.9665 10.7759 82.7436 9.98326 82.2977C9.19064 81.842 8.5615 81.2128 8.09584 80.4103C7.64008 79.6078 7.4122 78.7012 7.4122 77.6906C7.4122 76.68 7.64008 75.7735 8.09584 74.9709C8.5615 74.1585 9.19064 73.5294 9.98326 73.0835C10.7759 72.6277 11.6527 72.3999 12.6138 72.3999C13.7135 72.3999 14.6845 72.6723 15.5267 73.2173C16.3787 73.7622 16.998 74.53 17.3844 75.5208H15.7644ZM20.837 72.5188V82.8773H19.4846V72.5188H20.837ZM29.5176 72.5188V73.6185H26.6939V82.8773H25.3415V73.6185H22.5029V72.5188H29.5176ZM39.163 72.5188V82.8773H37.8106V78.181H32.5347V82.8773H31.1823V72.5188H32.5347V77.0664H37.8106V72.5188H39.163ZM42.795 72.5188V79.0727C42.795 79.9942 43.0179 80.6778 43.4637 81.1236C43.9195 81.5695 44.5486 81.7924 45.3512 81.7924C46.1438 81.7924 46.763 81.5695 47.2089 81.1236C47.6646 80.6778 47.8925 79.9942 47.8925 79.0727V72.5188H49.2449V79.0579C49.2449 79.9199 49.0715 80.6481 48.7248 81.2425C48.378 81.8271 47.9074 82.263 47.3129 82.5504C46.7283 82.8377 46.0695 82.9814 45.3363 82.9814C44.6031 82.9814 43.9393 82.8377 43.3448 82.5504C42.7603 82.263 42.2946 81.8271 41.9478 81.2425C41.611 80.6481 41.4426 79.9199 41.4426 79.0579V72.5188H42.795ZM56.6877 77.542C57.0642 77.6014 57.406 77.755 57.7131 78.0027C58.0302 78.2504 58.2779 78.5575 58.4562 78.9241C58.6445 79.2907 58.7386 79.6821 58.7386 80.0982C58.7386 80.6233 58.6048 81.0989 58.3373 81.5249C58.0698 81.941 57.6785 82.2729 57.1633 82.5206C56.658 82.7584 56.0585 82.8773 55.365 82.8773H51.501V72.5188H55.2164C55.9198 72.5188 56.5193 72.6377 57.0146 72.8754C57.51 73.1033 57.8816 73.4154 58.1293 73.8117C58.377 74.208 58.5008 74.6539 58.5008 75.1493C58.5008 75.7636 58.3324 76.2738 57.9955 76.68C57.6686 77.0763 57.2326 77.3637 56.6877 77.542ZM52.8534 76.9921H55.1272C55.7613 76.9921 56.2517 76.8435 56.5985 76.5463C56.9453 76.249 57.1187 75.8379 57.1187 75.3127C57.1187 74.7876 56.9453 74.3765 56.5985 74.0792C56.2517 73.782 55.7514 73.6334 55.0975 73.6334H52.8534V76.9921ZM55.2461 81.7627C55.9198 81.7627 56.4449 81.6042 56.8214 81.2871C57.1979 80.9701 57.3862 80.5292 57.3862 79.9644C57.3862 79.3898 57.188 78.939 56.7917 78.612C56.3954 78.2752 55.8653 78.1067 55.2015 78.1067H52.8534V81.7627H55.2461Z" fill="#02FF1B"/>
<defs>
<clipPath id="clip0">
<rect width="56.4742" height="56.4742" fill="white" transform="translate(5.94458)"/>
</clipPath>
</defs>
</svg>
