<svg width="64" height="74" viewBox="0 0 64 74" fill="none" xmlns="http://www.w3.org/2000/svg">
<path d="M16.009 0.634277L18.9514 39.5336L32.1542 44.6638L45.4413 39.5336L48.3837 0.634277H16.009ZM41.9931 13.2043H26.4971L26.8427 18.0594H41.6474L40.5008 32.6442L32.2469 35.2977V35.3272H32.1542L23.8329 32.6442L23.327 25.1945H27.3486L27.6437 28.939L32.1542 30.3641L36.6816 28.939L37.1874 22.826H23.1163L22.0371 8.51636H42.364L41.9931 13.2043Z" fill="#F16529"/>
<path d="M22.0378 62.5876V71.6137H20.8594V67.5215H16.2622V71.6137H15.0837V62.5876H16.2622V66.5503H20.8594V62.5876H22.0378ZM29.6055 62.5876V63.5459H27.145V71.6137H25.9666V63.5459H23.4931V62.5876H29.6055ZM40.2116 62.6524V71.6137H39.0332V64.9316L36.0547 71.6137H35.2259L32.2345 64.9186V71.6137H31.0561V62.6524H32.3252L35.6403 70.0597L38.9555 62.6524H40.2116ZM43.3886 70.6554H46.5484V71.6137H42.2102V62.5876H43.3886V70.6554ZM53.5755 63.274H49.0301V66.2266C49.2287 65.9503 49.5222 65.7258 49.9107 65.5532C50.2992 65.3719 50.7179 65.2812 51.1668 65.2812C51.8834 65.2812 52.4661 65.4323 52.915 65.7345C53.364 66.028 53.6834 66.4122 53.8733 66.887C54.0719 67.3532 54.1712 67.8496 54.1712 68.3762C54.1712 68.9978 54.0546 69.5547 53.8215 70.0468C53.5884 70.5389 53.2302 70.9274 52.7467 71.2123C52.2719 71.4972 51.6805 71.6396 50.9726 71.6396C50.0661 71.6396 49.3322 71.4065 48.7711 70.9403C48.2099 70.4741 47.8689 69.8525 47.748 69.0755H48.9006C49.0128 69.5676 49.2502 69.9518 49.6128 70.2281C49.9754 70.5043 50.433 70.6425 50.9855 70.6425C51.6675 70.6425 52.1812 70.4396 52.5266 70.0338C52.8719 69.6194 53.0445 69.0755 53.0445 68.4021C53.0445 67.7287 52.8719 67.2108 52.5266 66.8482C52.1812 66.4769 51.6719 66.2913 50.9985 66.2913C50.5409 66.2913 50.1395 66.4035 49.7941 66.628C49.4574 66.8438 49.2114 67.1417 49.056 67.5215H47.9423V62.238H53.5755V63.274Z" fill="#21EE00"/>
</svg>
