<svg width="114" height="77" viewBox="0 0 114 77" fill="none" xmlns="http://www.w3.org/2000/svg">
<path d="M38.786 0.878357V44.2081H83.6632V0.878357H38.786ZM63.208 34.6717C63.208 38.8886 60.6436 40.8133 56.9072 40.8133C53.5314 40.8133 51.578 39.1304 50.5763 37.0896L54.0122 35.0875C54.6733 36.2191 55.2744 37.1767 56.7269 37.1767C58.1092 37.1767 58.9908 36.6544 58.9908 34.6136V20.7733H63.208V34.6717ZM73.1852 40.8133C69.2684 40.8133 66.7341 39.0143 65.502 36.6544L68.9379 34.7394C69.8394 36.1611 71.0215 37.2153 73.095 37.2153C74.838 37.2153 75.9599 36.3739 75.9599 35.2036C75.9599 33.8109 74.818 33.3176 72.8847 32.4955L71.8329 32.0603C68.7876 30.8126 66.7742 29.2361 66.7742 25.9187C66.7742 22.8624 69.1883 20.5411 72.9448 20.5411C75.6294 20.5411 77.5527 21.4406 78.9351 23.8005L75.6494 25.8316C74.9282 24.584 74.1468 24.0907 72.9347 24.0907C71.7026 24.0907 70.9213 24.8451 70.9213 25.8316C70.9213 27.0503 71.7026 27.5435 73.5157 28.3076L74.5676 28.7428C78.1537 30.2226 80.1672 31.7411 80.1672 35.1456C80.1672 38.8015 77.1821 40.8133 73.1852 40.8133Z" fill="#FFFF00" fill-opacity="0.75"/>
<path d="M30.1352 60.7951V67.5927C30.1352 68.3494 29.902 68.9566 29.4356 69.4142C28.9693 69.8629 28.3533 70.0873 27.5878 70.0873C26.8134 70.0873 26.193 69.8585 25.7267 69.401C25.2603 68.9346 25.0271 68.301 25.0271 67.5003H26.2282C26.237 67.9491 26.3514 68.3142 26.5714 68.5958C26.8002 68.8774 27.139 69.0182 27.5878 69.0182C28.0365 69.0182 28.3709 68.8862 28.5909 68.6222C28.8109 68.3494 28.9209 68.0063 28.9209 67.5927V60.7951H30.1352ZM32.0527 66.352C32.0527 65.6128 32.2023 64.966 32.5015 64.4117C32.8006 63.8485 33.2098 63.4129 33.729 63.105C34.2569 62.797 34.8421 62.643 35.4845 62.643C36.118 62.643 36.668 62.7794 37.1344 63.0522C37.6007 63.325 37.9483 63.6681 38.1771 64.0817V62.7618H39.3914V69.9949H38.1771V68.6486C37.9395 69.071 37.5831 69.423 37.108 69.7046C36.6416 69.9773 36.096 70.1137 35.4713 70.1137C34.8289 70.1137 34.2481 69.9553 33.729 69.6386C33.2098 69.3218 32.8006 68.8774 32.5015 68.3054C32.2023 67.7335 32.0527 67.0823 32.0527 66.352ZM38.1771 66.3652C38.1771 65.8196 38.0671 65.3444 37.8471 64.9397C37.6271 64.5349 37.3279 64.2269 36.9496 64.0157C36.58 63.7957 36.1708 63.6857 35.722 63.6857C35.2733 63.6857 34.8641 63.7913 34.4945 64.0025C34.1249 64.2137 33.8302 64.5217 33.6102 64.9265C33.3902 65.3312 33.2802 65.8064 33.2802 66.352C33.2802 66.9063 33.3902 67.3903 33.6102 67.8039C33.8302 68.2086 34.1249 68.521 34.4945 68.741C34.8641 68.9522 35.2733 69.0578 35.722 69.0578C36.1708 69.0578 36.58 68.9522 36.9496 68.741C37.3279 68.521 37.6271 68.2086 37.8471 67.8039C38.0671 67.3903 38.1771 66.9107 38.1771 66.3652ZM44.1138 68.8862L46.3577 62.7618H47.638L44.8002 69.9949H43.4011L40.5633 62.7618H41.8568L44.1138 68.8862ZM48.3712 66.352C48.3712 65.6128 48.5208 64.966 48.82 64.4117C49.1191 63.8485 49.5283 63.4129 50.0475 63.105C50.5754 62.797 51.1606 62.643 51.803 62.643C52.4365 62.643 52.9865 62.7794 53.4529 63.0522C53.9192 63.325 54.2668 63.6681 54.4956 64.0817V62.7618H55.7099V69.9949H54.4956V68.6486C54.258 69.071 53.9016 69.423 53.4265 69.7046C52.9601 69.9773 52.4145 70.1137 51.7898 70.1137C51.1474 70.1137 50.5666 69.9553 50.0475 69.6386C49.5283 69.3218 49.1191 68.8774 48.82 68.3054C48.5208 67.7335 48.3712 67.0823 48.3712 66.352ZM54.4956 66.3652C54.4956 65.8196 54.3856 65.3444 54.1656 64.9397C53.9456 64.5349 53.6465 64.2269 53.2681 64.0157C52.8985 63.7957 52.4893 63.6857 52.0406 63.6857C51.5918 63.6857 51.1826 63.7913 50.813 64.0025C50.4435 64.2137 50.1487 64.5217 49.9287 64.9265C49.7087 65.3312 49.5987 65.8064 49.5987 66.352C49.5987 66.9063 49.7087 67.3903 49.9287 67.8039C50.1487 68.2086 50.4435 68.521 50.813 68.741C51.1826 68.9522 51.5918 69.0578 52.0406 69.0578C52.4893 69.0578 52.8985 68.9522 53.2681 68.741C53.6465 68.521 53.9456 68.2086 54.1656 67.8039C54.3856 67.3903 54.4956 66.9107 54.4956 66.3652ZM60.6567 70.0873C60.0496 70.0873 59.504 69.9817 59.02 69.7705C58.5449 69.5506 58.1709 69.2514 57.8981 68.873C57.6253 68.4858 57.4845 68.0415 57.4757 67.5399H58.756C58.8 67.9711 58.976 68.3362 59.284 68.6354C59.6008 68.9258 60.0584 69.071 60.6567 69.071C61.2287 69.071 61.6775 68.9302 62.003 68.6486C62.3374 68.3582 62.5046 67.9887 62.5046 67.5399C62.5046 67.1879 62.4078 66.9019 62.2142 66.6819C62.0206 66.462 61.7787 66.2948 61.4883 66.1804C61.1979 66.066 60.8063 65.9428 60.3135 65.8108C59.7064 65.6524 59.218 65.494 58.8484 65.3356C58.4877 65.1772 58.1753 64.9309 57.9113 64.5965C57.6561 64.2533 57.5285 63.7957 57.5285 63.2238C57.5285 62.7222 57.6561 62.2778 57.9113 61.8906C58.1665 61.5035 58.5229 61.2043 58.9804 60.9931C59.4468 60.7819 59.9792 60.6763 60.5775 60.6763C61.4399 60.6763 62.1438 60.8919 62.6894 61.3231C63.2438 61.7543 63.5561 62.3262 63.6265 63.039H62.3066C62.2626 62.687 62.0778 62.379 61.7523 62.115C61.4267 61.8422 60.9955 61.7059 60.4587 61.7059C59.9572 61.7059 59.548 61.8378 59.2312 62.1018C58.9144 62.357 58.756 62.7178 58.756 63.1842C58.756 63.5185 58.8484 63.7913 59.0332 64.0025C59.2268 64.2137 59.46 64.3765 59.7328 64.4909C60.0144 64.5965 60.4059 64.7197 60.9075 64.8605C61.5147 65.0276 62.003 65.1948 62.3726 65.362C62.7422 65.5204 63.059 65.7712 63.323 66.1144C63.5869 66.4488 63.7189 66.9063 63.7189 67.4871C63.7189 67.9359 63.6001 68.3582 63.3626 68.7542C63.125 69.1502 62.773 69.4714 62.3066 69.7178C61.8403 69.9641 61.2903 70.0873 60.6567 70.0873ZM65.0377 66.3652C65.0377 65.6172 65.1873 64.966 65.4865 64.4117C65.7857 63.8485 66.1992 63.4129 66.7272 63.105C67.264 62.797 67.8755 62.643 68.5619 62.643C69.4506 62.643 70.181 62.8586 70.753 63.2898C71.3337 63.7209 71.7165 64.3193 71.9013 65.0848H70.6078C70.4846 64.6449 70.2426 64.2973 69.8818 64.0421C69.5298 63.7869 69.0899 63.6593 68.5619 63.6593C67.8755 63.6593 67.3212 63.8969 66.8988 64.3721C66.4764 64.8385 66.2652 65.5028 66.2652 66.3652C66.2652 67.2363 66.4764 67.9095 66.8988 68.3846C67.3212 68.8598 67.8755 69.0974 68.5619 69.0974C69.0899 69.0974 69.5298 68.9742 69.8818 68.7278C70.2338 68.4814 70.4758 68.1295 70.6078 67.6719H71.9013C71.7077 68.411 71.3205 69.005 70.7398 69.4538C70.159 69.8937 69.433 70.1137 68.5619 70.1137C67.8755 70.1137 67.264 69.9597 66.7272 69.6518C66.1992 69.3438 65.7857 68.9082 65.4865 68.345C65.1873 67.7819 65.0377 67.1219 65.0377 66.3652ZM74.7051 63.9365C74.9163 63.5229 75.2154 63.2018 75.6026 62.973C75.9986 62.7442 76.4782 62.6298 77.0413 62.6298V63.8705H76.7246C75.3782 63.8705 74.7051 64.6009 74.7051 66.0616V69.9949H73.504V62.7618H74.7051V63.9365ZM79.0482 61.5871C78.8194 61.5871 78.6259 61.5079 78.4675 61.3495C78.3091 61.1911 78.2299 60.9975 78.2299 60.7687C78.2299 60.5399 78.3091 60.3463 78.4675 60.1879C78.6259 60.0296 78.8194 59.9504 79.0482 59.9504C79.2682 59.9504 79.453 60.0296 79.6026 60.1879C79.761 60.3463 79.8402 60.5399 79.8402 60.7687C79.8402 60.9975 79.761 61.1911 79.6026 61.3495C79.453 61.5079 79.2682 61.5871 79.0482 61.5871ZM79.629 62.7618V69.9949H78.4279V62.7618H79.629ZM82.8772 64.0949C83.1148 63.6813 83.4668 63.3382 83.9332 63.0654C84.4083 62.7838 84.9583 62.643 85.5831 62.643C86.2254 62.643 86.8062 62.797 87.3253 63.105C87.8533 63.4129 88.2669 63.8485 88.5661 64.4117C88.8652 64.966 89.0148 65.6128 89.0148 66.352C89.0148 67.0823 88.8652 67.7335 88.5661 68.3054C88.2669 68.8774 87.8533 69.3218 87.3253 69.6386C86.8062 69.9553 86.2254 70.1137 85.5831 70.1137C84.9671 70.1137 84.4215 69.9773 83.9464 69.7046C83.48 69.423 83.1236 69.0754 82.8772 68.6618V73.4267H81.6761V62.7618H82.8772V64.0949ZM87.7873 66.352C87.7873 65.8064 87.6773 65.3312 87.4573 64.9265C87.2373 64.5217 86.9382 64.2137 86.5598 64.0025C86.1902 63.7913 85.781 63.6857 85.3323 63.6857C84.8923 63.6857 84.4831 63.7957 84.1047 64.0157C83.7352 64.2269 83.436 64.5393 83.2072 64.9529C82.9872 65.3576 82.8772 65.8284 82.8772 66.3652C82.8772 66.9107 82.9872 67.3903 83.2072 67.8039C83.436 68.2086 83.7352 68.521 84.1047 68.741C84.4831 68.9522 84.8923 69.0578 85.3323 69.0578C85.781 69.0578 86.1902 68.9522 86.5598 68.741C86.9382 68.521 87.2373 68.2086 87.4573 67.8039C87.6773 67.3903 87.7873 66.9063 87.7873 66.352ZM92.061 63.7517V68.0151C92.061 68.367 92.1358 68.6178 92.2853 68.7674C92.4349 68.9082 92.6945 68.9786 93.0641 68.9786H93.9484V69.9949H92.8661C92.1973 69.9949 91.6958 69.8409 91.3614 69.533C91.027 69.225 90.8598 68.719 90.8598 68.0151V63.7517H89.9227V62.7618H90.8598V60.9403H92.061V62.7618H93.9484V63.7517H92.061Z" fill="#3EEF2F"/>
</svg>
