<svg width="62" height="92" viewBox="0 0 62 92" fill="none" xmlns="http://www.w3.org/2000/svg">
<path d="M41.7472 37.7862C42.9808 36.978 44.6927 36.2783 44.6927 36.2783C44.6927 36.2783 39.8212 37.1227 34.9749 37.5088C29.0461 37.9792 22.6766 38.0757 19.4793 37.6656C11.9141 36.7005 23.6333 34.0345 23.6333 34.0345C23.6333 34.0345 19.0891 33.745 13.4875 36.3266C6.87894 39.3907 29.8517 40.79 41.7472 37.7862ZM30.9972 33.9139C28.6055 28.7629 20.5367 24.2391 30.9972 16.3256C44.0457 6.45779 37.354 0.0401001 37.354 0.0401001C40.0604 10.2336 27.8376 13.3218 23.4193 19.6551C20.4108 23.9858 24.8921 28.6302 30.9972 33.9139ZM45.4228 12.6583C45.4354 12.6583 23.369 17.9421 33.905 29.5711C37.0142 32.9971 33.0868 36.0853 33.0868 36.0853C33.0868 36.0853 40.9793 32.1768 37.354 27.2911C33.9679 22.7312 31.3748 20.4633 45.4228 12.6583ZM44.655 45.2896C44.5862 45.4046 44.5015 45.5101 44.4032 45.6033C60.5534 41.5379 54.6119 31.26 46.8956 33.8657C46.4788 34.0124 46.1187 34.2775 45.8634 34.6256C46.314 34.4694 46.7771 34.3483 47.2481 34.2637C51.1503 33.4796 56.7519 39.27 44.655 45.2896ZM50.5914 52.8051C50.5914 52.8051 52.4166 54.2406 48.5899 55.3625C41.3016 57.4736 18.2785 58.1129 11.8838 55.4469C9.58028 54.4939 13.8979 53.1549 15.2574 52.8774C16.6672 52.5879 17.4854 52.6362 17.4854 52.6362C14.9301 50.9111 0.957627 56.026 10.3859 57.4856C36.0953 61.4907 57.2629 55.6882 50.5914 52.8051ZM22.4501 47.8109C12.5435 50.4648 28.4796 55.9415 41.0926 50.7664C39.8625 50.3084 38.675 49.7515 37.5429 49.1016C31.9161 50.127 29.3104 50.1994 24.1998 49.6445C19.9829 49.1861 22.4501 47.8109 22.4501 47.8109ZM45.0829 59.5364C35.1763 61.3218 22.9536 61.1167 15.7156 59.9707C15.7156 59.9586 17.2009 61.1408 24.8292 61.6113C36.4351 62.323 54.2595 61.2132 54.6749 55.9536C54.6749 55.9536 53.8692 57.944 45.0829 59.5364ZM39.5947 42.6236C32.1427 43.9988 27.8251 43.9627 22.3745 43.4198C18.1576 42.9976 20.9143 41.0433 20.9143 41.0433C9.98812 44.5176 26.9817 48.4502 42.2507 44.1677C41.2638 43.8338 40.3596 43.3081 39.5947 42.6236Z" fill="#DB1E1E"/>
<path d="M21.8826 75.4108V82.2084C21.8826 82.9652 21.6494 83.5723 21.183 84.0299C20.7166 84.4787 20.1007 84.7031 19.3351 84.7031C18.5608 84.7031 17.9404 84.4743 17.474 84.0167C17.0077 83.5503 16.7745 82.9168 16.7745 82.116H17.9756C17.9844 82.5648 18.0988 82.93 18.3188 83.2115C18.5476 83.4931 18.8863 83.6339 19.3351 83.6339C19.7839 83.6339 20.1183 83.5019 20.3382 83.2379C20.5582 82.9652 20.6682 82.622 20.6682 82.2084V75.4108H21.8826ZM29.6869 82.5648H25.6743L24.9352 84.6107H23.668L26.9942 75.4636H28.3802L31.6931 84.6107H30.426L29.6869 82.5648ZM29.3437 81.588L27.6806 76.9419L26.0175 81.588H29.3437ZM40.7455 75.4108L37.2741 84.6107H35.8882L32.4168 75.4108H33.6972L36.5878 83.3435L39.4784 75.4108H40.7455ZM47.5006 82.5648H43.4881L42.7489 84.6107H41.4818L44.808 75.4636H46.1939L49.5069 84.6107H48.2398L47.5006 82.5648ZM47.1574 81.588L45.4943 76.9419L43.8312 81.588H47.1574Z" fill="#0FFF52"/>
</svg>
