<svg width="48" height="42" viewBox="0 0 48 42" fill="none" xmlns="http://www.w3.org/2000/svg">
<path d="M27.5961 38.645L25.2918 40.7054C24.3161 41.5778 22.7384 41.5778 21.7731 40.7054L1.59505 22.6721C0.61936 21.7997 0.61936 20.3889 1.59505 19.5258L21.7731 1.48318C22.7488 0.61075 24.3265 0.61075 25.2918 1.48318L27.5961 3.5436C28.5821 4.42531 28.5614 5.86389 27.5545 6.72704L15.0471 17.3818H44.8782C46.2587 17.3818 47.3693 18.3749 47.3693 19.6093V22.5793C47.3693 23.8137 46.2587 24.8068 44.8782 24.8068H15.0471L27.5545 35.4615C28.5717 36.3247 28.5925 37.7633 27.5961 38.645Z" fill="#00FF38"/>
</svg>
