<svg width="126" height="70" viewBox="0 0 126 70" fill="none" xmlns="http://www.w3.org/2000/svg">
<path d="M16.9545 5.38806L18.0427 7.43458C18.2796 7.80374 18.5554 8.14645 18.8653 8.45684C19.7767 9.36829 20.6443 10.3237 21.4209 11.3469C23.2658 13.7698 24.5107 16.4602 25.4002 19.3733C25.9333 21.1522 26.2228 22.9751 26.2447 24.82C26.3346 30.3336 24.4438 35.0686 20.6203 39.0039C20.0008 39.6277 19.3317 40.2002 18.6197 40.7159C18.2404 40.7159 18.0637 40.4165 17.9079 40.1599C17.6084 39.6607 17.4407 39.1147 17.3519 38.5596C17.2181 37.8927 17.1292 37.2259 17.1742 36.5361V36.2246C17.1522 36.1577 16.8188 5.5448 16.9515 5.38906L16.9545 5.38806Z" fill="#599636"/>
<path d="M16.9546 5.32196C16.9096 5.23211 16.8647 5.29999 16.8208 5.34392C16.8427 5.78816 16.687 6.18848 16.4414 6.56684C16.1749 6.94619 15.8185 7.2337 15.4631 7.54517C13.4845 9.25726 11.9291 11.3247 10.6832 13.6368C9.03802 16.7495 8.1715 20.0838 7.92791 23.5969C7.8181 24.8647 8.32723 29.3331 8.72855 30.6219C9.8167 34.0461 11.7734 36.9132 14.319 39.403C14.942 40.0019 15.6088 40.559 16.2977 41.0921C16.4973 41.0921 16.5203 40.9144 16.5642 40.7806C16.6518 40.4967 16.7185 40.2067 16.7639 39.9131C16.9635 38.802 17.0753 37.6899 17.2081 36.5788L16.9635 5.32196H16.9546Z" fill="#6CAC48"/>
<path d="M18.0457 42.0713C18.0906 41.5602 18.3452 41.1379 18.6018 40.7157C18.3352 40.6058 18.1346 40.3822 17.9788 40.1366C17.8451 39.914 17.7342 39.6375 17.6454 39.4029C17.3339 38.4695 17.266 37.4911 17.1782 36.5348V35.9557C17.0684 36.0456 17.0444 36.8003 17.0444 36.9121C16.9775 37.9344 16.8448 38.9357 16.6451 39.913C16.5782 40.3123 16.5353 40.7137 16.2897 41.069C16.2897 41.114 16.2897 41.1589 16.3117 41.2248C16.711 42.4028 16.8228 43.6037 16.8907 44.8267V45.2709C16.8907 45.804 16.8687 45.6932 17.313 45.8699C17.4907 45.9368 17.6923 45.9597 17.869 46.0925C18.0028 46.0925 18.0248 45.9827 18.0248 45.8928L17.9579 45.1591V43.1126C17.9359 42.7572 18.0028 42.4008 18.0477 42.0674L18.0457 42.0713Z" fill="#C2BFBF"/>
<path d="M34.9276 32.7735V34.8908C34.9252 34.9747 34.93 35.0586 34.9419 35.1416C34.9694 35.3924 35.1233 35.5453 35.3496 35.6156C35.5608 35.6712 35.7753 35.7131 35.9919 35.741C36.1172 35.7553 36.159 35.8103 36.1733 35.9449C36.1876 36.4189 36.1458 36.4749 35.686 36.4464C34.6136 36.3903 33.5402 36.3771 32.4678 36.4464H32.3659C32.0315 36.4607 32.004 36.4321 32.004 36.0978C32.004 36.0417 32.0183 35.9724 32.0183 35.9163C32.0183 35.8144 32.0876 35.7634 32.1855 35.7634C32.4097 35.7359 32.6177 35.6798 32.8277 35.638C33.1202 35.5687 33.2864 35.3873 33.3149 35.0947C33.3557 34.7746 33.3557 34.4402 33.3557 34.1191L33.37 30.3861C33.3746 30.2779 33.3483 30.1705 33.2941 30.0767C33.24 29.9828 33.1602 29.9063 33.0642 29.8561C32.8121 29.716 32.5455 29.6039 32.269 29.5217C32.1855 29.4942 32.1019 29.4809 32.0325 29.4381C31.8287 29.3402 31.8236 29.1598 32.0183 29.0477C32.0876 29.0069 32.1712 28.9784 32.2548 28.9641C33.1002 28.8393 33.9308 28.6293 34.7339 28.3372C34.9011 28.2811 34.9429 28.2964 34.9582 28.4625C34.9725 28.5645 34.9582 28.6868 34.9439 28.7826C34.9164 28.9641 34.9164 29.1445 34.9164 29.3127C34.9164 29.382 34.9307 29.4524 35 29.4942C35.0693 29.536 35.1396 29.4942 35.2039 29.4534C35.4964 29.2291 35.789 29.0212 36.1091 28.8418C36.5678 28.591 37.0571 28.3677 37.5872 28.2984C38.2294 28.2148 38.785 28.382 39.2733 28.8C39.4752 28.9807 39.653 29.1866 39.8023 29.4126C39.942 29.6165 39.9552 29.6216 40.1367 29.4819C40.6668 29.0915 41.2234 28.7439 41.8228 28.4931C42.4497 28.2281 43.0909 28.1873 43.7311 28.4095C44.3855 28.646 44.832 29.1058 45.097 29.7327C45.3213 30.2342 45.4171 30.7521 45.4171 31.2924V35.0254C45.4171 35.2761 45.5191 35.4331 45.7658 35.5555C46.0308 35.6574 46.3234 35.7084 46.6017 35.7644C46.7831 35.8052 46.7831 35.8052 46.7831 35.9887C46.7556 36.4474 46.7138 36.476 46.2673 36.4474C45.1492 36.3848 44.0285 36.3848 42.9104 36.4474C42.6862 36.4617 42.6862 36.4617 42.6739 36.2384V36.1691C42.6597 35.792 42.6597 35.792 43.0226 35.7104L43.3845 35.6125C43.5071 35.5837 43.6164 35.5144 43.6948 35.4158C43.7732 35.3173 43.8161 35.1952 43.8167 35.0692L43.8575 34.0243L43.8299 31.2944C43.8193 31.0507 43.7676 30.8105 43.677 30.5839C43.3284 29.7337 42.5628 29.4279 41.8238 29.5115C41.2662 29.5676 40.7789 29.7898 40.3192 30.1109C40.2213 30.1802 40.152 30.2638 40.1663 30.4035C40.2916 31.2954 40.207 32.1874 40.2223 33.0783V35.0152C40.2223 35.3638 40.362 35.531 40.6963 35.6146L41.3386 35.7542C41.4364 35.7685 41.4915 35.8103 41.4915 35.9214V36.0234C41.4772 36.4138 41.4507 36.4311 41.0592 36.427C39.945 36.371 38.8298 36.3863 37.7299 36.427C37.3527 36.4413 37.3222 36.3995 37.3395 36.0193C37.3538 35.795 37.3803 35.7828 37.5903 35.741L38.049 35.6574C38.4567 35.5738 38.6066 35.4209 38.6341 34.9887L38.6749 34.0549L38.6474 31.2547C38.6198 30.906 38.5454 30.5717 38.3548 30.2516C38.0765 29.7358 37.6412 29.4717 37.0449 29.4432C36.4455 29.4024 35.9164 29.6247 35.4139 29.9019C35.0652 30.1058 34.9123 30.3474 34.9398 30.7521V32.7858L34.9276 32.7735ZM61.1738 32.8582V34.8225C61.1761 34.9622 61.1852 35.1017 61.2013 35.2405C61.2073 35.333 61.2431 35.421 61.3034 35.4914C61.3637 35.5618 61.4452 35.6108 61.5357 35.6309C61.7761 35.701 62.0237 35.743 62.2737 35.7563C62.4134 35.7706 62.4409 35.8256 62.4552 35.9377V36.0356C62.4409 36.5229 62.3859 36.5789 61.9119 36.5514C60.8517 36.4821 59.7946 36.4953 58.7354 36.5514L58.3277 36.5657C58.2441 36.5657 58.2257 36.5249 58.2023 36.4678C58.1616 36.2749 58.1616 36.0756 58.2023 35.8827C58.2166 35.7991 58.2716 35.7807 58.3552 35.7573C58.5591 35.7298 58.7324 35.688 58.9261 35.6554C59.2747 35.5718 59.4001 35.4311 59.4133 35.0702L59.4541 33.9V30.4728C59.4541 30.222 59.3563 30.0691 59.134 29.957C58.8833 29.8173 58.6182 29.7205 58.3389 29.6226C58.2553 29.5951 58.1717 29.5665 58.1024 29.5248C57.921 29.3994 57.8985 29.2189 58.0749 29.0793C58.154 29.0143 58.2511 28.9751 58.3532 28.9671C59.2451 28.8275 60.1086 28.6328 60.9445 28.2984C61.0423 28.2577 61.0841 28.2842 61.1259 28.3677C61.1677 28.4513 61.182 28.5492 61.1667 28.646L61.1259 29.3005C61.1259 29.3841 61.0851 29.5044 61.1534 29.537C61.237 29.5931 61.2931 29.4677 61.3624 29.435C61.7737 29.09 62.2281 28.7998 62.7141 28.5716C63.1463 28.3677 63.5908 28.2373 64.0934 28.2658C65.0271 28.3219 65.6958 28.7959 66.127 29.6175C66.3513 30.0497 66.4471 30.5227 66.4889 31.011L66.5297 32.0304L66.544 35.109C66.5582 35.3455 66.6418 35.4994 66.8783 35.583C67.1235 35.6647 67.3752 35.7254 67.6306 35.7644C67.8549 35.792 67.8671 35.8338 67.8814 36.0427V36.112C67.8539 36.5861 67.8253 36.5993 67.3513 36.5708C66.312 36.515 65.2703 36.515 64.231 36.5708C64.0913 36.585 63.9527 36.5708 63.8232 36.585C63.7396 36.585 63.6836 36.5708 63.6703 36.4872C63.6428 36.3057 63.6142 36.1253 63.656 35.9296C63.6703 35.846 63.7121 35.8042 63.8089 35.7899L64.4512 35.688C64.6754 35.6319 64.7998 35.4841 64.8283 35.2802L64.8559 34.8898L64.8416 31.9784C64.8416 31.6441 64.8273 31.3097 64.758 30.9753C64.5908 30.2618 64.0475 29.7521 63.3105 29.6807C62.6682 29.6114 62.0872 29.7786 61.5551 30.1262C61.29 30.2934 61.1779 30.5299 61.1779 30.8224V32.9265C61.1779 32.8857 61.1779 32.8857 61.1922 32.8857L61.1738 32.8582Z" fill="#FEFEFF"/>
<path d="M101.976 28.9152C101.823 27.8979 101.446 26.9927 100.791 26.1985C100.221 25.497 99.483 24.9508 98.6455 24.6103C97.7688 24.2485 96.8341 24.1363 95.8871 24.1088C95.4966 24.0945 90.1754 24.1781 89.785 24.1088C89.6871 24.0945 89.6178 24.1231 89.5607 24.2067C89.4914 24.3086 89.4211 24.4156 89.3793 24.5267C89.2121 24.9039 89.2121 24.8754 89.6158 24.9304C89.9501 24.9865 90.2702 25.014 90.5913 25.1119C90.8839 25.2097 91.0929 25.3769 91.1622 25.697C91.1897 25.8499 91.2182 30.7532 91.2182 33.0386L91.1622 34.6697C91.1479 34.7951 91.1347 34.9204 91.0929 35.0316C91.0368 35.1987 90.94 35.3374 90.7728 35.4087C90.5888 35.4953 90.3904 35.5471 90.1877 35.5616C89.8105 35.6024 89.7554 35.6177 89.63 36.0356L89.5893 36.1886C89.5617 36.37 89.575 36.3975 89.7564 36.3975L93.9217 36.4383L95.5527 36.4108L96.6812 36.2711C97.9625 36.0346 99.1053 35.5046 100.08 34.6554C100.637 34.1637 101.091 33.5673 101.417 32.9C101.808 32.1202 101.975 31.269 102.017 30.4066C102.086 29.9193 102.057 29.4168 101.976 28.9152ZM99.9554 30.8928C99.8994 31.7848 99.7189 32.6482 99.2592 33.4281C98.6741 34.4454 97.8382 35.1559 96.6822 35.4057C96.1806 35.5076 95.6791 35.5586 95.1531 35.4893C94.7759 35.4485 94.4151 35.4057 94.0664 35.2803C93.4395 35.056 93.2163 34.6687 93.203 34.057L93.1887 25.6573C93.1887 25.1557 93.413 25.0456 93.7739 25.0303C94.3172 24.9896 94.8748 25.0028 95.4181 25.0578C95.9965 25.1138 96.5642 25.2511 97.1042 25.4656C97.5054 25.6328 97.8771 25.8634 98.2051 26.1486C98.9575 26.7908 99.459 27.5961 99.7342 28.5442C99.9585 29.3107 99.9993 30.0906 99.9585 30.8704L99.9554 30.8928ZM113.554 32.2588C113.554 32.1752 113.554 32.1059 113.54 32.0223C113.414 31.2557 113.01 30.6706 112.384 30.2251C111.98 29.9326 111.52 29.7379 111.046 29.5982C110.963 29.5707 110.893 29.5421 110.81 29.5289C110.824 29.4596 110.866 29.4453 110.908 29.431C111.186 29.2914 111.451 29.1385 111.688 28.9295C112.12 28.5676 112.401 28.1211 112.551 27.5778C112.635 27.2852 112.635 26.9927 112.607 26.6858C112.584 26.3269 112.481 25.9777 112.305 25.6641C112.129 25.3505 111.884 25.0806 111.59 24.8744C110.948 24.4003 110.196 24.2056 109.416 24.1914C107.912 24.1638 106.394 24.1914 104.89 24.1914C104.458 24.1914 104.027 24.2189 103.58 24.1506C103.497 24.1363 103.377 24.1098 103.315 24.2067C103.213 24.3881 103.091 24.5685 103.05 24.7775C103.036 24.8754 103.065 24.9304 103.176 24.9447L104.137 25.0844C104.514 25.1404 104.779 25.3494 104.806 25.6838C104.833 25.9148 104.847 26.1473 104.846 26.38L104.819 28.9845L104.805 34.1386C104.805 34.4444 104.764 34.738 104.707 35.0438C104.693 35.1409 104.652 35.232 104.587 35.3061C104.523 35.3802 104.439 35.4343 104.345 35.4617C104.067 35.5453 103.802 35.6289 103.509 35.6289C103.431 35.6215 103.352 35.6409 103.287 35.6838C103.221 35.7268 103.172 35.7908 103.147 35.8654C103.091 35.9908 103.045 36.1305 103.022 36.2558C102.994 36.423 103.036 36.4801 103.203 36.4597C103.329 36.4454 107.926 36.5576 108.789 36.474C109.305 36.4179 109.809 36.3486 110.322 36.1957C111.198 35.9174 112.008 35.5127 112.648 34.8297C113.178 34.2721 113.484 33.6034 113.511 32.8236C113.552 32.6421 113.552 32.4617 113.552 32.266L113.554 32.2588ZM106.798 26.5502L106.838 25.436C106.838 25.2271 106.922 25.1302 107.131 25.0874C107.465 25.0181 107.8 25.0466 108.134 25.0599C108.468 25.0874 108.788 25.1292 109.123 25.2271C109.734 25.4085 110.209 25.7572 110.489 26.3413C110.615 26.6069 110.682 26.8972 110.683 27.1914C110.698 27.5819 110.669 27.958 110.516 28.3331C110.28 28.849 109.905 29.1833 109.36 29.2812C108.816 29.379 107.271 29.3372 107.034 29.3372C106.825 29.3372 106.81 29.3097 106.81 29.1007V27.7888C106.777 27.3808 106.772 26.9711 106.796 26.5625L106.798 26.5502ZM111.324 34.0448C111.087 34.6717 110.655 35.1049 110.042 35.3394C109.708 35.4648 109.374 35.5433 109.023 35.5209C108.591 35.5066 108.159 35.5209 107.728 35.4373C107.143 35.3119 106.878 34.7543 106.836 34.3506C106.767 33.6401 106.809 32.9153 106.796 32.3862V30.5473C106.796 30.323 106.823 30.2547 107.061 30.2547L108.37 30.269L109.262 30.3709C109.889 30.5106 110.46 30.7481 110.907 31.2343C111.269 31.6248 111.464 32.0978 111.506 32.6136C111.547 33.1008 111.52 33.5748 111.339 34.0346L111.324 34.0448Z" fill="white"/>
<path d="M75.9275 29.8481L76.2894 29.9041C76.6798 29.9184 77.1395 29.7787 77.2782 29.2354C77.3546 28.9759 77.3546 28.6998 77.2782 28.4403C77.1946 28.4403 77.1528 28.5096 77.111 28.5381C76.902 28.7053 76.6655 28.8032 76.4148 28.8307C75.9132 28.8868 75.4117 28.8582 74.9244 28.6778L74.2414 28.4413C73.7651 28.2853 73.2638 28.2196 72.7633 28.2476C72.0528 28.3037 71.3841 28.5402 70.7571 28.8745C70.0884 29.2364 69.6154 29.7798 69.3912 30.5188C69.2658 30.951 69.2515 31.3955 69.3076 31.842C69.4472 32.8593 69.9763 33.5699 70.9233 33.946C70.9794 33.9603 71.0212 33.9868 71.0762 34.0021C71.2016 34.0714 71.2159 34.1417 71.1037 34.2386L70.7551 34.4751L69.9192 34.9909C69.7102 35.1163 69.6827 35.2151 69.752 35.4364C69.8349 35.6966 69.9893 35.9283 70.1975 36.1051C70.3887 36.2691 70.6052 36.401 70.8387 36.4955C70.9916 36.5648 70.9916 36.5974 70.853 36.7198L70.0578 37.2906C69.7928 37.4945 69.5278 37.6984 69.3055 37.9593C69.151 38.1247 69.0396 38.3257 68.9813 38.5444C68.923 38.7631 68.9195 38.9928 68.9712 39.2132C69.0748 39.6968 69.328 40.1355 69.6949 40.467C70.0572 40.8025 70.4978 41.0418 70.9763 41.1633C71.7562 41.3875 72.5645 41.3998 73.3586 41.2469C74.5003 41.0379 75.4993 40.5333 76.2843 39.6729C76.8276 39.1021 77.1477 38.4334 77.1762 37.6342C77.2067 37.1719 77.0721 36.7139 76.7966 36.3416C76.5211 35.9692 76.1225 35.7066 75.6716 35.6005L74.9193 35.4608L72.6206 35.2569C72.3698 35.2427 72.1191 35.2009 71.9101 35.0755C71.645 34.9083 71.5757 34.5882 71.7429 34.3792C71.8683 34.2263 72.0212 34.1285 72.2169 34.1142L72.6624 34.0734C73.5434 33.9838 74.3704 33.607 75.0162 33.001C75.361 32.6819 75.6075 32.2709 75.7267 31.8165C75.8938 31.2171 75.8938 30.5932 75.7542 29.9816C75.7134 29.8287 75.7267 29.8144 75.9214 29.8419L75.9275 29.8481ZM72.5125 36.787C72.5961 36.8013 72.6797 36.787 72.7633 36.787C73.3484 36.8146 73.9478 36.8564 74.5187 37.0113C74.7051 37.0664 74.8868 37.1363 75.062 37.2203C75.6196 37.5261 75.8286 38.0562 75.7583 38.627C75.6747 39.254 75.3261 39.6994 74.7827 39.993C74.4208 40.1969 74.0161 40.2856 73.5982 40.3274C73.4453 40.3417 73.3056 40.3274 73.1527 40.3274C72.6654 40.3417 72.1914 40.2866 71.7317 40.0909C71.4116 39.9655 71.1466 39.7851 70.9101 39.5333C70.4228 39.046 70.1965 38.154 70.9243 37.4293C71.3698 37.0215 71.8724 36.733 72.5125 36.787ZM74.1007 32.4404C73.8082 33.1784 73.167 33.4017 72.5268 33.3038C71.9417 33.2202 71.5095 32.9001 71.2322 32.37C70.8703 31.6595 70.7735 30.9225 70.9814 30.1549C71.1343 29.584 71.483 29.1518 72.0956 29.054C72.8754 28.9143 73.6247 29.1936 74.0182 29.9734C74.2221 30.3506 74.3107 30.8093 74.3107 31.4638C74.2965 31.7288 74.2414 32.0907 74.1018 32.4393L74.1007 32.4404ZM56.5489 31.4923C56.4235 30.74 56.1452 30.057 55.6294 29.4862C54.8628 28.636 53.8883 28.2629 52.7874 28.2599C51.8261 28.2456 50.9219 28.5249 50.1125 29.0264C49.3168 29.5026 48.7335 30.2653 48.4825 31.158C48.246 31.9664 48.2582 32.789 48.4417 33.6096C48.929 35.8115 50.6293 36.7575 52.662 36.6188C53.2614 36.5781 53.8322 36.3823 54.3745 36.1173C55.1829 35.7401 55.7681 35.1417 56.1717 34.3476C56.4918 33.6932 56.6305 32.9959 56.6172 32.2018L56.5479 31.4913L56.5489 31.4923ZM54.5713 34.5852C54.4717 34.8986 54.2828 35.1762 54.0279 35.3841C53.773 35.5919 53.4631 35.7209 53.136 35.7554C52.5244 35.839 51.9515 35.6861 51.4367 35.3232C51.065 35.0498 50.7641 34.6916 50.559 34.2783C49.9881 33.1081 49.8903 31.8828 50.1818 30.6289C50.2757 30.2409 50.4787 29.8878 50.7669 29.6116C51.2827 29.1375 51.8811 29.0264 52.5509 29.1661C53.1931 29.3057 53.6793 29.6534 54.0799 30.1834C54.4806 30.7135 54.6651 31.3252 54.7762 31.9674C54.8323 32.2875 54.8323 32.6218 54.8455 32.8308C54.8455 33.4995 54.7894 34.0541 54.5805 34.5862L54.5713 34.5852ZM86.9879 31.6045C86.8859 30.7961 86.5842 30.0581 86.0123 29.4454C85.26 28.6238 84.2844 28.2751 83.1988 28.2609C82.265 28.2466 81.4016 28.5116 80.6075 28.9714C79.7155 29.5015 79.1029 30.2528 78.8664 31.2701C78.584 32.38 78.7024 33.554 79.2008 34.5852C79.6595 35.5607 80.4403 36.1876 81.4719 36.4659C82.6137 36.7718 83.7013 36.6331 84.7595 36.1173C85.679 35.6718 86.3334 34.9756 86.7096 34.0276C86.9338 33.47 87.0154 32.8716 87.0297 32.1743C87.0439 32.0489 87.0154 31.8257 86.9889 31.6034L86.9879 31.6045ZM85.0653 34.4047C84.841 35.157 84.3691 35.6443 83.5749 35.7564C82.9898 35.84 82.4332 35.7004 81.9307 35.366C81.4984 35.0735 81.1926 34.683 80.9694 34.2243C80.7186 33.737 80.579 33.2212 80.5239 32.6922C80.4403 32.0377 80.4403 31.3975 80.5932 30.7421C80.6224 30.6128 80.6644 30.4868 80.7186 30.3659C81.109 29.3904 81.9725 28.9449 82.9898 29.1681C83.6728 29.321 84.1876 29.6982 84.578 30.2691C84.9552 30.8267 85.1356 31.4393 85.2202 32.104C85.261 32.369 85.2763 32.6473 85.261 32.8838C85.261 33.4271 85.2202 33.9287 85.0571 34.4159L85.0653 34.4047Z" fill="white"/>
<path d="M40.6934 56.2931V66.5275H39.3475V58.8961L35.9459 66.5275H34.9994L31.583 58.8813V66.5275H30.2371V56.2931H31.6865L35.4726 64.7528L39.2588 56.2931H40.6934ZM47.6494 66.6311C46.693 66.6311 45.8204 66.4092 45.0316 65.9655C44.2428 65.512 43.6167 64.8859 43.1533 64.0872C42.6998 63.2787 42.473 62.3716 42.473 61.3659C42.473 60.3602 42.6998 59.4581 43.1533 58.6594C43.6167 57.8509 44.2428 57.2248 45.0316 56.7812C45.8204 56.3276 46.693 56.1008 47.6494 56.1008C48.6156 56.1008 49.4931 56.3276 50.2819 56.7812C51.0707 57.2248 51.6919 57.846 52.1454 58.6446C52.599 59.4433 52.8257 60.3504 52.8257 61.3659C52.8257 62.3815 52.599 63.2886 52.1454 64.0872C51.6919 64.8859 51.0707 65.512 50.2819 65.9655C49.4931 66.4092 48.6156 66.6311 47.6494 66.6311ZM47.6494 65.4627C48.3691 65.4627 49.0149 65.2951 49.5868 64.9598C50.1685 64.6246 50.6221 64.1464 50.9475 63.5252C51.2827 62.9041 51.4503 62.1843 51.4503 61.3659C51.4503 60.5377 51.2827 59.818 50.9475 59.2067C50.6221 58.5855 50.1735 58.1073 49.6016 57.7721C49.0297 57.4368 48.379 57.2692 47.6494 57.2692C46.9197 57.2692 46.269 57.4368 45.6971 57.7721C45.1253 58.1073 44.6717 58.5855 44.3365 59.2067C44.0111 59.818 43.8484 60.5377 43.8484 61.3659C43.8484 62.1843 44.0111 62.9041 44.3365 63.5252C44.6717 64.1464 45.1253 64.6246 45.6971 64.9598C46.2789 65.2951 46.9296 65.4627 47.6494 65.4627ZM62.7072 66.5275H61.3613L55.9483 58.3193V66.5275H54.6025V56.2044H55.9483L61.3613 64.3978V56.2044H62.7072V66.5275ZM72.8104 59.2067C72.5244 58.6052 72.1103 58.1418 71.568 57.8164C71.0258 57.4812 70.3947 57.3136 69.675 57.3136C68.9552 57.3136 68.3045 57.4812 67.7227 57.8164C67.1509 58.1418 66.6973 58.6151 66.3621 59.2362C66.0367 59.8475 65.874 60.5574 65.874 61.3659C65.874 62.1744 66.0367 62.8843 66.3621 63.4956C66.6973 64.107 67.1509 64.5802 67.7227 64.9155C68.3045 65.2408 68.9552 65.4035 69.675 65.4035C70.6807 65.4035 71.5089 65.1028 72.1596 64.5013C72.8104 63.8999 73.19 63.0865 73.2984 62.0611H69.1869V60.9666H74.733V62.0019C74.6541 62.8498 74.3879 63.6288 73.9344 64.3387C73.4808 65.0387 72.8843 65.5958 72.1448 66.0099C71.4054 66.4141 70.5821 66.6163 69.675 66.6163C68.7186 66.6163 67.846 66.3944 67.0572 65.9507C66.2684 65.4972 65.6423 64.8711 65.1789 64.0724C64.7254 63.2738 64.4986 62.3716 64.4986 61.3659C64.4986 60.3602 64.7254 59.4581 65.1789 58.6594C65.6423 57.8509 66.2684 57.2248 67.0572 56.7812C67.846 56.3276 68.7186 56.1008 69.675 56.1008C70.7694 56.1008 71.7357 56.372 72.5737 56.9143C73.4217 57.4565 74.0379 58.2207 74.4224 59.2067H72.8104ZM81.186 66.6311C80.2297 66.6311 79.3571 66.4092 78.5683 65.9655C77.7795 65.512 77.1534 64.8859 76.69 64.0872C76.2364 63.2787 76.0097 62.3716 76.0097 61.3659C76.0097 60.3602 76.2364 59.4581 76.69 58.6594C77.1534 57.8509 77.7795 57.2248 78.5683 56.7812C79.3571 56.3276 80.2297 56.1008 81.186 56.1008C82.1523 56.1008 83.0298 56.3276 83.8186 56.7812C84.6074 57.2248 85.2286 57.846 85.6821 58.6446C86.1357 59.4433 86.3624 60.3504 86.3624 61.3659C86.3624 62.3815 86.1357 63.2886 85.6821 64.0872C85.2286 64.8859 84.6074 65.512 83.8186 65.9655C83.0298 66.4092 82.1523 66.6311 81.186 66.6311ZM81.186 65.4627C81.9058 65.4627 82.5516 65.2951 83.1235 64.9598C83.7052 64.6246 84.1588 64.1464 84.4841 63.5252C84.8194 62.9041 84.987 62.1843 84.987 61.3659C84.987 60.5377 84.8194 59.818 84.4841 59.2067C84.1588 58.5855 83.7101 58.1073 83.1383 57.7721C82.5664 57.4368 81.9157 57.2692 81.186 57.2692C80.4564 57.2692 79.8057 57.4368 79.2338 57.7721C78.6619 58.1073 78.2084 58.5855 77.8732 59.2067C77.5478 59.818 77.3851 60.5377 77.3851 61.3659C77.3851 62.1843 77.5478 62.9041 77.8732 63.5252C78.2084 64.1464 78.6619 64.6246 79.2338 64.9598C79.8155 65.2951 80.4663 65.4627 81.186 65.4627ZM91.3485 56.2191C92.4725 56.2191 93.4437 56.4311 94.2621 56.8551C95.0903 57.2692 95.7213 57.8657 96.1551 58.6446C96.5988 59.4236 96.8207 60.3405 96.8207 61.3955C96.8207 62.4505 96.5988 63.3675 96.1551 64.1464C95.7213 64.9155 95.0903 65.507 94.2621 65.9212C93.4437 66.3254 92.4725 66.5275 91.3485 66.5275H88.1391V56.2191H91.3485ZM91.3485 65.4183C92.6796 65.4183 93.6951 65.0683 94.3952 64.3682C95.0952 63.6583 95.4452 62.6674 95.4452 61.3955C95.4452 60.1138 95.0903 59.113 94.3804 58.3932C93.6803 57.6735 92.6697 57.3136 91.3485 57.3136H89.485V65.4183H91.3485ZM103.757 61.218C104.132 61.2772 104.472 61.43 104.778 61.6765C105.093 61.923 105.34 62.2287 105.517 62.5935C105.705 62.9583 105.798 63.3478 105.798 63.7619C105.798 64.2844 105.665 64.7577 105.399 65.1817C105.133 65.5958 104.743 65.9261 104.231 66.1726C103.728 66.4092 103.131 66.5275 102.441 66.5275H98.5959V56.2191H102.293C102.993 56.2191 103.59 56.3375 104.083 56.5741C104.576 56.8009 104.946 57.1115 105.192 57.5058C105.439 57.9002 105.562 58.3439 105.562 58.8369C105.562 59.4482 105.394 59.956 105.059 60.3602C104.734 60.7546 104.3 61.0406 103.757 61.218ZM99.9417 60.6708H102.205C102.836 60.6708 103.324 60.5229 103.669 60.2271C104.014 59.9313 104.186 59.5222 104.186 58.9996C104.186 58.477 104.014 58.0678 103.669 57.7721C103.324 57.4763 102.826 57.3284 102.175 57.3284H99.9417V60.6708ZM102.323 65.4183C102.993 65.4183 103.516 65.2605 103.891 64.945C104.265 64.6295 104.453 64.1908 104.453 63.6288C104.453 63.0569 104.255 62.6083 103.861 62.2829C103.467 61.9477 102.939 61.7801 102.279 61.7801H99.9417V65.4183H102.323Z" fill="#3CFF0C"/>
</svg>
