<svg width="72" height="60" viewBox="0 0 72 60" fill="none" xmlns="http://www.w3.org/2000/svg">
<path d="M35.9493 43.1696C35.7212 43.1696 35.4932 43.1044 35.2868 42.9958L33.2015 41.7576C32.8865 41.5838 33.0385 41.5187 33.1471 41.4861C33.5599 41.3449 33.6468 41.3123 34.0921 41.0516C34.1355 41.0299 34.2007 41.0408 34.2441 41.0625L35.8516 42.0183C35.9059 42.0509 35.9928 42.0509 36.0471 42.0183L42.3248 38.3907C42.3791 38.3581 42.4226 38.2929 42.4226 38.2169V30.9725C42.4226 30.8965 42.39 30.8313 42.3248 30.7987L36.0471 27.182C35.9928 27.1494 35.9167 27.1494 35.8516 27.182L29.5738 30.7987C29.5087 30.8313 29.4761 30.9073 29.4761 30.9725V38.2169C29.4761 38.282 29.5195 38.3472 29.5738 38.3798L31.2899 39.3682C32.2239 39.8352 32.7996 39.2813 32.7996 38.7382V31.5807C32.7996 31.483 32.8756 31.3961 32.9842 31.3961H33.7771C33.8748 31.3961 33.9617 31.4721 33.9617 31.5807V38.7382C33.9617 39.9873 33.2883 40.6932 32.1045 40.6932C31.7461 40.6932 31.4528 40.6932 30.6599 40.3022L29.009 39.3573C28.6072 39.1184 28.3465 38.6839 28.3465 38.2169V30.9725C28.3465 30.5055 28.5963 30.0602 29.009 29.8321L35.2868 26.2045C35.6887 25.9764 36.21 25.9764 36.601 26.2045L42.8787 29.8321C43.2806 30.071 43.5413 30.5055 43.5413 30.9725V38.2169C43.5413 38.6839 43.2915 39.1292 42.8787 39.3573L36.601 42.9849C36.4163 43.1044 36.1883 43.1696 35.9493 43.1696ZM41.0215 36.0229C41.0215 34.6653 40.1091 34.3069 38.1759 34.0462C36.2208 33.7855 36.0253 33.6552 36.0253 33.199C36.0253 32.8189 36.1883 32.3193 37.6328 32.3193C38.9253 32.3193 39.4032 32.6017 39.5987 33.4706C39.6204 33.5575 39.6856 33.6118 39.7724 33.6118H40.587C40.6413 33.6118 40.6848 33.59 40.7174 33.5575C40.7499 33.514 40.7717 33.4706 40.7608 33.4163C40.6305 31.9174 39.6421 31.2223 37.6328 31.2223C35.8407 31.2223 34.7763 31.9826 34.7763 33.2425C34.7763 34.6218 35.8407 34.9911 37.5568 35.1649C39.6095 35.3713 39.7724 35.6645 39.7724 36.0664C39.7724 36.7724 39.2077 37.0656 37.8826 37.0656C36.2208 37.0656 35.8516 36.6529 35.7321 35.8274C35.7212 35.7405 35.6452 35.6754 35.5475 35.6754H34.7329C34.6351 35.6754 34.5482 35.7514 34.5482 35.86C34.5482 36.9135 35.1239 38.1734 37.8717 38.1734C39.8811 38.1734 41.0215 37.3914 41.0215 36.0229ZM46.9408 30.5815C46.9408 31.244 46.3977 31.7871 45.7352 31.7871C45.0727 31.7871 44.5296 31.244 44.5296 30.5815C44.5296 29.8972 45.0944 29.3759 45.7352 29.3759C46.3869 29.365 46.9408 29.8972 46.9408 30.5815ZM46.7453 30.5815C46.7453 30.0167 46.2891 29.5714 45.7243 29.5714C45.1704 29.5714 44.7143 30.0167 44.7143 30.5815C44.7143 31.1463 45.1704 31.6024 45.7243 31.6024C46.2891 31.5916 46.7453 31.1354 46.7453 30.5815ZM46.2565 31.2549H45.9742C45.9633 31.1897 45.9198 30.8422 45.9198 30.8313C45.8981 30.7553 45.8764 30.7118 45.7787 30.7118H45.5397V31.2549H45.279V29.8972H45.7461C45.909 29.8972 46.224 29.8972 46.224 30.2557C46.224 30.5055 46.061 30.5598 45.9633 30.5924C46.1479 30.6032 46.1588 30.7227 46.1914 30.8965C46.2022 31.0051 46.224 31.1897 46.2565 31.2549ZM45.9524 30.2991C45.9524 30.1145 45.8221 30.1145 45.7569 30.1145H45.5397V30.4946H45.7461C45.9198 30.4946 45.9524 30.3751 45.9524 30.2991ZM16.5079 14.822C16.5079 14.5287 16.3558 14.2681 16.106 14.1269L9.44813 10.2929C9.33952 10.2277 9.20918 10.1951 9.07885 10.1843H9.01368C8.88335 10.1843 8.76388 10.2277 8.6444 10.2929L1.99738 14.1269C1.74758 14.2681 1.59552 14.5396 1.59552 14.822L1.60638 25.1401C1.60638 25.2813 1.68241 25.4116 1.80188 25.4876C1.92135 25.5637 2.07341 25.5637 2.20374 25.4876L6.1572 23.2176C6.40701 23.0656 6.55906 22.8049 6.55906 22.5225V17.7002C6.55906 17.4178 6.71112 17.1463 6.96093 17.0051L8.6444 16.0384C8.77474 15.9624 8.90507 15.9298 9.04626 15.9298C9.18746 15.9298 9.32866 15.9624 9.44813 16.0384L11.1316 17.0051C11.3814 17.1463 11.5335 17.4178 11.5335 17.7002V22.5225C11.5335 22.8049 11.6855 23.0764 11.9353 23.2176L15.8888 25.4876C16.0083 25.5637 16.1712 25.5637 16.2906 25.4876C16.4101 25.4225 16.4861 25.2813 16.4861 25.1401L16.5079 14.822ZM52.9144 3.55897V22.718C52.9144 23.0004 52.7624 23.2719 52.5126 23.4131L45.8547 27.258C45.6049 27.3992 45.3008 27.3992 45.051 27.258L38.3931 23.4131C38.1433 23.2719 37.9912 23.0004 37.9912 22.718V15.0283C37.9912 14.746 38.1433 14.4744 38.3931 14.3332L45.051 10.4884C45.3008 10.3472 45.6049 10.3472 45.8547 10.4884L47.5164 11.4442C47.7011 11.5528 47.94 11.4116 47.94 11.2052V0.995744C47.94 0.691632 48.2659 0.496131 48.5374 0.648187L52.5017 2.86386C52.7515 2.99419 52.9144 3.26572 52.9144 3.55897ZM47.9183 17.559C47.9183 17.483 47.8749 17.4178 47.8205 17.3852L45.5397 16.0601C45.4745 16.0276 45.3985 16.0276 45.3333 16.0601L43.0525 17.3852C42.9873 17.4178 42.9548 17.483 42.9548 17.559V20.1982C42.9548 20.2743 42.9982 20.3394 43.0525 20.372L45.3333 21.6862C45.3985 21.7188 45.4745 21.7188 45.5288 21.6862L47.8097 20.372C47.8749 20.3394 47.9074 20.2743 47.9074 20.1982V17.559H47.9183ZM70.705 17.483C70.9548 17.3418 71.1068 17.0702 71.1068 16.7878V14.9306C71.1068 14.6482 70.9548 14.3767 70.705 14.2355L64.0905 10.3906C63.8407 10.2494 63.5366 10.2494 63.2868 10.3906L56.6289 14.2355C56.3791 14.3767 56.2271 14.6482 56.2271 14.9306V22.6203C56.2271 22.9135 56.3791 23.1742 56.6289 23.3154L63.2434 27.0842C63.4823 27.2254 63.7864 27.2254 64.0362 27.0842L68.0331 24.8577C68.3047 24.7056 68.3047 24.3146 68.0331 24.1626L61.3318 20.3177C61.2015 20.2417 61.1255 20.1114 61.1255 19.9702V17.559C61.1255 17.4178 61.2015 17.2875 61.3318 17.2114L63.4172 16.0058C63.5366 15.9298 63.6995 15.9298 63.819 16.0058L65.9044 17.2114C66.0238 17.2875 66.1107 17.4178 66.1107 17.559V19.4488C66.1107 19.7529 66.4474 19.9484 66.7189 19.7964L70.705 17.483ZM62.3093 17.8631C62.2659 17.8957 62.2333 17.9391 62.2333 17.9934V19.4705C62.2333 19.5249 62.2659 19.5792 62.3093 19.6009L63.5909 20.3394C63.6344 20.372 63.6995 20.372 63.743 20.3394L65.0246 19.6009C65.068 19.5683 65.1006 19.5249 65.1006 19.4705V17.9934C65.1006 17.9391 65.068 17.8848 65.0246 17.8631L63.743 17.1245C63.6995 17.092 63.6344 17.092 63.5909 17.1245L62.3093 17.8631ZM34.7003 22.5877V14.9415C34.7003 14.6591 34.5265 14.3875 34.2767 14.2463L27.6405 10.4232C27.4125 10.2929 27.0975 10.2712 26.8368 10.4232L20.2007 14.2463C19.9509 14.3875 19.7771 14.6482 19.7771 14.9415V22.5877C19.7771 22.8918 19.9834 23.1525 20.2115 23.2828L26.8585 27.1059C27.1192 27.258 27.4233 27.2471 27.6623 27.1059L34.2876 23.2828C34.4831 23.1742 34.6243 22.9896 34.6786 22.7723C34.6894 22.718 34.7003 22.6529 34.7003 22.5877ZM26.6305 9.02213L26.5436 9.07644H26.663L26.6305 9.02213ZM34.9067 23.1633L34.8632 23.0873V23.1851L34.9067 23.1633Z" fill="#0FD05C"/>
<path d="M27.4655 59.4855H26.1197L20.7067 51.2772V59.4855H19.3608V49.1623H20.7067L26.1197 57.3558V49.1623H27.4655V59.4855ZM34.4333 59.589C33.4769 59.589 32.6043 59.3672 31.8155 58.9235C31.0268 58.4699 30.4007 57.8438 29.9373 57.0452C29.4837 56.2367 29.2569 55.3296 29.2569 54.3239C29.2569 53.3182 29.4837 52.416 29.9373 51.6174C30.4007 50.8089 31.0268 50.1828 31.8155 49.7391C32.6043 49.2855 33.4769 49.0588 34.4333 49.0588C35.3996 49.0588 36.2771 49.2855 37.0659 49.7391C37.8546 50.1828 38.4758 50.804 38.9294 51.6026C39.3829 52.4012 39.6097 53.3083 39.6097 54.3239C39.6097 55.3394 39.3829 56.2465 38.9294 57.0452C38.4758 57.8438 37.8546 58.4699 37.0659 58.9235C36.2771 59.3672 35.3996 59.589 34.4333 59.589ZM34.4333 58.4206C35.1531 58.4206 35.7989 58.253 36.3707 57.9178C36.9525 57.5825 37.406 57.1043 37.7314 56.4832C38.0666 55.862 38.2342 55.1422 38.2342 54.3239C38.2342 53.4957 38.0666 52.7759 37.7314 52.1646C37.406 51.5434 36.9574 51.0652 36.3855 50.73C35.8137 50.3948 35.1629 50.2272 34.4333 50.2272C33.7037 50.2272 33.0529 50.3948 32.4811 50.73C31.9092 51.0652 31.4557 51.5434 31.1204 52.1646C30.795 52.7759 30.6324 53.4957 30.6324 54.3239C30.6324 55.1422 30.795 55.862 31.1204 56.4832C31.4557 57.1043 31.9092 57.5825 32.4811 57.9178C33.0628 58.253 33.7135 58.4206 34.4333 58.4206ZM44.5958 49.1771C45.7198 49.1771 46.691 49.3891 47.5093 49.813C48.3375 50.2272 48.9686 50.8237 49.4024 51.6026C49.8461 52.3815 50.0679 53.2985 50.0679 54.3535C50.0679 55.4085 49.8461 56.3254 49.4024 57.1043C48.9686 57.8734 48.3375 58.465 47.5093 58.8791C46.691 59.2833 45.7198 59.4855 44.5958 59.4855H41.3864V49.1771H44.5958ZM44.5958 58.3763C45.9268 58.3763 46.9424 58.0262 47.6424 57.3262C48.3425 56.6163 48.6925 55.6254 48.6925 54.3535C48.6925 53.0717 48.3375 52.0709 47.6276 51.3512C46.9276 50.6314 45.917 50.2715 44.5958 50.2715H42.7323V58.3763H44.5958ZM53.189 50.2715V53.7175H56.9456V54.8267H53.189V58.3763H57.3893V59.4855H51.8431V49.1623H57.3893V50.2715H53.189Z" fill="#14FF00"/>
</svg>
