<svg width="118" height="16" viewBox="0 0 118 16" fill="none" xmlns="http://www.w3.org/2000/svg">
<g filter="url(#filter0_d)">
<path d="M12.463 5.24C12.463 6.72 11.9764 7.82667 11.003 8.56C10.043 9.28 8.92302 9.64 7.64302 9.64H5.64302V11.72H7.64302V14H1.56302V11.72H2.96302V3.28H1.56302V0.999999H7.52302C9.13635 0.999999 10.363 1.38 11.203 2.14C12.043 2.9 12.463 3.93333 12.463 5.24ZM9.58302 5.28C9.58302 4.64 9.40302 4.14667 9.04302 3.8C8.69635 3.45333 8.07635 3.28 7.18302 3.28H5.64302V7.38H7.14302C8.06302 7.38 8.69635 7.18667 9.04302 6.8C9.40302 6.41333 9.58302 5.90667 9.58302 5.28ZM25.6652 14H20.4852V11.72H21.5252L21.0452 10.4H16.6252L16.0852 11.72H17.3052V14H12.1852V11.72H13.3652L17.0852 3.28H15.2852V0.999999H19.7452L24.4252 11.72H25.6652V14ZM20.3252 8.48L18.9652 4.82H18.8452L17.3852 8.48H20.3252ZM40.7157 3.28H39.3157V14L37.8157 14.02L30.8357 5.76H30.7557V11.72H32.5557V14H26.8557V11.72H28.2557V3.28H26.6357V0.999999H30.1757L36.7357 8.72H36.8157V3.28H34.9357V0.999999H40.7157V3.28ZM54.231 5.4L51.951 5.6L51.551 3.28H49.491V11.72H51.611V14H44.811V11.72H46.811V3.28H44.751L44.351 5.6L42.071 5.4L42.471 0.999999H53.831L54.231 5.4ZM69.5183 14H64.0383V11.72H65.4383V8.54H59.9383V11.72H61.3383V14H55.8583V11.72H57.2583V3.28H55.8583V0.999999H61.3383V3.28H59.9383V6.28H65.4383V3.28H64.0383V0.999999H69.5183V3.28H68.1183V11.72H69.5183V14ZM90.2332 3.28H89.1932L85.6132 14H83.7132L80.6532 5.6H80.5532L77.6332 14H75.6932L71.8932 3.28H70.7732V0.999999H75.9532V3.28H74.7532L76.6932 9.56H76.8132L79.1332 3.28H78.1132V0.999999H83.2932V3.28H82.3732L84.6732 9.68H84.7932L86.5132 3.28H85.1132V0.999999H90.2332V3.28ZM103.056 14H97.8758V11.72H98.9158L98.4358 10.4H94.0158L93.4758 11.72H94.6958V14H89.5758V11.72H90.7558L94.4758 3.28H92.6758V0.999999H97.1358L101.816 11.72H103.056V14ZM97.7158 8.48L96.3558 4.82H96.2358L94.7758 8.48H97.7158ZM116.746 14H111.086V11.72H112.286L109.906 8.52H108.306V11.72H109.406V14H104.226V11.72H105.626V3.28H104.226V0.999999H109.466V3.28H108.306V6.34H109.946L112.246 3.28H111.126V0.999999H116.526V3.28H115.066L111.966 7.18L115.406 11.72H116.746V14Z" fill="url(#paint0_linear)"/>
<path d="M11.003 8.56L104.603 133.36L104.74 133.258L104.876 133.155L11.003 8.56ZM5.64302 9.64V-146.36H-150.357V9.64H5.64302ZM5.64302 11.72H-150.357V167.72H5.64302V11.72ZM7.64302 11.72H163.643V-144.28H7.64302V11.72ZM7.64302 14V170H163.643V14H7.64302ZM1.56302 14H-154.437V170H1.56302V14ZM1.56302 11.72V-144.28H-154.437V11.72H1.56302ZM2.96302 11.72V167.72H158.963V11.72H2.96302ZM2.96302 3.28H158.963V-152.72H2.96302V3.28ZM1.56302 3.28H-154.437V159.28H1.56302V3.28ZM1.56302 0.999999V-155H-154.437V0.999999H1.56302ZM11.203 2.14L115.866 -113.54L115.865 -113.54L11.203 2.14ZM9.04302 3.8L-101.266 114.109L-100.225 115.149L-99.1651 116.17L9.04302 3.8ZM5.64302 3.28V-152.72H-150.357V3.28H5.64302ZM5.64302 7.38H-150.357V163.38H5.64302V7.38ZM9.04302 6.8L-105.132 -99.5013L-106.131 -98.4285L-107.11 -97.337L9.04302 6.8ZM-143.537 5.24C-143.537 -10.9126 -140.885 -32.4665 -130.704 -55.6184C-120.106 -79.7179 -103.534 -100.466 -82.8698 -116.035L104.876 133.155C153.49 96.5276 168.463 43.9498 168.463 5.24H-143.537ZM-82.597 -116.24C-54.6985 -137.164 -22.4353 -146.36 7.64302 -146.36V165.64C40.2814 165.64 74.7845 155.724 104.603 133.36L-82.597 -116.24ZM7.64302 -146.36H5.64302V165.64H7.64302V-146.36ZM-150.357 9.64V11.72H161.643V9.64H-150.357ZM5.64302 167.72H7.64302V-144.28H5.64302V167.72ZM-148.357 11.72V14H163.643V11.72H-148.357ZM7.64302 -142H1.56302V170H7.64302V-142ZM157.563 14V11.72H-154.437V14H157.563ZM1.56302 167.72H2.96302V-144.28H1.56302V167.72ZM158.963 11.72V3.28H-153.037V11.72H158.963ZM2.96302 -152.72H1.56302V159.28H2.96302V-152.72ZM157.563 3.28V0.999999H-154.437V3.28H157.563ZM1.56302 157H7.52302V-155H1.56302V157ZM7.52302 157C-13.2403 157 -55.4711 152.19 -93.4594 117.82L115.865 -113.54C76.1971 -149.43 31.513 -155 7.52302 -155V157ZM-93.4595 117.82C-110.157 102.712 -123.605 83.7911 -132.371 62.2248C-140.926 41.176 -143.537 21.3246 -143.537 5.24H168.463C168.463 -32.6967 154.539 -78.5497 115.866 -113.54L-93.4595 117.82ZM165.583 5.28C165.583 -25.2179 156.133 -71.1279 117.251 -108.57L-99.1651 116.17C-137.327 79.4212 -146.417 34.4979 -146.417 5.28H165.583ZM119.352 -106.509C73.4454 -152.415 18.5639 -152.72 7.18302 -152.72V159.28C-1.51465 159.28 -16.1849 158.541 -33.6843 153.649C-51.3545 148.709 -77.4522 137.922 -101.266 114.109L119.352 -106.509ZM7.18302 -152.72H5.64302V159.28H7.18302V-152.72ZM-150.357 3.28V7.38H161.643V3.28H-150.357ZM5.64302 163.38H7.14302V-148.62H5.64302V163.38ZM7.14302 163.38C20.3959 163.38 79.1023 162.349 125.196 110.937L-107.11 -97.337C-83.7345 -123.409 -56.7489 -136.012 -37.2381 -141.968C-18.3012 -147.749 -2.30272 -148.62 7.14302 -148.62V163.38ZM123.218 113.101C155.342 78.5983 165.583 37.5503 165.583 5.28H-146.417C-146.417 -25.737 -136.536 -65.7716 -105.132 -99.5013L123.218 113.101ZM25.6652 14V170H181.665V14H25.6652ZM20.4852 14H-135.515V170H20.4852V14ZM20.4852 11.72V-144.28H-135.515V11.72H20.4852ZM21.5252 11.72V167.72H244.246L168.133 -41.5919L21.5252 11.72ZM21.0452 10.4L167.653 -42.9119L130.312 -145.6H21.0452V10.4ZM16.6252 10.4V-145.6H-88.1056L-127.76 -48.6667L16.6252 10.4ZM16.0852 11.72L-128.3 -47.3467L-216.282 167.72H16.0852V11.72ZM17.3052 11.72H173.305V-144.28H17.3052V11.72ZM17.3052 14V170H173.305V14H17.3052ZM12.1852 14H-143.815V170H12.1852V14ZM12.1852 11.72V-144.28H-143.815V11.72H12.1852ZM13.3652 11.72V167.72H115.088L156.114 74.6379L13.3652 11.72ZM17.0852 3.28L159.834 66.1979L256.324 -152.72L17.0852 -152.72V3.28ZM15.2852 3.28H-140.715V159.28H15.2852V3.28ZM15.2852 0.999999V-155H-140.715V0.999999H15.2852ZM19.7452 0.999999L162.715 -61.4158L121.859 -155H19.7452V0.999999ZM24.4252 11.72L-118.544 74.1358L-77.6885 167.72H24.4252V11.72ZM25.6652 11.72H181.665V-144.28H25.6652V11.72ZM20.3252 8.48V164.48H244.714L166.556 -45.8572L20.3252 8.48ZM18.9652 4.82L165.196 -49.5172L127.42 -151.18H18.9652V4.82ZM18.8452 4.82V-151.18H-86.8792L-126.052 -52.9804L18.8452 4.82ZM17.3852 8.48L-127.512 -49.3204L-212.798 164.48H17.3852V8.48ZM25.6652 -142H20.4852V170H25.6652V-142ZM176.485 14V11.72H-135.515V14H176.485ZM20.4852 167.72H21.5252V-144.28H20.4852V167.72ZM168.133 -41.5919L167.653 -42.9119L-125.563 63.7119L-125.083 65.0319L168.133 -41.5919ZM21.0452 -145.6H16.6252V166.4H21.0452V-145.6ZM-127.76 -48.6667L-128.3 -47.3467L160.471 70.7867L161.011 69.4667L-127.76 -48.6667ZM16.0852 167.72H17.3052V-144.28H16.0852V167.72ZM-138.695 11.72V14H173.305V11.72H-138.695ZM17.3052 -142H12.1852V170H17.3052V-142ZM168.185 14V11.72H-143.815V14H168.185ZM12.1852 167.72H13.3652V-144.28H12.1852V167.72ZM156.114 74.6379L159.834 66.1979L-125.664 -59.6379L-129.384 -51.1979L156.114 74.6379ZM17.0852 -152.72H15.2852V159.28H17.0852V-152.72ZM171.285 3.28V0.999999H-140.715V3.28H171.285ZM15.2852 157H19.7452V-155H15.2852V157ZM-123.224 63.4158L-118.544 74.1358L167.395 -50.6958L162.715 -61.4158L-123.224 63.4158ZM24.4252 167.72H25.6652V-144.28H24.4252V167.72ZM-130.335 11.72V14H181.665V11.72H-130.335ZM166.556 -45.8572L165.196 -49.5172L-127.266 59.1572L-125.906 62.8172L166.556 -45.8572ZM18.9652 -151.18H18.8452V160.82H18.9652V-151.18ZM-126.052 -52.9804L-127.512 -49.3204L162.282 66.2804L163.742 62.6204L-126.052 -52.9804ZM17.3852 164.48H20.3252V-147.52H17.3852V164.48ZM40.7157 3.28V159.28H196.716V3.28H40.7157ZM39.3157 3.28V-152.72H-116.684V3.28H39.3157ZM39.3157 14L41.3955 169.986L195.316 167.934V14H39.3157ZM37.8157 14.02L-81.3382 114.709L-33.7803 170.988L39.8955 170.006L37.8157 14.02ZM30.8357 5.76L149.99 -94.9294L103.25 -150.24H30.8357V5.76ZM30.7557 5.76V-150.24H-125.244V5.76H30.7557ZM30.7557 11.72H-125.244V167.72H30.7557V11.72ZM32.5557 11.72H188.556V-144.28H32.5557V11.72ZM32.5557 14V170H188.556V14H32.5557ZM26.8557 14H-129.144V170H26.8557V14ZM26.8557 11.72V-144.28H-129.144V11.72H26.8557ZM28.2557 11.72V167.72H184.256V11.72H28.2557ZM28.2557 3.28H184.256V-152.72H28.2557V3.28ZM26.6357 3.28H-129.364V159.28H26.6357V3.28ZM26.6357 0.999999V-155H-129.364V0.999999H26.6357ZM30.1757 0.999999L149.053 -100.015L102.331 -155H30.1757V0.999999ZM36.7357 8.72L-82.1421 109.735L-35.4193 164.72H36.7357V8.72ZM36.8157 8.72V164.72H192.816V8.72H36.8157ZM36.8157 3.28H192.816V-152.72H36.8157V3.28ZM34.9357 3.28H-121.064V159.28H34.9357V3.28ZM34.9357 0.999999V-155H-121.064V0.999999H34.9357ZM40.7157 0.999999H196.716V-155H40.7157V0.999999ZM40.7157 -152.72H39.3157V159.28H40.7157V-152.72ZM-116.684 3.28V14H195.316V3.28H-116.684ZM37.2359 -141.986L35.7359 -141.966L39.8955 170.006L41.3955 169.986L37.2359 -141.986ZM156.97 -86.6694L149.99 -94.9294L-88.3182 106.449L-81.3382 114.709L156.97 -86.6694ZM30.8357 -150.24H30.7557V161.76H30.8357V-150.24ZM-125.244 5.76V11.72H186.756V5.76H-125.244ZM30.7557 167.72H32.5557V-144.28H30.7557V167.72ZM-123.444 11.72V14H188.556V11.72H-123.444ZM32.5557 -142H26.8557V170H32.5557V-142ZM182.856 14V11.72H-129.144V14H182.856ZM26.8557 167.72H28.2557V-144.28H26.8557V167.72ZM184.256 11.72V3.28H-127.744V11.72H184.256ZM28.2557 -152.72H26.6357V159.28H28.2557V-152.72ZM182.636 3.28V0.999999H-129.364V3.28H182.636ZM26.6357 157H30.1757V-155H26.6357V157ZM-88.7021 102.015L-82.1421 109.735L155.613 -92.2953L149.053 -100.015L-88.7021 102.015ZM36.7357 164.72H36.8157V-147.28H36.7357V164.72ZM192.816 8.72V3.28H-119.184V8.72H192.816ZM36.8157 -152.72H34.9357V159.28H36.8157V-152.72ZM190.936 3.28V0.999999H-121.064V3.28H190.936ZM34.9357 157H40.7157V-155H34.9357V157ZM-115.284 0.999999V3.28H196.716V0.999999H-115.284ZM54.231 5.4L67.8628 160.803L223.759 147.128L209.59 -8.72356L54.231 5.4ZM51.951 5.6L-101.781 32.1055L-77.3946 173.545L65.5828 161.003L51.951 5.6ZM51.551 3.28L205.283 -23.2255L182.956 -152.72L51.551 -152.72V3.28ZM49.491 3.28V-152.72H-106.509V3.28H49.491ZM49.491 11.72H-106.509V167.72H49.491V11.72ZM51.611 11.72H207.611V-144.28H51.611V11.72ZM51.611 14V170H207.611V14H51.611ZM44.811 14H-111.189V170H44.811V14ZM44.811 11.72V-144.28H-111.189V11.72H44.811ZM46.811 11.72V167.72H202.811V11.72H46.811ZM46.811 3.28H202.811V-152.72H46.811V3.28ZM44.751 3.28V-152.72H-86.6542L-108.981 -23.2255L44.751 3.28ZM44.351 5.6L30.7191 161.003L173.697 173.545L198.083 32.1055L44.351 5.6ZM42.071 5.4L-113.288 -8.72357L-127.457 147.128L28.4391 160.803L42.071 5.4ZM42.471 0.999999V-155H-99.9905L-112.888 -13.1236L42.471 0.999999ZM53.831 0.999999L209.19 -13.1236L196.292 -155H53.831V0.999999ZM40.5991 -150.003L38.3191 -149.803L65.5828 161.003L67.8628 160.803L40.5991 -150.003ZM205.683 -20.9055L205.283 -23.2255L-102.181 29.7855L-101.781 32.1055L205.683 -20.9055ZM51.551 -152.72H49.491V159.28H51.551V-152.72ZM-106.509 3.28V11.72H205.491V3.28H-106.509ZM49.491 167.72H51.611V-144.28H49.491V167.72ZM-104.389 11.72V14H207.611V11.72H-104.389ZM51.611 -142H44.811V170H51.611V-142ZM200.811 14V11.72H-111.189V14H200.811ZM44.811 167.72H46.811V-144.28H44.811V167.72ZM202.811 11.72V3.28H-109.189V11.72H202.811ZM46.811 -152.72H44.751V159.28H46.811V-152.72ZM-108.981 -23.2255L-109.381 -20.9055L198.083 32.1055L198.483 29.7855L-108.981 -23.2255ZM57.9828 -149.803L55.7028 -150.003L28.4391 160.803L30.7191 161.003L57.9828 -149.803ZM197.43 19.5236L197.83 15.1236L-112.888 -13.1236L-113.288 -8.72357L197.43 19.5236ZM42.471 157H53.831V-155H42.471V157ZM-101.528 15.1236L-101.128 19.5236L209.59 -8.72356L209.19 -13.1236L-101.528 15.1236ZM69.5183 14V170H225.518V14H69.5183ZM64.0383 14H-91.9617V170H64.0383V14ZM64.0383 11.72V-144.28H-91.9617V11.72H64.0383ZM65.4383 11.72V167.72H221.438V11.72H65.4383ZM65.4383 8.54H221.438V-147.46H65.4383V8.54ZM59.9383 8.54V-147.46H-96.0617V8.54H59.9383ZM59.9383 11.72H-96.0617V167.72H59.9383V11.72ZM61.3383 11.72H217.338V-144.28H61.3383V11.72ZM61.3383 14V170H217.338V14H61.3383ZM55.8583 14H-100.142V170H55.8583V14ZM55.8583 11.72V-144.28H-100.142V11.72H55.8583ZM57.2583 11.72V167.72H213.258V11.72H57.2583ZM57.2583 3.28H213.258V-152.72H57.2583V3.28ZM55.8583 3.28H-100.142V159.28H55.8583V3.28ZM55.8583 0.999999V-155H-100.142V0.999999H55.8583ZM61.3383 0.999999H217.338V-155H61.3383V0.999999ZM61.3383 3.28V159.28H217.338V3.28H61.3383ZM59.9383 3.28V-152.72H-96.0617V3.28H59.9383ZM59.9383 6.28H-96.0617V162.28H59.9383V6.28ZM65.4383 6.28V162.28H221.438V6.28H65.4383ZM65.4383 3.28H221.438V-152.72H65.4383V3.28ZM64.0383 3.28H-91.9617V159.28H64.0383V3.28ZM64.0383 0.999999V-155H-91.9617V0.999999H64.0383ZM69.5183 0.999999H225.518V-155H69.5183V0.999999ZM69.5183 3.28V159.28H225.518V3.28H69.5183ZM68.1183 3.28V-152.72H-87.8817V3.28H68.1183ZM68.1183 11.72H-87.8817V167.72H68.1183V11.72ZM69.5183 11.72H225.518V-144.28H69.5183V11.72ZM69.5183 -142H64.0383V170H69.5183V-142ZM220.038 14V11.72H-91.9617V14H220.038ZM64.0383 167.72H65.4383V-144.28H64.0383V167.72ZM221.438 11.72V8.54H-90.5617V11.72H221.438ZM65.4383 -147.46H59.9383V164.54H65.4383V-147.46ZM-96.0617 8.54V11.72H215.938V8.54H-96.0617ZM59.9383 167.72H61.3383V-144.28H59.9383V167.72ZM-94.6617 11.72V14H217.338V11.72H-94.6617ZM61.3383 -142H55.8583V170H61.3383V-142ZM211.858 14V11.72H-100.142V14H211.858ZM55.8583 167.72H57.2583V-144.28H55.8583V167.72ZM213.258 11.72V3.28H-98.7417V11.72H213.258ZM57.2583 -152.72H55.8583V159.28H57.2583V-152.72ZM211.858 3.28V0.999999H-100.142V3.28H211.858ZM55.8583 157H61.3383V-155H55.8583V157ZM-94.6617 0.999999V3.28H217.338V0.999999H-94.6617ZM61.3383 -152.72H59.9383V159.28H61.3383V-152.72ZM-96.0617 3.28V6.28H215.938V3.28H-96.0617ZM59.9383 162.28H65.4383V-149.72H59.9383V162.28ZM221.438 6.28V3.28H-90.5617V6.28H221.438ZM65.4383 -152.72H64.0383V159.28H65.4383V-152.72ZM220.038 3.28V0.999999H-91.9617V3.28H220.038ZM64.0383 157H69.5183V-155H64.0383V157ZM-86.4817 0.999999V3.28H225.518V0.999999H-86.4817ZM69.5183 -152.72H68.1183V159.28H69.5183V-152.72ZM-87.8817 3.28V11.72H224.118V3.28H-87.8817ZM68.1183 167.72H69.5183V-144.28H68.1183V167.72ZM-86.4817 11.72V14H225.518V11.72H-86.4817ZM90.2332 3.28V159.28H246.233V3.28H90.2332ZM89.1932 3.28V-152.72H-23.1789L-58.7738 -46.1343L89.1932 3.28ZM85.6132 14V170H197.985L233.58 63.4143L85.6132 14ZM83.7132 14L-62.864 67.396L-25.4868 170H83.7132V14ZM80.6532 5.6L227.23 -47.796L189.853 -150.4H80.6532V5.6ZM80.5532 5.6V-150.4H-30.375L-66.7978 -45.622L80.5532 5.6ZM77.6332 14V170H188.561L224.984 65.222L77.6332 14ZM75.6932 14L-71.3423 66.1208L-34.5194 170H75.6932V14ZM71.8932 3.28L218.929 -48.8408L182.106 -152.72H71.8932V3.28ZM70.7732 3.28H-85.2268V159.28H70.7732V3.28ZM70.7732 0.999999V-155H-85.2268V0.999999H70.7732ZM75.9532 0.999999H231.953V-155H75.9532V0.999999ZM75.9532 3.28V159.28H231.953V3.28H75.9532ZM74.7532 3.28V-152.72H-136.712L-74.2969 49.3241L74.7532 3.28ZM76.6932 9.56L-72.3569 55.6041L-38.3897 165.56H76.6932V9.56ZM76.8132 9.56V165.56H185.487L223.147 63.6196L76.8132 9.56ZM79.1332 3.28L225.467 57.3396L303.069 -152.72H79.1332V3.28ZM78.1132 3.28H-77.8868V159.28H78.1132V3.28ZM78.1132 0.999999V-155H-77.8868V0.999999H78.1132ZM83.2932 0.999999H239.293V-155H83.2932V0.999999ZM83.2932 3.28V159.28H239.293V3.28H83.2932ZM82.3732 3.28V-152.72H-139.457L-64.4345 56.039L82.3732 3.28ZM84.6732 9.68L-62.1345 62.439L-25.0322 165.68H84.6732V9.68ZM84.7932 9.68V165.68H204.404L235.447 50.1683L84.7932 9.68ZM86.5132 3.28L237.167 43.7683L289.974 -152.72H86.5132V3.28ZM85.1132 3.28H-70.8868V159.28H85.1132V3.28ZM85.1132 0.999999V-155H-70.8868V0.999999H85.1132ZM90.2332 0.999999H246.233V-155H90.2332V0.999999ZM90.2332 -152.72H89.1932V159.28H90.2332V-152.72ZM-58.7738 -46.1343L-62.3538 -35.4143L233.58 63.4143L237.16 52.6943L-58.7738 -46.1343ZM85.6132 -142H83.7132V170H85.6132V-142ZM230.29 -39.396L227.23 -47.796L-65.924 58.996L-62.864 67.396L230.29 -39.396ZM80.6532 -150.4H80.5532V161.6H80.6532V-150.4ZM-66.7978 -45.622L-69.7178 -37.222L224.984 65.222L227.904 56.822L-66.7978 -45.622ZM77.6332 -142H75.6932V170H77.6332V-142ZM222.729 -38.1208L218.929 -48.8408L-75.1423 55.4008L-71.3423 66.1208L222.729 -38.1208ZM71.8932 -152.72H70.7732V159.28H71.8932V-152.72ZM226.773 3.28V0.999999H-85.2268V3.28H226.773ZM70.7732 157H75.9532V-155H70.7732V157ZM-80.0468 0.999999V3.28H231.953V0.999999H-80.0468ZM75.9532 -152.72H74.7532V159.28H75.9532V-152.72ZM-74.2969 49.3241L-72.3569 55.6041L225.743 -36.4841L223.803 -42.7641L-74.2969 49.3241ZM76.6932 165.56H76.8132V-146.44H76.6932V165.56ZM223.147 63.6196L225.467 57.3396L-67.2006 -50.7796L-69.5206 -44.4996L223.147 63.6196ZM79.1332 -152.72H78.1132V159.28H79.1332V-152.72ZM234.113 3.28V0.999999H-77.8868V3.28H234.113ZM78.1132 157H83.2932V-155H78.1132V157ZM-72.7068 0.999999V3.28H239.293V0.999999H-72.7068ZM83.2932 -152.72H82.3732V159.28H83.2932V-152.72ZM-64.4345 56.039L-62.1345 62.439L231.481 -43.079L229.181 -49.479L-64.4345 56.039ZM84.6732 165.68H84.7932V-146.32H84.6732V165.68ZM235.447 50.1683L237.167 43.7683L-64.1411 -37.2083L-65.8611 -30.8083L235.447 50.1683ZM86.5132 -152.72H85.1132V159.28H86.5132V-152.72ZM241.113 3.28V0.999999H-70.8868V3.28H241.113ZM85.1132 157H90.2332V-155H85.1132V157ZM-65.7668 0.999999V3.28H246.233V0.999999H-65.7668ZM103.056 14V170H259.056V14H103.056ZM97.8758 14H-58.1242V170H97.8758V14ZM97.8758 11.72V-144.28H-58.1242V11.72H97.8758ZM98.9158 11.72V167.72H321.637L245.524 -41.5919L98.9158 11.72ZM98.4358 10.4L245.044 -42.9119L207.702 -145.6H98.4358V10.4ZM94.0158 10.4V-145.6H-10.715L-50.3695 -48.6667L94.0158 10.4ZM93.4758 11.72L-50.9095 -47.3467L-138.891 167.72H93.4758V11.72ZM94.6958 11.72H250.696V-144.28H94.6958V11.72ZM94.6958 14V170H250.696V14H94.6958ZM89.5758 14H-66.4242V170H89.5758V14ZM89.5758 11.72V-144.28H-66.4242V11.72H89.5758ZM90.7558 11.72V167.72H192.478L233.505 74.6379L90.7558 11.72ZM94.4758 3.28L237.225 66.1979L333.715 -152.72L94.4758 -152.72V3.28ZM92.6758 3.28H-63.3242V159.28H92.6758V3.28ZM92.6758 0.999999V-155H-63.3242V0.999999H92.6758ZM97.1358 0.999999L240.105 -61.4158L199.25 -155H97.1358V0.999999ZM101.816 11.72L-41.1537 74.1358L-0.297858 167.72H101.816V11.72ZM103.056 11.72H259.056V-144.28H103.056V11.72ZM97.7158 8.48V164.48H322.105L243.947 -45.8572L97.7158 8.48ZM96.3558 4.82L242.587 -49.5172L204.81 -151.18H96.3558V4.82ZM96.2358 4.82V-151.18H-9.48855L-48.6611 -52.9804L96.2358 4.82ZM94.7758 8.48L-50.1211 -49.3204L-135.408 164.48H94.7758V8.48ZM103.056 -142H97.8758V170H103.056V-142ZM253.876 14V11.72H-58.1242V14H253.876ZM97.8758 167.72H98.9158V-144.28H97.8758V167.72ZM245.524 -41.5919L245.044 -42.9119L-48.172 63.7119L-47.692 65.0319L245.524 -41.5919ZM98.4358 -145.6H94.0158V166.4H98.4358V-145.6ZM-50.3695 -48.6667L-50.9095 -47.3467L237.861 70.7867L238.401 69.4667L-50.3695 -48.6667ZM93.4758 167.72H94.6958V-144.28H93.4758V167.72ZM-61.3042 11.72V14H250.696V11.72H-61.3042ZM94.6958 -142H89.5758V170H94.6958V-142ZM245.576 14V11.72H-66.4242V14H245.576ZM89.5758 167.72H90.7558V-144.28H89.5758V167.72ZM233.505 74.6379L237.225 66.1979L-48.2734 -59.6379L-51.9934 -51.1979L233.505 74.6379ZM94.4758 -152.72H92.6758V159.28H94.4758V-152.72ZM248.676 3.28V0.999999H-63.3242V3.28H248.676ZM92.6758 157H97.1358V-155H92.6758V157ZM-45.8337 63.4158L-41.1537 74.1358L244.785 -50.6958L240.105 -61.4158L-45.8337 63.4158ZM101.816 167.72H103.056V-144.28H101.816V167.72ZM-52.9442 11.72V14H259.056V11.72H-52.9442ZM243.947 -45.8572L242.587 -49.5172L-49.8751 59.1572L-48.5151 62.8172L243.947 -45.8572ZM96.3558 -151.18H96.2358V160.82H96.3558V-151.18ZM-48.6611 -52.9804L-50.1211 -49.3204L239.673 66.2804L241.133 62.6204L-48.6611 -52.9804ZM94.7758 164.48H97.7158V-147.52H94.7758V164.48ZM116.746 14V170H272.746V14H116.746ZM111.086 14H-44.9137V170H111.086V14ZM111.086 11.72V-144.28H-44.9137V11.72H111.086ZM112.286 11.72V167.72H422.728L237.461 -81.3786L112.286 11.72ZM109.906 8.52L235.081 -84.5786L188.298 -147.48H109.906V8.52ZM108.306 8.52V-147.48H-47.6937V8.52H108.306ZM108.306 11.72H-47.6937V167.72H108.306V11.72ZM109.406 11.72H265.406V-144.28H109.406V11.72ZM109.406 14V170H265.406V14H109.406ZM104.226 14H-51.7737V170H104.226V14ZM104.226 11.72V-144.28H-51.7737V11.72H104.226ZM105.626 11.72V167.72H261.626V11.72H105.626ZM105.626 3.28H261.626V-152.72H105.626V3.28ZM104.226 3.28H-51.7737V159.28H104.226V3.28ZM104.226 0.999999V-155H-51.7737V0.999999H104.226ZM109.466 0.999999H265.466V-155H109.466V0.999999ZM109.466 3.28V159.28H265.466V3.28H109.466ZM108.306 3.28V-152.72H-47.6937V3.28H108.306ZM108.306 6.34H-47.6937V162.34H108.306V6.34ZM109.946 6.34V162.34H187.844L234.648 100.07L109.946 6.34ZM112.246 3.28L236.948 97.0104L424.654 -152.72L112.246 -152.72V3.28ZM111.126 3.28H-44.8737V159.28H111.126V3.28ZM111.126 0.999999V-155H-44.8737V0.999999H111.126ZM116.526 0.999999H272.526V-155H116.526V0.999999ZM116.526 3.28V159.28H272.526V3.28H116.526ZM115.066 3.28V-152.72H39.7876L-7.05412 -93.7901L115.066 3.28ZM111.966 7.18L-10.1541 -89.8901L-85.4925 4.89043L-12.3721 101.392L111.966 7.18ZM115.406 11.72L-8.93208 105.932L37.885 167.72H115.406V11.72ZM116.746 11.72H272.746V-144.28H116.746V11.72ZM116.746 -142H111.086V170H116.746V-142ZM267.086 14V11.72H-44.9137V14H267.086ZM111.086 167.72H112.286V-144.28H111.086V167.72ZM237.461 -81.3786L235.081 -84.5786L-15.2682 101.619L-12.8882 104.819L237.461 -81.3786ZM109.906 -147.48H108.306V164.52H109.906V-147.48ZM-47.6937 8.52V11.72H264.306V8.52H-47.6937ZM108.306 167.72H109.406V-144.28H108.306V167.72ZM-46.5937 11.72V14H265.406V11.72H-46.5937ZM109.406 -142H104.226V170H109.406V-142ZM260.226 14V11.72H-51.7737V14H260.226ZM104.226 167.72H105.626V-144.28H104.226V167.72ZM261.626 11.72V3.28H-50.3737V11.72H261.626ZM105.626 -152.72H104.226V159.28H105.626V-152.72ZM260.226 3.28V0.999999H-51.7737V3.28H260.226ZM104.226 157H109.466V-155H104.226V157ZM-46.5337 0.999999V3.28H265.466V0.999999H-46.5337ZM109.466 -152.72H108.306V159.28H109.466V-152.72ZM-47.6937 3.28V6.34H264.306V3.28H-47.6937ZM108.306 162.34H109.946V-149.66H108.306V162.34ZM234.648 100.07L236.948 97.0104L-12.4558 -90.4504L-14.7558 -87.3904L234.648 100.07ZM112.246 -152.72H111.126V159.28H112.246V-152.72ZM267.126 3.28V0.999999H-44.8737V3.28H267.126ZM111.126 157H116.526V-155H111.126V157ZM-39.4737 0.999999V3.28H272.526V0.999999H-39.4737ZM116.526 -152.72H115.066V159.28H116.526V-152.72ZM-7.05412 -93.7901L-10.1541 -89.8901L234.087 104.25L237.187 100.35L-7.05412 -93.7901ZM-12.3721 101.392L-8.93208 105.932L239.745 -82.4923L236.305 -87.0323L-12.3721 101.392ZM115.406 167.72H116.746V-144.28H115.406V167.72ZM-39.2537 11.72V14H272.746V11.72H-39.2537Z" fill="url(#paint1_linear)"/>
</g>
<defs>
<filter id="filter0_d" x="0.562988" y="0" width="117.183" height="15.02" filterUnits="userSpaceOnUse" color-interpolation-filters="sRGB">
<feFlood flood-opacity="0" result="BackgroundImageFix"/>
<feColorMatrix in="SourceAlpha" type="matrix" values="0 0 0 0 0 0 0 0 0 0 0 0 0 0 0 0 0 0 127 0"/>
<feOffset/>
<feGaussianBlur stdDeviation="0.5"/>
<feColorMatrix type="matrix" values="0 0 0 0 1 0 0 0 0 1 0 0 0 0 1 0 0 0 1 0"/>
<feBlend mode="normal" in2="BackgroundImageFix" result="effect1_dropShadow"/>
<feBlend mode="normal" in="SourceGraphic" in2="effect1_dropShadow" result="shape"/>
</filter>
<linearGradient id="paint0_linear" x1="57.5" y1="-5" x2="57.5" y2="18" gradientUnits="userSpaceOnUse">
<stop stop-color="#4A569D"/>
<stop offset="1" stop-opacity="0"/>
<stop offset="1" stop-color="#DC2424"/>
</linearGradient>
<linearGradient id="paint1_linear" x1="3.23529" y1="6.00001" x2="128.303" y2="6.00001" gradientUnits="userSpaceOnUse">
<stop stop-color="#4A569D"/>
<stop offset="1" stop-color="#DC2424"/>
</linearGradient>
</defs>
</svg>
