<svg width="64" height="80" viewBox="0 0 64 80" fill="none" xmlns="http://www.w3.org/2000/svg">
<path d="M52.5411 17.7849C51.9128 17.5664 51.2845 17.36 50.6563 17.1658C50.761 16.7166 50.8541 16.2674 50.9471 15.8183C52.3782 8.5829 51.4358 2.76791 48.2595 0.849817C45.1996 -0.983302 40.2083 0.922656 35.1589 5.51152C34.6586 5.9607 34.17 6.43415 33.7046 6.90761C33.3904 6.59197 33.0647 6.27633 32.7389 5.97284C27.4451 1.06833 22.1397 -0.995441 18.9635 0.934796C15.9152 2.78005 15.0077 8.25513 16.2875 15.102C16.4155 15.7818 16.5551 16.4495 16.718 17.1294C15.9734 17.3479 15.2404 17.5907 14.5539 17.8456C8.34104 20.0915 3.88497 23.6363 3.88497 27.3026C3.88497 31.0902 8.6319 34.89 15.0891 37.1965C15.6127 37.3786 16.1363 37.5607 16.6714 37.7186C16.4969 38.447 16.3457 39.1632 16.2061 39.9037C14.9844 46.6414 15.9385 51.9829 18.9867 53.816C22.1281 55.7098 27.4102 53.7675 32.5527 49.0693C32.96 48.693 33.3672 48.3045 33.7744 47.8918C34.2863 48.4138 34.8215 48.9115 35.3567 49.3971C40.3363 53.8646 45.2578 55.6734 48.2944 53.8403C51.4358 51.9465 52.4596 46.2043 51.1333 39.2118C51.0286 38.6776 50.9122 38.1313 50.7842 37.5729C51.1566 37.4636 51.5172 37.3422 51.8779 37.2208C58.5911 34.9021 63.4544 31.1509 63.4544 27.3026C63.4544 23.6242 58.8703 20.0551 52.5411 17.7849ZM36.7994 7.47818C41.1275 3.54487 45.1647 2.0031 47.003 3.10783C48.9692 4.2854 49.7255 9.04422 48.4922 15.2962C48.4108 15.709 48.3293 16.1096 48.2246 16.5102C45.6417 15.9032 43.0239 15.4662 40.3945 15.2234C38.882 12.9654 37.2299 10.8045 35.4381 8.77714C35.8919 8.32797 36.334 7.90307 36.7994 7.47818ZM23.3381 33.6032C23.9315 34.6593 24.5365 35.7155 25.1764 36.7474C23.3614 36.541 21.558 36.2375 19.7779 35.8369C20.2898 34.0887 20.9297 32.2799 21.6743 30.4346C22.2095 31.503 22.7564 32.5591 23.3381 33.6032ZM19.8128 18.9989C21.4882 18.6104 23.2683 18.2948 25.1182 18.052C24.5016 19.0596 23.8966 20.0915 23.3265 21.1355C22.7564 22.1674 22.1979 23.2236 21.6743 24.2919C20.9414 22.483 20.3247 20.7106 19.8128 18.9989ZM23.0007 27.3633C23.7686 25.688 24.6063 24.0491 25.4905 22.4345C26.3747 20.8199 27.3288 19.2538 28.3294 17.7121C30.0746 17.5785 31.8547 17.5057 33.6697 17.5057C35.4847 17.5057 37.2764 17.5785 39.01 17.7121C39.9989 19.2417 40.9413 20.8077 41.8372 22.4102C42.7331 24.0127 43.5708 25.6515 44.3619 27.3147C43.5824 28.99 42.7447 30.641 41.8488 32.2678C40.9646 33.8824 40.0222 35.4484 39.0333 37.0023C37.2997 37.1359 35.4963 37.1965 33.6697 37.1965C31.843 37.1965 30.0746 37.1359 28.3643 37.0266C27.3521 35.4848 26.398 33.9067 25.5021 32.292C24.6063 30.6774 23.7802 29.0386 23.0007 27.3633ZM44.0129 33.5789C44.6062 32.5106 45.1647 31.4301 45.7115 30.3375C46.4562 32.0978 47.1077 33.8824 47.6778 35.7155C45.8744 36.1404 44.0478 36.4682 42.2095 36.6867C42.8378 35.6669 43.4311 34.6229 44.0129 33.5789ZM45.6883 24.2919C45.1414 23.2236 44.583 22.1553 44.0012 21.1112C43.4311 20.0793 42.8378 19.0596 42.2211 18.052C44.0943 18.2948 45.8861 18.6226 47.5614 19.0232C47.0263 20.8199 46.398 22.568 45.6883 24.2919ZM33.6929 10.6345C34.9146 12.0185 36.0664 13.4753 37.1368 14.9806C34.8331 14.8714 32.5178 14.8714 30.2142 14.9806C31.3544 13.4146 32.5295 11.9578 33.6929 10.6345ZM20.1967 3.19281C22.1514 2.0031 26.4911 3.70268 31.0635 7.92735C31.3544 8.19443 31.6452 8.48579 31.9477 8.77714C30.1444 10.8045 28.4806 12.9654 26.9565 15.2234C24.327 15.4662 21.7209 15.8911 19.138 16.486C18.9867 15.8668 18.8588 15.2355 18.7308 14.6043C17.6371 8.72858 18.3585 4.29754 20.1967 3.19281ZM17.3463 35.1935C16.8576 35.0478 16.3806 34.89 15.9036 34.72C13.4254 33.9066 10.6098 32.6198 8.57373 30.9324C7.39863 30.0826 6.60747 28.7715 6.38642 27.3026C6.38642 25.081 10.063 22.2402 15.3684 20.31C16.0315 20.0672 16.7064 19.8487 17.3812 19.6423C18.1723 22.2767 19.1264 24.8625 20.2316 27.3633C19.1147 29.9005 18.149 32.5227 17.3463 35.1935ZM30.9123 47.0905C28.9925 48.9236 26.7703 50.3804 24.3503 51.3759C23.0589 52.0193 21.5696 52.08 20.2433 51.5337C18.3934 50.4169 17.6255 46.1315 18.6726 40.3651C18.8006 39.6852 18.9402 39.0054 19.1031 38.3377C21.7093 38.9204 24.3387 39.321 27.003 39.5274C28.5388 41.7976 30.2258 43.9706 32.0292 46.0101C31.6569 46.3864 31.2846 46.7506 30.9123 47.0905ZM33.7627 44.1405C32.576 42.8052 31.3893 41.3241 30.2374 39.7338C31.3544 39.7823 32.5062 39.8066 33.6697 39.8066C34.868 39.8066 36.0431 39.7823 37.2066 39.7216C36.1362 41.2634 34.9844 42.7323 33.7627 44.1405ZM48.9692 47.7825C48.8645 49.2636 48.1664 50.6475 47.0495 51.5823C45.1996 52.6991 41.2555 51.2424 36.9972 47.4304C36.5085 46.9934 36.0199 46.52 35.5196 46.0344C37.2997 43.9827 38.9402 41.8097 40.4294 39.5274C43.0937 39.2967 45.7464 38.8718 48.3642 38.2527C48.4806 38.7505 48.5853 39.2482 48.6784 39.7338C49.2485 42.356 49.3415 45.0875 48.9692 47.7825ZM51.0867 34.7322C50.761 34.8414 50.4352 34.9507 50.0978 35.0478C49.2834 32.4013 48.2828 29.8155 47.131 27.3026C48.2479 24.826 49.1903 22.2767 49.9815 19.6666C50.5865 19.8487 51.1682 20.0429 51.7267 20.2372C57.1484 22.1795 60.9529 25.0688 60.9529 27.2783C60.9529 29.6577 56.8924 32.7291 51.0867 34.7322ZM33.6697 32.9112C36.6132 32.9112 38.9983 30.4225 38.9983 27.3511C38.9983 24.2797 36.6132 21.7911 33.6697 21.7911C30.7261 21.7911 28.341 24.2797 28.341 27.3511C28.341 30.4225 30.7261 32.9112 33.6697 32.9112Z" fill="#51C2E0"/>
<path d="M19.6644 77.6137L17.5147 73.923H16.0902V77.6137H14.9117V68.5876H17.8255C18.5075 68.5876 19.0816 68.7042 19.5478 68.9373C20.0226 69.1704 20.3766 69.4855 20.6097 69.8826C20.8428 70.2798 20.9593 70.733 20.9593 71.2424C20.9593 71.864 20.778 72.4122 20.4154 72.887C20.0615 73.3618 19.5262 73.6769 18.8097 73.8323L21.0759 77.6137H19.6644ZM16.0902 72.9777H17.8255C18.4643 72.9777 18.9435 72.8223 19.2629 72.5115C19.5823 72.192 19.7421 71.769 19.7421 71.2424C19.7421 70.7071 19.5823 70.2927 19.2629 69.9992C18.9521 69.7057 18.473 69.5589 17.8255 69.5589H16.0902V72.9777ZM23.9689 69.5459V72.5633H27.2581V73.5345H23.9689V76.6425H27.6466V77.6137H22.7904V68.5747H27.6466V69.5459H23.9689ZM34.7651 75.6065H30.8284L30.1032 77.6137H28.86L32.1233 68.6394H33.4831L36.7335 77.6137H35.4903L34.7651 75.6065ZM34.4284 74.6482L32.7967 70.0898L31.1651 74.6482H34.4284ZM37.7155 73.0942C37.7155 72.2136 37.914 71.4237 38.3112 70.7244C38.7083 70.0164 39.2479 69.4639 39.9299 69.0668C40.6206 68.6697 41.3846 68.4711 42.222 68.4711C43.2062 68.4711 44.0652 68.7085 44.799 69.1833C45.5329 69.6582 46.0681 70.3316 46.4048 71.2035H44.9933C44.7429 70.6596 44.3803 70.2409 43.9055 69.9474C43.4393 69.6539 42.8781 69.5071 42.222 69.5071C41.5918 69.5071 41.0263 69.6539 40.5256 69.9474C40.0249 70.2409 39.632 70.6596 39.3471 71.2035C39.0623 71.7388 38.9198 72.369 38.9198 73.0942C38.9198 73.8108 39.0623 74.441 39.3471 74.9849C39.632 75.5201 40.0249 75.9345 40.5256 76.2281C41.0263 76.5216 41.5918 76.6684 42.222 76.6684C42.8781 76.6684 43.4393 76.5259 43.9055 76.241C44.3803 75.9475 44.7429 75.5288 44.9933 74.9849H46.4048C46.0681 75.8482 45.5329 76.5173 44.799 76.9921C44.0652 77.4583 43.2062 77.6914 42.222 77.6914C41.3846 77.6914 40.6206 77.4972 39.9299 77.1087C39.2479 76.7115 38.7083 76.1633 38.3112 75.464C37.914 74.7647 37.7155 73.9748 37.7155 73.0942ZM53.7145 68.5876V69.5459H51.254V77.6137H50.0756V69.5459H47.6022V68.5876H53.7145Z" fill="#00FF0A"/>
</svg>
