<svg width="13" height="15" viewBox="0 0 13 15" fill="none" xmlns="http://www.w3.org/2000/svg">
<path d="M11.7322 6.40171L12.332 7.12878C12.586 7.43663 12.586 7.93444 12.332 8.23902L7.0822 14.6057C6.82821 14.9136 6.41752 14.9136 6.16624 14.6057L0.913699 8.23902C0.659718 7.93117 0.659718 7.43336 0.913699 7.12878L1.51353 6.40171C1.77021 6.09058 2.18901 6.09713 2.44029 6.41481L5.5421 10.3613V0.948734C5.5421 0.513151 5.8312 0.16272 6.19056 0.16272H7.05518C7.41453 0.16272 7.70364 0.513151 7.70364 0.948734V10.3613L10.8054 6.41481C11.0567 6.09386 11.4755 6.08731 11.7322 6.40171Z" fill="black"/>
</svg>
