<svg width="13" height="14" viewBox="0 0 13 14" fill="none" xmlns="http://www.w3.org/2000/svg">
<path d="M11.5424 6.11261L12.1344 6.76856C12.3851 7.0463 12.3851 7.49542 12.1344 7.77021L6.95314 13.5142C6.70248 13.7919 6.29715 13.7919 6.04916 13.5142L0.865243 7.77021C0.61458 7.49246 0.61458 7.04335 0.865243 6.76856L1.45723 6.11261C1.71056 5.83191 2.12389 5.83782 2.37188 6.12443L5.43317 9.68486V1.19302C5.43317 0.800041 5.7185 0.483887 6.07316 0.483887H6.92648C7.28114 0.483887 7.56647 0.800041 7.56647 1.19302V9.68486L10.6277 6.12443C10.8757 5.83487 11.2891 5.82896 11.5424 6.11261Z" fill="#6166DC"/>
</svg>
