<svg width="53" height="46" viewBox="0 0 53 46" fill="none" xmlns="http://www.w3.org/2000/svg">
<path d="M22.438 42.8685L24.9979 45.157C26.0819 46.126 27.8346 46.126 28.907 45.157L51.3238 25.128C52.4077 24.159 52.4077 22.5921 51.3238 21.6335L28.907 1.59417C27.8231 0.625187 26.0704 0.625187 24.9979 1.59417L22.438 3.88261C21.3425 4.86189 21.3656 6.45968 22.4841 7.41835L36.3793 19.2523H3.2385C1.70484 19.2523 0.471 20.3552 0.471 21.7263V25.0249C0.471 26.3959 1.70484 27.4989 3.2385 27.4989H36.3793L22.4841 39.3328C21.3541 40.2915 21.331 41.8893 22.438 42.8685Z" fill="#00FF38"/>
</svg>
