<svg width="52" height="74" viewBox="0 0 52 74" fill="none" xmlns="http://www.w3.org/2000/svg">
<path d="M24.7117 34.2659C24.6941 34.3226 24.6765 34.3679 24.7117 34.2659V34.2659ZM39.3306 26.0515C38.1504 26.0509 36.9859 26.487 35.9272 27.3262C35.581 26.2026 35.223 25.2207 35.1643 24.4842C35.0939 23.625 35.0176 23.1151 35.0998 22.0954C35.1819 21.0757 35.5516 19.6311 35.5457 19.5272C35.5399 19.4234 35.4636 18.9041 34.7066 18.8946C33.9497 18.8852 33.2983 19.1307 33.2226 19.4517C33.0889 20.0384 32.9849 20.6415 32.9116 21.2551C32.7766 22.3598 31.3983 26.3065 30.6178 28.3648C30.3596 27.5622 30.1425 26.8541 30.0956 26.2876C30.0252 25.4284 29.9489 24.9185 30.031 23.8988C30.1132 22.8791 30.4829 21.4345 30.477 21.3306C30.4711 21.2268 30.3948 20.7075 29.6385 20.698C28.8821 20.6886 28.2301 20.9341 28.1539 21.2551C28.0776 21.5761 27.9954 22.3315 27.8429 23.0585C27.6903 23.7855 25.8542 30.357 25.3736 32.066C25.1272 32.9346 24.9159 33.6333 24.7633 34.1054C24.7399 34.181 24.7223 34.2282 24.7105 34.2659C24.7281 34.2187 24.7399 34.1715 24.7399 34.1904C24.6108 34.5964 24.5345 34.823 24.5345 34.823V34.8325C24.4347 35.1346 24.3232 35.4084 24.2704 35.4084C24.2352 35.4084 24.1589 34.6153 24.288 33.5295C24.5638 31.2446 25.2152 27.6944 25.2093 27.5717C25.2034 27.5056 25.3325 26.8919 24.7809 26.5614C24.247 26.2498 24.0533 26.7691 24.0064 26.7691C23.9594 26.7691 23.9242 26.958 23.9242 26.958C23.9242 26.958 24.5169 22.9546 22.7864 22.9546C21.7067 22.9546 20.2045 24.8619 19.4663 26.5897C19.0027 26.9957 17.9993 27.8738 16.9431 28.8086C16.5382 29.1673 16.1216 29.5356 15.7284 29.8849C15.6991 29.8377 15.6756 29.7905 15.6463 29.7433C13.5461 26.1365 9.66855 23.5872 9.83285 18.7436C9.89153 16.9779 10.2729 12.342 17.2893 6.71464C23.0399 2.10702 27.6375 3.37223 28.4291 6.1859C29.5675 10.1987 25.971 17.6672 19.9991 18.7436C17.7229 19.1496 16.5265 17.7333 16.2272 17.2045C15.9162 16.6475 15.8692 16.6191 15.7519 16.723C15.5582 16.893 15.6815 17.3839 15.7519 17.6766C15.9279 18.4225 16.6614 19.7444 17.9107 20.4053C19.008 20.9813 21.6768 21.3023 24.9036 19.2912C28.5288 17.044 31.3507 10.7841 30.5233 5.54385C29.6807 0.21865 24.193 -1.52809 19.0039 1.43665C15.9121 3.20227 12.5685 5.97818 10.1632 9.5944C7.3061 13.8999 6.84898 17.6483 7.03676 19.2156C7.70512 24.7769 12.4687 28.4026 14.3753 31.084C14.2814 31.169 14.1933 31.2446 14.1112 31.3201C13.1553 32.0849 9.52361 35.144 8.61466 38.3731C7.58776 42.0366 8.78483 44.6614 9.57055 45.0202C12.0228 46.1155 14.5337 44.1421 15.8827 40.9036C17.2318 37.665 17.0681 33.4351 16.4461 31.5089C16.4402 31.4806 16.4285 31.4617 16.4226 31.4334C16.669 31.1973 16.9214 30.9613 17.1737 30.7253C17.6601 30.2626 18.1355 29.8377 18.5521 29.4695C18.3174 30.4892 18.1472 31.7166 18.0592 33.4917C17.9535 35.5689 18.4875 38.2598 19.18 39.3173C19.4851 39.78 19.8542 39.7894 20.083 39.7894C20.8928 39.7894 21.2566 38.7131 21.6609 37.429C22.1597 35.8616 22.5998 34.0393 22.5998 34.0393C22.5998 34.0393 22.0482 38.968 23.5563 38.968C24.1073 38.968 24.6589 37.8255 24.9059 37.2401V37.2496C24.9059 37.2496 24.9177 37.2118 24.947 37.1363C25.0057 36.9946 25.035 36.9097 25.035 36.9097V36.8813C25.258 36.2676 25.7451 34.8608 26.478 32.5381C27.4286 29.5356 28.3375 25.7872 28.3375 25.7872C28.4254 26.6112 28.5469 27.4249 28.7013 28.2232C28.8656 29.1201 29.2119 30.1021 29.4876 31.0557C29.2647 31.5467 29.1297 31.83 29.1297 31.83C29.1301 31.8372 29.1322 31.8439 29.1356 31.8488C28.9595 32.2265 28.76 32.6325 28.5546 33.0291C27.8041 34.4642 26.9116 36.1071 26.7942 36.5792C26.6534 37.1363 26.6886 37.5517 26.9585 37.8727C27.1581 38.1182 27.5101 38.156 27.8792 38.1088C28.5541 38.0332 29.0294 37.7689 29.2582 37.5989C29.6801 37.3555 30.0789 37.0186 30.443 36.5981C31.1765 35.7294 31.6224 34.4831 31.5813 32.8402C31.5579 31.9338 31.376 31.0274 31.153 30.1776C31.2175 30.0266 31.2879 29.866 31.3525 29.7055C32.5138 26.9768 33.4116 23.9819 33.4116 23.9819C33.4994 24.8059 33.6209 25.6196 33.7754 26.4179C33.9162 27.1827 34.1914 28.023 34.4437 28.8444C33.3529 30.2702 32.6781 31.9225 32.4433 33.0083C32.0091 35.0194 32.3495 35.9258 32.9891 36.1335C33.2766 36.228 33.6874 36.0108 33.9925 35.8031C34.4457 35.5602 34.8729 35.2067 35.2594 34.755C35.9929 33.8864 36.7023 32.6684 36.6554 31.0161C36.6378 30.2702 36.5087 29.5243 36.3385 28.8067C37.2598 28.1835 38.4563 27.8436 39.9819 28.1269C43.2492 28.7406 43.8888 32.0263 43.7656 33.3954C43.6424 34.7645 42.9558 35.5293 42.727 35.7559C42.4981 35.9825 42.4277 36.0674 42.4453 36.2374C42.4747 36.4829 42.5803 36.4734 42.7739 36.4168C43.0439 36.3413 44.4868 35.3027 44.5513 32.7628C44.6452 29.5526 42.727 26.0213 39.3288 26.0497L39.3306 26.0515ZM14.1464 39.7139C13.0673 41.6117 11.5533 42.3293 10.9026 41.725C10.2043 41.0716 10.4801 38.2787 11.8115 36.2563C12.6213 35.0288 13.6652 33.8958 14.3577 33.1971C14.5161 33.0461 14.7449 32.8195 15.0266 32.5456C15.0735 32.4984 15.097 32.4795 15.097 32.4795C15.1498 32.4229 15.2085 32.3757 15.2672 32.319C15.7536 35.1894 15.2848 37.7198 14.1464 39.712V39.7139ZM22.0306 31.084C21.6551 32.5664 20.8635 36.3432 20.3823 36.1449C19.9715 35.9749 19.7192 33.0952 20.3002 30.2626C20.5936 28.8369 21.2156 27.1374 21.5852 26.4764C22.1773 25.4095 22.8287 25.0696 22.9812 25.4945C23.1866 26.0515 22.2653 30.1587 22.0306 31.084ZM28.5441 36.0882C28.3856 36.2204 28.2389 36.3054 28.1685 36.2393C28.1157 36.1921 28.2331 36.0127 28.2331 36.0127C28.2331 36.0127 29.0487 34.6059 29.3715 33.9638C29.5592 33.5861 29.7764 33.1424 30.0105 32.6514C30.0105 32.6986 30.0164 32.7458 30.0164 32.8025C30.0087 34.4926 29 35.635 28.5423 36.0882H28.5441ZM33.5659 34.2471C33.4485 34.1149 33.4661 33.6711 33.8593 32.2926C34.0119 31.7544 34.3634 30.848 34.9742 29.9793C35.0434 30.3082 35.081 30.652 35.0857 30.9991C35.0798 33.1235 34.1351 33.9166 33.5665 34.2471H33.5659Z" fill="#CD6799"/>
<path d="M16.3092 73.0906C15.7135 73.0906 15.1783 72.9871 14.7034 72.7799C14.2372 72.564 13.8703 72.2705 13.6027 71.8993C13.3351 71.5194 13.1969 71.0834 13.1883 70.5913H14.4444C14.4876 71.0144 14.6603 71.3726 14.9624 71.6662C15.2732 71.9511 15.7222 72.0935 16.3092 72.0935C16.8704 72.0935 17.3107 71.9554 17.6301 71.6791C17.9582 71.3942 18.1222 71.0316 18.1222 70.5913C18.1222 70.246 18.0272 69.9654 17.8373 69.7496C17.6474 69.5338 17.41 69.3697 17.1251 69.2575C16.8402 69.1453 16.456 69.0244 15.9725 68.8949C15.3768 68.7395 14.8977 68.5841 14.5351 68.4287C14.1811 68.2733 13.8746 68.0316 13.6156 67.7035C13.3653 67.3668 13.2401 66.9179 13.2401 66.3567C13.2401 65.8646 13.3653 65.4286 13.6156 65.0488C13.866 64.6689 14.2157 64.3754 14.6646 64.1682C15.1221 63.961 15.6445 63.8574 16.2315 63.8574C17.0776 63.8574 17.7682 64.0689 18.3035 64.4919C18.8474 64.915 19.1539 65.4761 19.2229 66.1754H17.9279C17.8848 65.8301 17.7035 65.5279 17.3841 65.2689C17.0646 65.0013 16.6416 64.8675 16.115 64.8675C15.6229 64.8675 15.2214 64.997 14.9106 65.256C14.5998 65.5063 14.4444 65.8603 14.4444 66.3179C14.4444 66.6459 14.5351 66.9136 14.7164 67.1208C14.9063 67.328 15.1351 67.4877 15.4027 67.5999C15.679 67.7035 16.0632 67.8244 16.5553 67.9625C17.151 68.1265 17.6301 68.2906 17.9927 68.4546C18.3553 68.61 18.6661 68.856 18.9251 69.1927C19.1841 69.5208 19.3136 69.9697 19.3136 70.5395C19.3136 70.9798 19.197 71.3942 18.9639 71.7827C18.7308 72.1712 18.3855 72.4863 17.9279 72.7281C17.4704 72.9698 16.9308 73.0906 16.3092 73.0906ZM26.3831 70.9928H22.4463L21.7212 73H20.478L23.7413 64.0257H25.1011L28.3515 73H27.1083L26.3831 70.9928ZM26.0464 70.0345L24.4147 65.4761L22.783 70.0345H26.0464ZM32.6357 73.0906C32.04 73.0906 31.5047 72.9871 31.0299 72.7799C30.5637 72.564 30.1968 72.2705 29.9291 71.8993C29.6615 71.5194 29.5234 71.0834 29.5147 70.5913H30.7709C30.8141 71.0144 30.9867 71.3726 31.2889 71.6662C31.5997 71.9511 32.0486 72.0935 32.6357 72.0935C33.1968 72.0935 33.6371 71.9554 33.9566 71.6791C34.2846 71.3942 34.4486 71.0316 34.4486 70.5913C34.4486 70.246 34.3537 69.9654 34.1638 69.7496C33.9738 69.5338 33.7364 69.3697 33.4515 69.2575C33.1666 69.1453 32.7824 69.0244 32.299 68.8949C31.7033 68.7395 31.2241 68.5841 30.8615 68.4287C30.5076 68.2733 30.2011 68.0316 29.9421 67.7035C29.6917 67.3668 29.5665 66.9179 29.5665 66.3567C29.5665 65.8646 29.6917 65.4286 29.9421 65.0488C30.1925 64.6689 30.5421 64.3754 30.991 64.1682C31.4486 63.961 31.9709 63.8574 32.558 63.8574C33.404 63.8574 34.0947 64.0689 34.6299 64.4919C35.1738 64.915 35.4803 65.4761 35.5494 66.1754H34.2544C34.2112 65.8301 34.0299 65.5279 33.7105 65.2689C33.3911 65.0013 32.968 64.8675 32.4414 64.8675C31.9493 64.8675 31.5479 64.997 31.2371 65.256C30.9263 65.5063 30.7709 65.8603 30.7709 66.3179C30.7709 66.6459 30.8615 66.9136 31.0428 67.1208C31.2328 67.328 31.4615 67.4877 31.7292 67.5999C32.0054 67.7035 32.3896 67.8244 32.8817 67.9625C33.4774 68.1265 33.9566 68.2906 34.3191 68.4546C34.6817 68.61 34.9925 68.856 35.2515 69.1927C35.5105 69.5208 35.64 69.9697 35.64 70.5395C35.64 70.9798 35.5235 71.3942 35.2904 71.7827C35.0573 72.1712 34.712 72.4863 34.2544 72.7281C33.7968 72.9698 33.2573 73.0906 32.6357 73.0906ZM40.2361 73.0906C39.6404 73.0906 39.1052 72.9871 38.6303 72.7799C38.1642 72.564 37.7972 72.2705 37.5296 71.8993C37.262 71.5194 37.1238 71.0834 37.1152 70.5913H38.3713C38.4145 71.0144 38.5872 71.3726 38.8893 71.6662C39.2001 71.9511 39.6491 72.0935 40.2361 72.0935C40.7973 72.0935 41.2376 71.9554 41.557 71.6791C41.8851 71.3942 42.0491 71.0316 42.0491 70.5913C42.0491 70.246 41.9541 69.9654 41.7642 69.7496C41.5743 69.5338 41.3369 69.3697 41.052 69.2575C40.7671 69.1453 40.3829 69.0244 39.8994 68.8949C39.3037 68.7395 38.8246 68.5841 38.462 68.4287C38.108 68.2733 37.8016 68.0316 37.5426 67.7035C37.2922 67.3668 37.167 66.9179 37.167 66.3567C37.167 65.8646 37.2922 65.4286 37.5426 65.0488C37.7929 64.6689 38.1426 64.3754 38.5915 64.1682C39.0491 63.961 39.5714 63.8574 40.1584 63.8574C41.0045 63.8574 41.6951 64.0689 42.2304 64.4919C42.7743 64.915 43.0808 65.4761 43.1499 66.1754H41.8549C41.8117 65.8301 41.6304 65.5279 41.311 65.2689C40.9915 65.0013 40.5685 64.8675 40.0419 64.8675C39.5498 64.8675 39.1483 64.997 38.8375 65.256C38.5267 65.5063 38.3713 65.8603 38.3713 66.3179C38.3713 66.6459 38.462 66.9136 38.6433 67.1208C38.8332 67.328 39.062 67.4877 39.3296 67.5999C39.6059 67.7035 39.9901 67.8244 40.4822 67.9625C41.0779 68.1265 41.557 68.2906 41.9196 68.4546C42.2822 68.61 42.593 68.856 42.852 69.1927C43.111 69.5208 43.2405 69.9697 43.2405 70.5395C43.2405 70.9798 43.124 71.3942 42.8909 71.7827C42.6578 72.1712 42.3124 72.4863 41.8549 72.7281C41.3973 72.9698 40.8577 73.0906 40.2361 73.0906Z" fill="#05FF00"/>
</svg>
