<svg width="114" height="77" viewBox="0 0 114 77" fill="none" xmlns="http://www.w3.org/2000/svg">
<path d="M31.1486 60.7951V61.7719H28.6407V69.9949H27.4396V61.7719H24.9185V60.7951H31.1486ZM38.8571 62.7618L34.5013 73.4003H33.2606L34.6861 69.9157L31.7691 62.7618H33.1022L35.3725 68.6222L37.6164 62.7618H38.8571ZM41.2656 64.0949C41.5032 63.6813 41.8552 63.3382 42.3215 63.0654C42.7967 62.7838 43.3467 62.643 43.9714 62.643C44.6138 62.643 45.1946 62.797 45.7137 63.105C46.2417 63.4129 46.6553 63.8485 46.9545 64.4117C47.2536 64.966 47.4032 65.6128 47.4032 66.352C47.4032 67.0823 47.2536 67.7335 46.9545 68.3054C46.6553 68.8774 46.2417 69.3218 45.7137 69.6386C45.1946 69.9553 44.6138 70.1137 43.9714 70.1137C43.3555 70.1137 42.8099 69.9773 42.3347 69.7046C41.8684 69.423 41.512 69.0754 41.2656 68.6618V73.4267H40.0645V62.7618H41.2656V64.0949ZM46.1757 66.352C46.1757 65.8064 46.0657 65.3312 45.8457 64.9265C45.6257 64.5217 45.3266 64.2137 44.9482 64.0025C44.5786 63.7913 44.1694 63.6857 43.7207 63.6857C43.2807 63.6857 42.8715 63.7957 42.4931 64.0157C42.1236 64.2269 41.8244 64.5393 41.5956 64.9529C41.3756 65.3576 41.2656 65.8284 41.2656 66.3652C41.2656 66.9107 41.3756 67.3903 41.5956 67.8039C41.8244 68.2086 42.1236 68.521 42.4931 68.741C42.8715 68.9522 43.2807 69.0578 43.7207 69.0578C44.1694 69.0578 44.5786 68.9522 44.9482 68.741C45.3266 68.521 45.6257 68.2086 45.8457 67.8039C46.0657 67.3903 46.1757 66.9063 46.1757 66.352ZM55.5838 66.1012C55.5838 66.33 55.5706 66.5719 55.5442 66.8271H49.763C49.807 67.5399 50.049 68.0987 50.4889 68.5034C50.9377 68.8994 51.4789 69.0974 52.1124 69.0974C52.6316 69.0974 53.0628 68.9786 53.406 68.741C53.7579 68.4946 54.0043 68.169 54.1451 67.7643H55.4386C55.245 68.4594 54.8579 69.027 54.2771 69.467C53.6963 69.8981 52.9748 70.1137 52.1124 70.1137C51.4261 70.1137 50.8101 69.9597 50.2646 69.6518C49.7278 69.3438 49.3054 68.9082 48.9974 68.345C48.6895 67.7731 48.5355 67.1131 48.5355 66.3652C48.5355 65.6172 48.6851 64.9616 48.9842 64.3985C49.2834 63.8353 49.7014 63.4041 50.2382 63.105C50.7837 62.797 51.4085 62.643 52.1124 62.643C52.7988 62.643 53.406 62.7926 53.9339 63.0918C54.4619 63.3909 54.8667 63.8045 55.1483 64.3325C55.4386 64.8517 55.5838 65.4412 55.5838 66.1012ZM54.3431 65.8504C54.3431 65.3928 54.2419 65.0012 54.0395 64.6757C53.8371 64.3413 53.56 64.0905 53.208 63.9233C52.8648 63.7473 52.482 63.6593 52.0596 63.6593C51.4525 63.6593 50.9333 63.8529 50.5021 64.2401C50.0798 64.6273 49.8378 65.164 49.7762 65.8504H54.3431ZM60.0863 70.0873C59.4791 70.0873 58.9336 69.9817 58.4496 69.7705C57.9744 69.5506 57.6004 69.2514 57.3277 68.873C57.0549 68.4858 56.9141 68.0415 56.9053 67.5399H58.1856C58.2296 67.9711 58.4056 68.3362 58.7136 68.6354C59.0304 68.9258 59.4879 69.071 60.0863 69.071C60.6583 69.071 61.107 68.9302 61.4326 68.6486C61.767 68.3582 61.9342 67.9887 61.9342 67.5399C61.9342 67.1879 61.8374 66.9019 61.6438 66.6819C61.4502 66.462 61.2082 66.2948 60.9178 66.1804C60.6275 66.066 60.2359 65.9428 59.7431 65.8108C59.136 65.6524 58.6476 65.494 58.278 65.3356C57.9172 65.1772 57.6048 64.9309 57.3409 64.5965C57.0857 64.2533 56.9581 63.7957 56.9581 63.2238C56.9581 62.7222 57.0857 62.2778 57.3409 61.8906C57.596 61.5035 57.9524 61.2043 58.41 60.9931C58.8764 60.7819 59.4087 60.6763 60.0071 60.6763C60.8694 60.6763 61.5734 60.8919 62.119 61.3231C62.6733 61.7543 62.9857 62.3262 63.0561 63.039H61.7362C61.6922 62.687 61.5074 62.379 61.1818 62.115C60.8562 61.8422 60.4251 61.7059 59.8883 61.7059C59.3867 61.7059 58.9776 61.8378 58.6608 62.1018C58.344 62.357 58.1856 62.7178 58.1856 63.1842C58.1856 63.5185 58.278 63.7913 58.4628 64.0025C58.6564 64.2137 58.8896 64.3765 59.1624 64.4909C59.4439 64.5965 59.8355 64.7197 60.3371 64.8605C60.9442 65.0276 61.4326 65.1948 61.8022 65.362C62.1718 65.5204 62.4885 65.7712 62.7525 66.1144C63.0165 66.4488 63.1485 66.9063 63.1485 67.4871C63.1485 67.9359 63.0297 68.3582 62.7921 68.7542C62.5545 69.1502 62.2026 69.4714 61.7362 69.7178C61.2698 69.9641 60.7199 70.0873 60.0863 70.0873ZM64.4673 66.3652C64.4673 65.6172 64.6169 64.966 64.9161 64.4117C65.2152 63.8485 65.6288 63.4129 66.1568 63.105C66.6935 62.797 67.3051 62.643 67.9915 62.643C68.8802 62.643 69.6106 62.8586 70.1825 63.2898C70.7633 63.7209 71.1461 64.3193 71.3308 65.0848H70.0373C69.9141 64.6449 69.6722 64.2973 69.3114 64.0421C68.9594 63.7869 68.5194 63.6593 67.9915 63.6593C67.3051 63.6593 66.7507 63.8969 66.3284 64.3721C65.906 64.8385 65.6948 65.5028 65.6948 66.3652C65.6948 67.2363 65.906 67.9095 66.3284 68.3846C66.7507 68.8598 67.3051 69.0974 67.9915 69.0974C68.5194 69.0974 68.9594 68.9742 69.3114 68.7278C69.6634 68.4814 69.9053 68.1295 70.0373 67.6719H71.3308C71.1373 68.411 70.7501 69.005 70.1693 69.4538C69.5886 69.8937 68.8626 70.1137 67.9915 70.1137C67.3051 70.1137 66.6935 69.9597 66.1568 69.6518C65.6288 69.3438 65.2152 68.9082 64.9161 68.345C64.6169 67.7819 64.4673 67.1219 64.4673 66.3652ZM74.1346 63.9365C74.3458 63.5229 74.645 63.2018 75.0322 62.973C75.4282 62.7442 75.9077 62.6298 76.4709 62.6298V63.8705H76.1541C74.8078 63.8705 74.1346 64.6009 74.1346 66.0616V69.9949H72.9335V62.7618H74.1346V63.9365ZM78.4778 61.5871C78.249 61.5871 78.0554 61.5079 77.897 61.3495C77.7386 61.1911 77.6594 60.9975 77.6594 60.7687C77.6594 60.5399 77.7386 60.3463 77.897 60.1879C78.0554 60.0296 78.249 59.9504 78.4778 59.9504C78.6978 59.9504 78.8826 60.0296 79.0322 60.1879C79.1905 60.3463 79.2697 60.5399 79.2697 60.7687C79.2697 60.9975 79.1905 61.1911 79.0322 61.3495C78.8826 61.5079 78.6978 61.5871 78.4778 61.5871ZM79.0586 62.7618V69.9949H77.8574V62.7618H79.0586ZM82.3068 64.0949C82.5444 63.6813 82.8963 63.3382 83.3627 63.0654C83.8379 62.7838 84.3879 62.643 85.0126 62.643C85.655 62.643 86.2357 62.797 86.7549 63.105C87.2829 63.4129 87.6964 63.8485 87.9956 64.4117C88.2948 64.966 88.4444 65.6128 88.4444 66.352C88.4444 67.0823 88.2948 67.7335 87.9956 68.3054C87.6964 68.8774 87.2829 69.3218 86.7549 69.6386C86.2357 69.9553 85.655 70.1137 85.0126 70.1137C84.3967 70.1137 83.8511 69.9773 83.3759 69.7046C82.9095 69.423 82.5532 69.0754 82.3068 68.6618V73.4267H81.1057V62.7618H82.3068V64.0949ZM87.2169 66.352C87.2169 65.8064 87.1069 65.3312 86.8869 64.9265C86.6669 64.5217 86.3677 64.2137 85.9894 64.0025C85.6198 63.7913 85.2106 63.6857 84.7618 63.6857C84.3219 63.6857 83.9127 63.7957 83.5343 64.0157C83.1647 64.2269 82.8656 64.5393 82.6368 64.9529C82.4168 65.3576 82.3068 65.8284 82.3068 66.3652C82.3068 66.9107 82.4168 67.3903 82.6368 67.8039C82.8656 68.2086 83.1647 68.521 83.5343 68.741C83.9127 68.9522 84.3219 69.0578 84.7618 69.0578C85.2106 69.0578 85.6198 68.9522 85.9894 68.741C86.3677 68.521 86.6669 68.2086 86.8869 67.8039C87.1069 67.3903 87.2169 66.9063 87.2169 66.352ZM91.4905 63.7517V68.0151C91.4905 68.367 91.5653 68.6178 91.7149 68.7674C91.8645 68.9082 92.1241 68.9786 92.4937 68.9786H93.378V69.9949H92.2957C91.6269 69.9949 91.1253 69.8409 90.791 69.533C90.4566 69.225 90.2894 68.719 90.2894 68.0151V63.7517H89.3523V62.7618H90.2894V60.9403H91.4905V62.7618H93.378V63.7517H91.4905Z" fill="#0BFD31"/>
<g clip-path="url(#clip0)">
<path d="M76.5188 0.878357H37.2203C34.5864 0.878357 32.4511 2.90685 32.4511 5.40913V42.7427C32.4511 45.245 34.5864 47.2735 37.2203 47.2735H76.5188C79.1528 47.2735 81.2881 45.245 81.2881 42.7427V5.40913C81.2881 2.90685 79.1528 0.878357 76.5188 0.878357Z" fill="#3178C6"/>
<path fill-rule="evenodd" clip-rule="evenodd" d="M62.6881 37.7587V42.2894C63.4607 42.67 64.405 42.9509 65.4542 43.1412C66.5034 43.3315 67.6481 43.4221 68.7927 43.4221C69.9373 43.4221 70.9865 43.3225 72.0358 43.114C73.085 42.9056 73.9434 42.5613 74.7065 42.1173C75.4791 41.637 76.1373 41.0299 76.5188 40.2143C76.9004 39.3988 77.1961 38.4927 77.1961 37.3147C77.1961 36.4901 77.0625 35.7742 76.805 35.1399C76.5474 34.5056 76.1754 33.9619 75.6604 33.5088C75.1739 33.0285 74.6111 32.6027 73.9434 32.2402C73.2758 31.8777 72.5127 31.4971 71.6542 31.1528C71.0247 30.9081 70.5096 30.6725 69.9373 30.4369C69.4413 30.2013 69.0121 29.9657 68.6973 29.7301C68.3444 29.4855 68.0773 29.2318 67.8865 28.969C67.6958 28.6971 67.6004 28.3981 67.6004 28.0628C67.6004 27.7547 67.6853 27.4738 67.8579 27.2201C68.0306 26.9664 68.2681 26.758 68.5733 26.5767C68.8785 26.3955 69.2601 26.2596 69.7179 26.1599C70.1662 26.0602 70.6622 26.0149 71.2441 26.0149C71.6447 26.0149 72.0644 26.043 72.4841 26.1001C72.9228 26.1572 73.3711 26.2451 73.8194 26.3629C74.2678 26.4807 74.7065 26.6257 75.1548 26.8069C75.5745 26.9881 75.9656 27.1965 76.2994 27.4321V23.1732C75.5745 22.9104 74.7733 22.7111 73.9148 22.5842C73.0564 22.4574 72.1025 22.3939 70.9579 22.3939C69.8133 22.3939 68.7641 22.5117 67.7148 22.7383C66.6656 22.9648 65.8071 23.3273 65.0441 23.8256C64.2714 24.315 63.7087 24.913 63.2318 25.7286C62.7834 26.4897 62.5641 27.3596 62.5641 28.447C62.5641 29.8063 62.9742 30.9843 63.8041 31.8904C64.6244 32.8872 65.9025 33.6121 67.5241 34.337C68.1822 34.5908 68.7641 34.8445 69.3364 35.0891C69.9087 35.3338 70.3856 35.5875 70.7671 35.8503C71.1773 36.1131 71.5016 36.4031 71.721 36.7112C71.9594 37.0192 72.0834 37.3817 72.0834 37.7985C72.0834 38.0885 72.009 38.3604 71.8641 38.6141C71.7191 38.8678 71.4921 39.0853 71.1868 39.2665C70.8816 39.4477 70.5096 39.5927 70.0422 39.7015C69.5939 39.8011 69.0884 39.8555 68.4207 39.8555C67.3714 39.8555 66.3222 39.6833 65.3684 39.339C64.3191 38.9947 63.3653 38.4782 62.5068 37.7985L62.6881 37.7587ZM54.6757 26.613H60.7804V22.8977H43.7065V26.613H49.8111V43.1956H54.6757V26.613Z" fill="white"/>
</g>
<defs>
<clipPath id="clip0">
<rect width="48.8369" height="46.3951" fill="white" transform="translate(32.4511 0.878357)"/>
</clipPath>
</defs>
</svg>
