<svg width="83" height="94" viewBox="0 0 83 94" fill="none" xmlns="http://www.w3.org/2000/svg">
<g clip-path="url(#clip0)">
<path d="M63.8585 41.0656L42.7759 52.9918V43.7054L55.9098 36.4785L63.8585 41.0656ZM65.3019 39.7603V14.8253L57.5906 19.2824V35.313L65.3019 39.7603ZM19.8434 41.0656L40.9228 52.9918V43.7054L27.7807 36.4769L19.8434 41.0656ZM18.4 39.7603V14.8253L26.1113 19.2824V35.313L18.4 39.7603ZM19.3038 13.2063L40.9228 0.976135V9.9521L26.9598 17.6374L19.3038 13.2063ZM64.3949 13.2063L42.7759 0.976135V9.9521L56.7388 17.6293L64.3949 13.2063Z" fill="#8ED6FB"/>
<path d="M40.9228 41.9987L27.9611 34.8677V20.7519L40.9228 28.2356V41.9987ZM42.7759 41.9987L55.7392 34.8742V20.7486L42.7759 28.2356V41.9987ZM28.8389 19.1199L41.8493 11.9694L54.8598 19.1215L41.8493 26.6313L28.8389 19.1199Z" fill="#1C78C0"/>
</g>
<path d="M23.5532 77.9533L20.5512 88.3119H19.0353L16.6277 79.9745L14.131 88.3119L12.6299 88.3268L9.73191 77.9533H11.1735L13.4325 86.7366L15.9292 77.9533H17.4451L19.823 86.7068L22.0968 77.9533H23.5532ZM26.3856 79.0531V82.5159H30.1605V83.6305H26.3856V87.1973H30.6064V88.3119H25.0332V77.9385H30.6064V79.0531H26.3856ZM37.8394 82.9766C38.2159 83.036 38.5578 83.1896 38.8649 83.4373C39.1819 83.685 39.4296 83.9921 39.608 84.3587C39.7962 84.7253 39.8903 85.1166 39.8903 85.5328C39.8903 86.0579 39.7566 86.5334 39.4891 86.9595C39.2216 87.3756 38.8302 87.7075 38.315 87.9552C37.8097 88.193 37.2103 88.3119 36.5168 88.3119H32.6527V77.9533H36.3681C37.0716 77.9533 37.671 78.0722 38.1664 78.31C38.6618 78.5379 39.0333 78.85 39.281 79.2463C39.5287 79.6426 39.6526 80.0885 39.6526 80.5838C39.6526 81.1981 39.4841 81.7084 39.1473 82.1146C38.8203 82.5109 38.3844 82.7982 37.8394 82.9766ZM34.0051 82.4267H36.279C36.9131 82.4267 37.4035 82.2781 37.7503 81.9808C38.097 81.6836 38.2704 81.2724 38.2704 80.7473C38.2704 80.2222 38.097 79.811 37.7503 79.5138C37.4035 79.2166 36.9032 79.068 36.2492 79.068H34.0051V82.4267ZM36.3979 87.1973C37.0716 87.1973 37.5967 87.0387 37.9732 86.7217C38.3497 86.4046 38.5379 85.9638 38.5379 85.399C38.5379 84.8244 38.3398 84.3736 37.9435 84.0466C37.5472 83.7097 37.0171 83.5413 36.3533 83.5413H34.0051V87.1973H36.3979ZM48.6926 80.9851C48.6926 81.8471 48.3954 82.5654 47.8009 83.14C47.2164 83.7048 46.3197 83.9872 45.111 83.9872H43.1195V88.3119H41.7671V77.9533H45.111C46.2801 77.9533 47.1668 78.2357 47.7712 78.8004C48.3855 79.3652 48.6926 80.0934 48.6926 80.9851ZM45.111 82.8725C45.8639 82.8725 46.4188 82.7091 46.7755 82.3821C47.1321 82.0551 47.3105 81.5895 47.3105 80.9851C47.3105 79.707 46.5773 79.068 45.111 79.068H43.1195V82.8725H45.111ZM56.4965 86.0083H51.9785L51.1463 88.3119H49.7196L53.4647 78.0128H55.0252L58.7554 88.3119H57.3287L56.4965 86.0083ZM56.1101 84.9086L54.2375 79.6773L52.3649 84.9086H56.1101ZM59.8824 83.1252C59.8824 82.1146 60.1103 81.208 60.566 80.4055C61.0218 79.5931 61.641 78.959 62.4237 78.5032C63.2163 78.0475 64.0932 77.8196 65.0542 77.8196C66.1837 77.8196 67.1695 78.092 68.0117 78.637C68.8538 79.1819 69.4681 79.9547 69.8545 80.9554H68.2346C67.9473 80.3312 67.5312 79.8507 66.9862 79.5138C66.4512 79.1769 65.8072 79.0085 65.0542 79.0085C64.331 79.0085 63.682 79.1769 63.1073 79.5138C62.5327 79.8507 62.0819 80.3312 61.7549 80.9554C61.428 81.5697 61.2645 82.2929 61.2645 83.1252C61.2645 83.9475 61.428 84.6708 61.7549 85.295C62.0819 85.9093 62.5327 86.3848 63.1073 86.7217C63.682 87.0586 64.331 87.227 65.0542 87.227C65.8072 87.227 66.4512 87.0635 66.9862 86.7366C67.5312 86.3997 67.9473 85.9192 68.2346 85.295H69.8545C69.4681 86.2858 68.8538 87.0536 68.0117 87.5985C67.1695 88.1336 66.1837 88.4011 65.0542 88.4011C64.0932 88.4011 63.2163 88.1781 62.4237 87.7323C61.641 87.2765 61.0218 86.6474 60.566 85.8449C60.1103 85.0423 59.8824 84.1358 59.8824 83.1252ZM77.4854 88.3119L73.2201 83.5859V88.3119H71.8677V77.9533H73.2201V82.7536L77.5003 77.9533H79.2094L74.5131 83.14L79.2539 88.3119H77.4854Z" fill="#00FF0A"/>
<defs>
<clipPath id="clip0">
<rect width="52.0157" height="52.0157" fill="white" transform="translate(15.8415 0.976135)"/>
</clipPath>
</defs>
</svg>
